{
date = "2013-03-13 10:52:23 +0200";
familyName = "Open Sans Hebrew Condensed";
fontMaster = (
{
alignmentZones = (
"{1567, 16}",
"{1462, 24}",
"{1290, 30}",
"{1096, 15}",
"{0, -31}",
"{-492, -46}"
);
ascender = 1567;
capHeight = 1462;
descender = "-492";
id = UUID0;
italicAngle = 12;
xHeight = 1096;
}
);
glyphs = (
{
glyphname = A;
lastChange = "2013-03-13 10:38:35 +0200";
layers = (
{
layerId = UUID0;
name = "Regular Italic";
paths = (
{
closed = 1;
nodes = (
"510 1463 LINE",
"288 976 OFFCURVE",
"66 487 OFFCURVE",
"-155 0 CURVE",
"3 0 LINE",
"216 476 LINE",
"580 476 LINE",
"593 0 LINE",
"750 0 LINE",
"733 487 OFFCURVE",
"717 976 OFFCURVE",
"699 1463 CURVE"
);
},
{
closed = 1;
nodes = (
"571 1276 OFFCURVE",
"568 1219 OFFCURVE",
"568 1151 CURVE SMOOTH",
"570 1008 LINE",
"579 622 LINE",
"278 622 LINE",
"408 914 OFFCURVE",
"512 1137 OFFCURVE",
"575 1322 CURVE"
);
}
);
width = 906;
}
);
unicode = 0041;
},
{
glyphname = Aacute;
lastChange = "2013-03-13 10:38:35 +0200";
layers = (
{
layerId = UUID0;
name = "Regular Italic";
paths = (
{
closed = 1;
nodes = (
"463 1463 LINE",
"241 976 OFFCURVE",
"19 487 OFFCURVE",
"-203 0 CURVE",
"-45 0 LINE",
"169 476 LINE",
"533 476 LINE",
"545 0 LINE",
"702 0 LINE",
"686 487 OFFCURVE",
"670 976 OFFCURVE",
"652 1463 CURVE"
);
},
{
closed = 1;
nodes = (
"524 1276 OFFCURVE",
"520 1219 OFFCURVE",
"521 1151 CURVE SMOOTH",
"523 1008 LINE",
"532 622 LINE",
"231 622 LINE",
"361 914 OFFCURVE",
"465 1137 OFFCURVE",
"527 1322 CURVE"
);
},
{
closed = 1;
nodes = (
"749 1907 LINE",
"691 1821 OFFCURVE",
"590 1695 OFFCURVE",
"499 1601 CURVE",
"494 1579 LINE",
"587 1579 LINE",
"700 1658 OFFCURVE",
"877 1813 OFFCURVE",
"933 1888 CURVE",
"937 1907 LINE"
);
}
);
width = 906;
}
);
unicode = 00C1;
},
{
glyphname = Acircumflex;
lastChange = "2013-03-13 10:38:35 +0200";
layers = (
{
layerId = UUID0;
name = "Regular Italic";
paths = (
{
closed = 1;
nodes = (
"463 1463 LINE",
"241 976 OFFCURVE",
"19 487 OFFCURVE",
"-203 0 CURVE",
"-45 0 LINE",
"169 476 LINE",
"533 476 LINE",
"545 0 LINE",
"702 0 LINE",
"686 487 OFFCURVE",
"670 976 OFFCURVE",
"652 1463 CURVE"
);
},
{
closed = 1;
nodes = (
"524 1276 OFFCURVE",
"520 1219 OFFCURVE",
"521 1151 CURVE SMOOTH",
"523 1008 LINE",
"532 622 LINE",
"231 622 LINE",
"361 914 OFFCURVE",
"465 1137 OFFCURVE",
"527 1322 CURVE"
);
},
{
closed = 1;
nodes = (
"575 1907 LINE",
"519 1826 OFFCURVE",
"432 1724 OFFCURVE",
"312 1600 CURVE",
"308 1579 LINE",
"393 1579 LINE",
"462 1631 OFFCURVE",
"546 1708 OFFCURVE",
"626 1780 CURVE",
"694 1679 LINE SMOOTH",
"724 1635 OFFCURVE",
"750 1602 OFFCURVE",
"772 1579 CURVE",
"858 1579 LINE",
"862 1600 LINE",
"800 1711 OFFCURVE",
"744 1841 OFFCURVE",
"730 1907 CURVE"
);
}
);
width = 906;
}
);
unicode = 00C2;
},
{
glyphname = Adieresis;
lastChange = "2013-03-13 10:38:35 +0200";
layers = (
{
layerId = UUID0;
name = "Regular Italic";
paths = (
{
closed = 1;
nodes = (
"472 1463 LINE",
"249 976 OFFCURVE",
"27 487 OFFCURVE",
"-194 0 CURVE",
"-36 0 LINE",
"177 476 LINE",
"541 476 LINE",
"554 0 LINE",
"711 0 LINE",
"694 487 OFFCURVE",
"678 976 OFFCURVE",
"661 1463 CURVE"
);
},
{
closed = 1;
nodes = (
"532 1276 OFFCURVE",
"529 1219 OFFCURVE",
"529 1151 CURVE SMOOTH",
"531 1008 LINE",
"540 622 LINE",
"239 622 LINE",
"369 914 OFFCURVE",
"473 1137 OFFCURVE",
"536 1322 CURVE"
);
},
{
closed = 1;
nodes = (
"431 1828 OFFCURVE",
"388 1797 OFFCURVE",
"374 1732 CURVE SMOOTH",
"360 1666 OFFCURVE",
"390 1633 OFFCURVE",
"439 1633 CURVE SMOOTH",
"488 1633 OFFCURVE",
"531 1667 OFFCURVE",
"545 1732 CURVE SMOOTH",
"558 1795 OFFCURVE",
"529 1828 OFFCURVE",
"480 1828 CURVE SMOOTH"
);
},
{
closed = 1;
nodes = (
"767 1828 OFFCURVE",
"723 1796 OFFCURVE",
"710 1732 CURVE SMOOTH",
"696 1667 OFFCURVE",
"726 1633 OFFCURVE",
"774 1633 CURVE SMOOTH",
"824 1633 OFFCURVE",
"867 1666 OFFCURVE",
"881 1732 CURVE SMOOTH",
"895 1797 OFFCURVE",
"864 1828 OFFCURVE",
"815 1828 CURVE SMOOTH"
);
}
);
width = 906;
}
);
unicode = 00C4;
},
{
glyphname = Agrave;
lastChange = "2013-03-13 10:38:35 +0200";
layers = (
{
layerId = UUID0;
name = "Regular Italic";
paths = (
{
closed = 1;
nodes = (
"463 1463 LINE",
"241 976 OFFCURVE",
"19 487 OFFCURVE",
"-203 0 CURVE",
"-45 0 LINE",
"169 476 LINE",
"533 476 LINE",
"545 0 LINE",
"702 0 LINE",
"686 487 OFFCURVE",
"670 976 OFFCURVE",
"652 1463 CURVE"
);
},
{
closed = 1;
nodes = (
"524 1276 OFFCURVE",
"520 1219 OFFCURVE",
"521 1151 CURVE SMOOTH",
"523 1008 LINE",
"532 622 LINE",
"231 622 LINE",
"361 914 OFFCURVE",
"465 1137 OFFCURVE",
"527 1322 CURVE"
);
},
{
closed = 1;
nodes = (
"365 1907 LINE",
"361 1889 LINE",
"374 1848 OFFCURVE",
"404 1795 OFFCURVE",
"449 1731 CURVE SMOOTH",
"496 1667 OFFCURVE",
"538 1616 OFFCURVE",
"575 1579 CURVE",
"669 1579 LINE",
"674 1602 LINE",
"650 1642 OFFCURVE",
"626 1693 OFFCURVE",
"602 1754 CURVE SMOOTH",
"579 1814 OFFCURVE",
"563 1866 OFFCURVE",
"554 1907 CURVE"
);
}
);
width = 906;
}
);
unicode = 00C0;
},
{
glyphname = Aring;
lastChange = "2013-03-13 10:38:35 +0200";
layers = (
{
layerId = UUID0;
name = "Regular Italic";
paths = (
{
closed = 1;
nodes = (
"477 1463 LINE",
"254 976 OFFCURVE",
"32 487 OFFCURVE",
"-189 0 CURVE",
"-31 0 LINE",
"182 476 LINE",
"546 476 LINE",
"559 0 LINE",
"716 0 LINE",
"699 487 OFFCURVE",
"683 976 OFFCURVE",
"666 1463 CURVE"
);
},
{
closed = 1;
nodes = (
"537 1276 OFFCURVE",
"534 1219 OFFCURVE",
"534 1151 CURVE SMOOTH",
"536 1008 LINE",
"545 622 LINE",
"244 622 LINE",
"374 914 OFFCURVE",
"478 1137 OFFCURVE",
"541 1322 CURVE"
);
},
{
closed = 1;
nodes = (
"693 1690 OFFCURVE",
"725 1645 OFFCURVE",
"711 1579 CURVE SMOOTH",
"697 1511 OFFCURVE",
"641 1467 OFFCURVE",
"574 1467 CURVE SMOOTH",
"499 1467 OFFCURVE",
"469 1511 OFFCURVE",
"483 1579 CURVE SMOOTH",
"497 1645 OFFCURVE",
"554 1690 OFFCURVE",
"621 1690 CURVE SMOOTH"
);
},
{
closed = 1;
nodes = (
"512 1781 OFFCURVE",
"409 1702 OFFCURVE",
"383 1579 CURVE SMOOTH",
"356 1452 OFFCURVE",
"426 1377 OFFCURVE",
"554 1377 CURVE SMOOTH",
"685 1377 OFFCURVE",
"787 1457 OFFCURVE",
"814 1582 CURVE SMOOTH",
"839 1701 OFFCURVE",
"764 1781 OFFCURVE",
"640 1781 CURVE SMOOTH"
);
}
);
width = 906;
}
);
unicode = 00C5;
},
{
glyphname = Atilde;
lastChange = "2013-03-13 10:38:35 +0200";
layers = (
{
layerId = UUID0;
name = "Regular Italic";
paths = (
{
closed = 1;
nodes = (
"472 1463 LINE",
"250 976 OFFCURVE",
"28 487 OFFCURVE",
"-194 0 CURVE",
"-36 0 LINE",
"178 476 LINE",
"542 476 LINE",
"554 0 LINE",
"711 0 LINE",
"695 487 OFFCURVE",
"679 976 OFFCURVE",
"661 1463 CURVE"
);
},
{
closed = 1;
nodes = (
"533 1276 OFFCURVE",
"530 1219 OFFCURVE",
"530 1151 CURVE SMOOTH",
"532 1008 LINE",
"541 622 LINE",
"240 622 LINE",
"370 914 OFFCURVE",
"474 1137 OFFCURVE",
"536 1322 CURVE"
);
},
{
closed = 1;
nodes = (
"857 1821 LINE",
"827 1745 OFFCURVE",
"799 1699 OFFCURVE",
"753 1699 CURVE SMOOTH",
"682 1699 OFFCURVE",
"631 1819 OFFCURVE",
"530 1819 CURVE SMOOTH",
"425 1819 OFFCURVE",
"345 1732 OFFCURVE",
"296 1578 CURVE",
"392 1578 LINE",
"421 1657 OFFCURVE",
"458 1701 OFFCURVE",
"500 1701 CURVE SMOOTH",
"567 1701 OFFCURVE",
"619 1580 OFFCURVE",
"721 1580 CURVE SMOOTH",
"821 1580 OFFCURVE",
"906 1664 OFFCURVE",
"953 1821 CURVE"
);
}
);
width = 906;
}
);
unicode = 00C3;
},
{
glyphname = AE;
lastChange = "2013-03-13 10:38:35 +0200";
layers = (
{
layerId = UUID0;
name = "Regular Italic";
paths = (
{
closed = 1;
nodes = (
"601 1462 LINE",
"-155 0 LINE",
"4 0 LINE",
"84 159 OFFCURVE",
"163 317 OFFCURVE",
"244 476 CURVE",
"522 476 LINE",
"421 0 LINE",
"993 0 LINE",
"1023 141 LINE",
"607 141 LINE",
"724 693 LINE",
"1114 693 LINE",
"1144 834 LINE",
"754 834 LINE",
"857 1320 LINE",
"1273 1320 LINE",
"1303 1462 LINE"
);
},
{
closed = 1;
nodes = (
"553 622 LINE",
"318 622 LINE",
"405 794 OFFCURVE",
"491 966 OFFCURVE",
"579 1138 CURVE SMOOTH",
"670 1318 LINE",
"701 1318 LINE"
);
}
);
width = 1243;
}
);
unicode = 00C6;
},
{
glyphname = B;
lastChange = "2013-03-13 10:38:35 +0200";
layers = (
{
layerId = UUID0;
name = "Regular Italic";
paths = (
{
closed = 1;
nodes = (
"304 1462 LINE",
"-6 0 LINE",
"365 0 LINE SMOOTH",
"587 0 OFFCURVE",
"751 157 OFFCURVE",
"806 418 CURVE SMOOTH",
"849 617 OFFCURVE",
"796 729 OFFCURVE",
"637 766 CURVE",
"639 774 LINE",
"782 801 OFFCURVE",
"883 919 OFFCURVE",
"923 1106 CURVE SMOOTH",
"973 1344 OFFCURVE",
"869 1462 OFFCURVE",
"615 1462 CURVE SMOOTH"
);
},
{
closed = 1;
nodes = (
"621 696 OFFCURVE",
"686 602 OFFCURVE",
"649 428 CURVE SMOOTH",
"607 234 OFFCURVE",
"515 138 OFFCURVE",
"369 138 CURVE SMOOTH",
"173 138 LINE",
"292 696 LINE",
"468 696 LINE SMOOTH"
);
},
{
closed = 1;
nodes = (
"736 1324 OFFCURVE",
"796 1247 OFFCURVE",
"764 1096 CURVE SMOOTH",
"726 919 OFFCURVE",
"646 831 OFFCURVE",
"485 831 CURVE SMOOTH",
"320 831 LINE",
"425 1324 LINE",
"585 1324 LINE SMOOTH"
);
}
);
width = 950;
}
);
unicode = 0042;
},
{
glyphname = C;
lastChange = "2013-03-13 10:38:35 +0200";
layers = (
{
layerId = UUID0;
name = "Regular Italic";
paths = (
{
closed = 1;
nodes = (
"436 1484 OFFCURVE",
"200 1191 OFFCURVE",
"99 719 CURVE SMOOTH",
"1 255 OFFCURVE",
"127 -20 OFFCURVE",
"420 -20 CURVE SMOOTH",
"514 -20 OFFCURVE",
"594 -2 OFFCURVE",
"659 33 CURVE",
"689 173 LINE",
"616 138 OFFCURVE",
"541 121 OFFCURVE",
"463 121 CURVE SMOOTH",
"256 121 OFFCURVE",
"181 351 OFFCURVE",
"262 731 CURVE SMOOTH",
"342 1110 OFFCURVE",
"515 1342 OFFCURVE",
"716 1342 CURVE SMOOTH",
"790 1342 OFFCURVE",
"849 1317 OFFCURVE",
"898 1279 CURVE",
"986 1410 LINE",
"915 1461 OFFCURVE",
"838 1484 OFFCURVE",
"743 1484 CURVE SMOOTH"
);
}
);
width = 889;
}
);
unicode = 0043;
},
{
glyphname = Ccedilla;
lastChange = "2013-03-13 10:38:35 +0200";
layers = (
{
layerId = UUID0;
name = "Regular Italic";
paths = (
{
closed = 1;
nodes = (
"486 1484 OFFCURVE",
"250 1191 OFFCURVE",
"149 719 CURVE SMOOTH",
"51 255 OFFCURVE",
"177 -20 OFFCURVE",
"470 -20 CURVE SMOOTH",
"564 -20 OFFCURVE",
"644 -2 OFFCURVE",
"710 33 CURVE",
"739 173 LINE",
"666 138 OFFCURVE",
"591 121 OFFCURVE",
"513 121 CURVE SMOOTH",
"306 121 OFFCURVE",
"231 351 OFFCURVE",
"312 731 CURVE SMOOTH",
"393 1110 OFFCURVE",
"565 1342 OFFCURVE",
"766 1342 CURVE SMOOTH",
"840 1342 OFFCURVE",
"900 1317 OFFCURVE",
"948 1279 CURVE",
"1036 1410 LINE",
"965 1461 OFFCURVE",
"888 1484 OFFCURVE",
"793 1484 CURVE SMOOTH"
);
},
{
closed = 1;
nodes = (
"386 0 LINE",
"277 -159 LINE",
"378 -176 OFFCURVE",
"428 -213 OFFCURVE",
"413 -285 CURVE SMOOTH",
"400 -348 OFFCURVE",
"350 -388 OFFCURVE",
"260 -388 CURVE SMOOTH",
"226 -388 OFFCURVE",
"197 -383 OFFCURVE",
"171 -375 CURVE",
"149 -478 LINE",
"171 -487 OFFCURVE",
"203 -492 OFFCURVE",
"247 -492 CURVE SMOOTH",
"410 -492 OFFCURVE",
"516 -417 OFFCURVE",
"545 -281 CURVE SMOOTH",
"565 -187 OFFCURVE",
"521 -127 OFFCURVE",
"425 -102 CURVE",
"493 0 LINE"
);
}
);
width = 889;
}
);
unicode = 00C7;
},
{
glyphname = D;
lastChange = "2013-03-13 10:38:35 +0200";
layers = (
{
layerId = UUID0;
name = "Regular Italic";
paths = (
{
closed = 1;
nodes = (
"304 1462 LINE",
"-6 0 LINE",
"287 0 LINE SMOOTH",
"617 0 OFFCURVE",
"840 250 OFFCURVE",
"945 745 CURVE SMOOTH",
"1044 1212 OFFCURVE",
"923 1462 OFFCURVE",
"612 1462 CURVE SMOOTH"
);
},
{
closed = 1;
nodes = (
"795 1324 OFFCURVE",
"864 1122 OFFCURVE",
"782 738 CURVE SMOOTH",
"699 345 OFFCURVE",
"547 138 OFFCURVE",
"312 138 CURVE SMOOTH",
"179 138 LINE",
"431 1324 LINE",
"577 1324 LINE SMOOTH"
);
}
);
width = 1044;
}
);
unicode = 0044;
},
{
glyphname = Eth;
lastChange = "2013-03-13 10:38:35 +0200";
layers = (
{
layerId = UUID0;
name = "Regular Italic";
paths = (
{
closed = 1;
nodes = (
"304 1462 LINE",
"165 807 LINE",
"56 807 LINE",
"27 668 LINE",
"136 668 LINE",
"-6 0 LINE",
"287 0 LINE SMOOTH",
"617 0 OFFCURVE",
"840 253 OFFCURVE",
"945 745 CURVE SMOOTH",
"1043 1208 OFFCURVE",
"925 1462 OFFCURVE",
"612 1462 CURVE SMOOTH"
);
},
{
closed = 1;
nodes = (
"795 1324 OFFCURVE",
"864 1122 OFFCURVE",
"782 738 CURVE SMOOTH",
"699 345 OFFCURVE",
"547 138 OFFCURVE",
"312 138 CURVE SMOOTH",
"179 138 LINE",
"292 668 LINE",
"503 668 LINE",
"532 807 LINE",
"321 807 LINE",
"431 1324 LINE",
"577 1324 LINE SMOOTH"
);
}
);
width = 1044;
}
);
unicode = 00D0;
},
{
glyphname = E;
lastChange = "2013-03-13 10:38:35 +0200";
layers = (
{
layerId = UUID0;
name = "Regular Italic";
paths = (
{
closed = 1;
nodes = (
"305 1462 LINE",
"-5 0 LINE",
"567 0 LINE",
"597 142 LINE",
"180 142 LINE",
"297 694 LINE",
"689 694 LINE",
"719 835 LINE",
"327 835 LINE",
"430 1321 LINE",
"847 1321 LINE",
"877 1462 LINE"
);
}
);
width = 816;
}
);
unicode = 0045;
},
{
glyphname = Eacute;
lastChange = "2013-03-13 10:38:35 +0200";
layers = (
{
layerId = UUID0;
name = "Regular Italic";
paths = (
{
closed = 1;
nodes = (
"258 1462 LINE",
"-53 0 LINE",
"519 0 LINE",
"550 142 LINE",
"133 142 LINE",
"250 694 LINE",
"642 694 LINE",
"672 835 LINE",
"280 835 LINE",
"383 1321 LINE",
"800 1321 LINE",
"830 1462 LINE"
);
},
{
closed = 1;
nodes = (
"716 1907 LINE",
"658 1821 OFFCURVE",
"557 1695 OFFCURVE",
"466 1601 CURVE",
"461 1579 LINE",
"554 1579 LINE",
"667 1658 OFFCURVE",
"844 1813 OFFCURVE",
"900 1888 CURVE",
"904 1907 LINE"
);
}
);
width = 816;
}
);
unicode = 00C9;
},
{
glyphname = Ecircumflex;
lastChange = "2013-03-13 10:38:35 +0200";
layers = (
{
layerId = UUID0;
name = "Regular Italic";
paths = (
{
closed = 1;
nodes = (
"258 1462 LINE",
"-53 0 LINE",
"519 0 LINE",
"550 142 LINE",
"133 142 LINE",
"250 694 LINE",
"642 694 LINE",
"672 835 LINE",
"280 835 LINE",
"383 1321 LINE",
"800 1321 LINE",
"830 1462 LINE"
);
},
{
closed = 1;
nodes = (
"555 1907 LINE",
"499 1826 OFFCURVE",
"412 1724 OFFCURVE",
"292 1600 CURVE",
"288 1579 LINE",
"373 1579 LINE",
"442 1631 OFFCURVE",
"526 1708 OFFCURVE",
"606 1780 CURVE",
"674 1679 LINE SMOOTH",
"704 1635 OFFCURVE",
"730 1602 OFFCURVE",
"752 1579 CURVE",
"838 1579 LINE",
"842 1600 LINE",
"780 1711 OFFCURVE",
"724 1841 OFFCURVE",
"710 1907 CURVE"
);
}
);
width = 816;
}
);
unicode = 00CA;
},
{
glyphname = Edieresis;
lastChange = "2013-03-13 10:38:35 +0200";
layers = (
{
layerId = UUID0;
name = "Regular Italic";
paths = (
{
closed = 1;
nodes = (
"266 1462 LINE",
"-44 0 LINE",
"528 0 LINE",
"558 142 LINE",
"141 142 LINE",
"258 694 LINE",
"650 694 LINE",
"680 835 LINE",
"288 835 LINE",
"392 1321 LINE",
"809 1321 LINE",
"838 1462 LINE"
);
},
{
closed = 1;
nodes = (
"410 1828 OFFCURVE",
"367 1797 OFFCURVE",
"353 1732 CURVE SMOOTH",
"339 1666 OFFCURVE",
"369 1633 OFFCURVE",
"418 1633 CURVE SMOOTH",
"467 1633 OFFCURVE",
"510 1667 OFFCURVE",
"524 1732 CURVE SMOOTH",
"537 1795 OFFCURVE",
"508 1828 OFFCURVE",
"459 1828 CURVE SMOOTH"
);
},
{
closed = 1;
nodes = (
"746 1828 OFFCURVE",
"702 1796 OFFCURVE",
"689 1732 CURVE SMOOTH",
"675 1667 OFFCURVE",
"705 1633 OFFCURVE",
"753 1633 CURVE SMOOTH",
"803 1633 OFFCURVE",
"846 1666 OFFCURVE",
"860 1732 CURVE SMOOTH",
"874 1797 OFFCURVE",
"843 1828 OFFCURVE",
"794 1828 CURVE SMOOTH"
);
}
);
width = 816;
}
);
unicode = 00CB;
},
{
glyphname = Egrave;
lastChange = "2013-03-13 10:38:35 +0200";
layers = (
{
layerId = UUID0;
name = "Regular Italic";
paths = (
{
closed = 1;
nodes = (
"258 1462 LINE",
"-53 0 LINE",
"519 0 LINE",
"550 142 LINE",
"133 142 LINE",
"250 694 LINE",
"642 694 LINE",
"672 835 LINE",
"280 835 LINE",
"383 1321 LINE",
"800 1321 LINE",
"830 1462 LINE"
);
},
{
closed = 1;
nodes = (
"366 1907 LINE",
"362 1889 LINE",
"375 1848 OFFCURVE",
"405 1795 OFFCURVE",
"450 1731 CURVE SMOOTH",
"497 1667 OFFCURVE",
"539 1616 OFFCURVE",
"576 1579 CURVE",
"670 1579 LINE",
"675 1602 LINE",
"651 1642 OFFCURVE",
"627 1693 OFFCURVE",
"603 1754 CURVE SMOOTH",
"580 1814 OFFCURVE",
"564 1866 OFFCURVE",
"555 1907 CURVE"
);
}
);
width = 816;
}
);
unicode = 00C8;
},
{
glyphname = F;
lastChange = "2013-03-13 10:38:35 +0200";
layers = (
{
layerId = UUID0;
name = "Regular Italic";
paths = (
{
closed = 1;
nodes = (
"305 1462 LINE",
"-5 0 LINE",
"150 0 LINE",
"284 631 LINE",
"677 631 LINE",
"707 772 LINE",
"314 772 LINE",
"430 1321 LINE",
"847 1321 LINE",
"877 1462 LINE"
);
}
);
width = 765;
}
);
unicode = 0046;
},
{
glyphname = G;
lastChange = "2013-03-13 10:38:35 +0200";
layers = (
{
layerId = UUID0;
name = "Regular Italic";
paths = (
{
closed = 1;
nodes = (
"458 1483 OFFCURVE",
"202 1201 OFFCURVE",
"103 734 CURVE SMOOTH",
"1 255 OFFCURVE",
"128 -20 OFFCURVE",
"454 -20 CURVE SMOOTH",
"581 -20 OFFCURVE",
"708 3 OFFCURVE",
"834 50 CURVE",
"985 761 LINE",
"623 761 LINE",
"593 619 LINE",
"801 619 LINE",
"702 152 LINE",
"638 131 OFFCURVE",
"568 121 OFFCURVE",
"491 121 CURVE SMOOTH",
"264 121 OFFCURVE",
"181 344 OFFCURVE",
"263 731 CURVE SMOOTH",
"345 1119 OFFCURVE",
"531 1342 OFFCURVE",
"783 1342 CURVE SMOOTH",
"863 1342 OFFCURVE",
"942 1314 OFFCURVE",
"1019 1259 CURVE",
"1049 1303 OFFCURVE",
"1078 1346 OFFCURVE",
"1107 1390 CURVE",
"1020 1452 OFFCURVE",
"920 1483 OFFCURVE",
"807 1483 CURVE SMOOTH"
);
}
);
width = 1087;
}
);
unicode = 0047;
},
{
glyphname = H;
lastChange = "2013-03-13 10:38:35 +0200";
layers = (
{
layerId = UUID0;
name = "Regular Italic";
paths = (
{
closed = 1;
nodes = (
"920 1462 LINE",
"787 835 LINE",
"327 835 LINE",
"460 1462 LINE",
"305 1462 LINE",
"-5 0 LINE",
"150 0 LINE",
"297 693 LINE",
"757 693 LINE",
"610 0 LINE",
"766 0 LINE",
"1076 1462 LINE"
);
}
);
width = 1071;
}
);
unicode = 0048;
},
{
glyphname = I;
lastChange = "2013-03-13 10:38:35 +0200";
layers = (
{
layerId = UUID0;
name = "Regular Italic";
paths = (
{
closed = 1;
nodes = (
"321 1462 LINE",
"11 0 LINE",
"161 0 LINE",
"471 1462 LINE"
);
}
);
width = 483;
}
);
unicode = 0049;
},
{
glyphname = Iacute;
lastChange = "2013-03-13 10:38:35 +0200";
layers = (
{
layerId = UUID0;
name = "Regular Italic";
paths = (
{
closed = 1;
nodes = (
"274 1462 LINE",
"-37 0 LINE",
"113 0 LINE",
"424 1462 LINE"
);
},
{
closed = 1;
nodes = (
"546 1907 LINE",
"488 1821 OFFCURVE",
"387 1695 OFFCURVE",
"296 1601 CURVE",
"291 1579 LINE",
"384 1579 LINE",
"497 1658 OFFCURVE",
"674 1813 OFFCURVE",
"730 1888 CURVE",
"734 1907 LINE"
);
}
);
width = 483;
}
);
unicode = 00CD;
},
{
glyphname = Icircumflex;
lastChange = "2013-03-13 10:38:35 +0200";
layers = (
{
layerId = UUID0;
name = "Regular Italic";
paths = (
{
closed = 1;
nodes = (
"274 1462 LINE",
"-37 0 LINE",
"113 0 LINE",
"424 1462 LINE"
);
},
{
closed = 1;
nodes = (
"366 1907 LINE",
"310 1826 OFFCURVE",
"223 1724 OFFCURVE",
"103 1600 CURVE",
"99 1579 LINE",
"184 1579 LINE",
"253 1631 OFFCURVE",
"337 1708 OFFCURVE",
"417 1780 CURVE",
"485 1679 LINE SMOOTH",
"515 1635 OFFCURVE",
"541 1602 OFFCURVE",
"563 1579 CURVE",
"649 1579 LINE",
"653 1600 LINE",
"591 1711 OFFCURVE",
"535 1841 OFFCURVE",
"521 1907 CURVE"
);
}
);
width = 483;
}
);
unicode = 00CE;
},
{
glyphname = Idieresis;
lastChange = "2013-03-13 10:38:35 +0200";
layers = (
{
layerId = UUID0;
name = "Regular Italic";
paths = (
{
closed = 1;
nodes = (
"282 1462 LINE",
"-28 0 LINE",
"122 0 LINE",
"432 1462 LINE"
);
},
{
closed = 1;
nodes = (
"220 1828 OFFCURVE",
"177 1797 OFFCURVE",
"163 1732 CURVE SMOOTH",
"149 1666 OFFCURVE",
"179 1633 OFFCURVE",
"228 1633 CURVE SMOOTH",
"277 1633 OFFCURVE",
"320 1667 OFFCURVE",
"334 1732 CURVE SMOOTH",
"347 1795 OFFCURVE",
"318 1828 OFFCURVE",
"269 1828 CURVE SMOOTH"
);
},
{
closed = 1;
nodes = (
"556 1828 OFFCURVE",
"512 1796 OFFCURVE",
"499 1732 CURVE SMOOTH",
"485 1667 OFFCURVE",
"515 1633 OFFCURVE",
"563 1633 CURVE SMOOTH",
"613 1633 OFFCURVE",
"656 1666 OFFCURVE",
"670 1732 CURVE SMOOTH",
"684 1797 OFFCURVE",
"653 1828 OFFCURVE",
"604 1828 CURVE SMOOTH"
);
}
);
width = 483;
}
);
unicode = 00CF;
},
{
glyphname = Igrave;
lastChange = "2013-03-13 10:38:35 +0200";
layers = (
{
layerId = UUID0;
name = "Regular Italic";
paths = (
{
closed = 1;
nodes = (
"274 1462 LINE",
"-37 0 LINE",
"113 0 LINE",
"424 1462 LINE"
);
},
{
closed = 1;
nodes = (
"164 1907 LINE",
"160 1889 LINE",
"173 1848 OFFCURVE",
"203 1795 OFFCURVE",
"248 1731 CURVE SMOOTH",
"295 1667 OFFCURVE",
"337 1616 OFFCURVE",
"374 1579 CURVE",
"468 1579 LINE",
"473 1602 LINE",
"449 1642 OFFCURVE",
"425 1693 OFFCURVE",
"401 1754 CURVE SMOOTH",
"378 1814 OFFCURVE",
"362 1866 OFFCURVE",
"353 1907 CURVE"
);
}
);
width = 483;
}
);
unicode = 00CC;
},
{
glyphname = J;
lastChange = "2013-03-13 10:38:35 +0200";
layers = (
{
layerId = UUID0;
name = "Regular Italic";
paths = (
{
closed = 1;
nodes = (
"339 1462 LINE",
"27 -7 LINE SMOOTH",
"-8 -171 OFFCURVE",
"-67 -242 OFFCURVE",
"-159 -242 CURVE SMOOTH",
"-202 -242 OFFCURVE",
"-239 -235 OFFCURVE",
"-273 -222 CURVE",
"-302 -361 LINE",
"-270 -378 OFFCURVE",
"-227 -386 OFFCURVE",
"-173 -386 CURVE SMOOTH",
"-3 -387 OFFCURVE",
"133 -249 OFFCURVE",
"183 -1 CURVE",
"494 1462 LINE"
);
}
);
width = 444;
}
);
unicode = 004A;
},
{
glyphname = K;
lastChange = "2013-03-13 10:38:35 +0200";
layers = (
{
layerId = UUID0;
name = "Regular Italic";
paths = (
{
closed = 1;
nodes = (
"863 1462 LINE",
"593 1102 OFFCURVE",
"360 791 OFFCURVE",
"299 704 CURVE",
"460 1462 LINE",
"304 1462 LINE",
"-6 0 LINE",
"150 0 LINE",
"268 558 LINE",
"408 694 LINE",
"463 463 OFFCURVE",
"517 231 OFFCURVE",
"571 0 CURVE",
"740 0 LINE",
"672 273 OFFCURVE",
"605 548 OFFCURVE",
"537 822 CURVE",
"1030 1462 LINE"
);
}
);
width = 896;
}
);
unicode = 004B;
},
{
glyphname = L;
lastChange = "2013-03-13 10:38:35 +0200";
layers = (
{
layerId = UUID0;
name = "Regular Italic";
paths = (
{
closed = 1;
nodes = (
"305 1462 LINE",
"-5 0 LINE",
"551 0 LINE",
"581 142 LINE",
"180 142 LINE",
"460 1462 LINE"
);
}
);
width = 748;
}
);
unicode = 004C;
},
{
glyphname = M;
lastChange = "2013-03-13 10:38:35 +0200";
layers = (
{
layerId = UUID0;
name = "Regular Italic";
paths = (
{
closed = 1;
nodes = (
"1229 1462 LINE",
"717 395 LINE SMOOTH",
"667 295 OFFCURVE",
"633 218 OFFCURVE",
"612 164 CURVE",
"604 164 LINE",
"608 232 OFFCURVE",
"607 309 OFFCURVE",
"602 397 CURVE SMOOTH",
"539 1462 LINE",
"304 1462 LINE",
"-6 0 LINE",
"140 0 LINE",
"360 1037 LINE SMOOTH",
"371 1088 OFFCURVE",
"386 1177 OFFCURVE",
"403 1302 CURVE",
"412 1302 LINE",
"489 0 LINE",
"661 0 LINE",
"1288 1300 LINE",
"1296 1300 LINE",
"1262 1178 OFFCURVE",
"1240 1089 OFFCURVE",
"1229 1035 CURVE SMOOTH",
"1009 0 LINE",
"1159 0 LINE",
"1469 1462 LINE"
);
}
);
width = 1465;
}
);
unicode = 004D;
},
{
glyphname = N;
lastChange = "2013-03-13 10:38:35 +0200";
layers = (
{
layerId = UUID0;
name = "Regular Italic";
paths = (
{
closed = 1;
nodes = (
"1012 1462 LINE",
"811 514 LINE SMOOTH",
"794 433 OFFCURVE",
"779 344 OFFCURVE",
"765 248 CURVE",
"758 248 LINE",
"500 1462 LINE",
"305 1462 LINE",
"-5 0 LINE",
"142 0 LINE",
"347 966 LINE SMOOTH",
"365 1053 OFFCURVE",
"379 1140 OFFCURVE",
"387 1228 CURVE",
"397 1228 LINE",
"655 0 LINE",
"849 0 LINE",
"1159 1462 LINE"
);
}
);
width = 1153;
}
);
unicode = 004E;
},
{
glyphname = Ntilde;
lastChange = "2013-03-13 10:38:35 +0200";
layers = (
{
layerId = UUID0;
name = "Regular Italic";
paths = (
{
closed = 1;
nodes = (
"974 1462 LINE",
"773 514 LINE SMOOTH",
"756 433 OFFCURVE",
"741 344 OFFCURVE",
"727 248 CURVE",
"720 248 LINE",
"462 1462 LINE",
"267 1462 LINE",
"-44 0 LINE",
"103 0 LINE",
"309 966 LINE SMOOTH",
"327 1053 OFFCURVE",
"341 1140 OFFCURVE",
"348 1228 CURVE",
"358 1228 LINE",
"616 0 LINE",
"810 0 LINE",
"1121 1462 LINE"
);
},
{
closed = 1;
nodes = (
"993 1821 LINE",
"963 1745 OFFCURVE",
"935 1699 OFFCURVE",
"889 1699 CURVE SMOOTH",
"818 1699 OFFCURVE",
"767 1819 OFFCURVE",
"666 1819 CURVE SMOOTH",
"561 1819 OFFCURVE",
"481 1732 OFFCURVE",
"432 1578 CURVE",
"528 1578 LINE",
"557 1657 OFFCURVE",
"594 1701 OFFCURVE",
"636 1701 CURVE SMOOTH",
"703 1701 OFFCURVE",
"755 1580 OFFCURVE",
"857 1580 CURVE SMOOTH",
"957 1580 OFFCURVE",
"1042 1664 OFFCURVE",
"1089 1821 CURVE"
);
}
);
width = 1153;
}
);
unicode = 00D1;
},
{
glyphname = O;
lastChange = "2013-03-13 10:38:35 +0200";
layers = (
{
layerId = UUID0;
name = "Regular Italic";
paths = (
{
closed = 1;
nodes = (
"416 1483 OFFCURVE",
"209 1233 OFFCURVE",
"103 735 CURVE SMOOTH",
"1 254 OFFCURVE",
"98 -20 OFFCURVE",
"397 -20 CURVE SMOOTH",
"693 -20 OFFCURVE",
"911 253 OFFCURVE",
"1013 733 CURVE SMOOTH",
"1115 1212 OFFCURVE",
"1013 1483 OFFCURVE",
"720 1483 CURVE SMOOTH"
);
},
{
closed = 1;
nodes = (
"884 1341 OFFCURVE",
"939 1135 OFFCURVE",
"853 733 CURVE SMOOTH",
"767 326 OFFCURVE",
"621 122 OFFCURVE",
"427 122 CURVE SMOOTH",
"234 122 OFFCURVE",
"177 331 OFFCURVE",
"262 733 CURVE SMOOTH",
"347 1130 OFFCURVE",
"491 1341 OFFCURVE",
"690 1341 CURVE SMOOTH"
);
}
);
width = 1116;
}
);
unicode = 004F;
},
{
glyphname = Oacute;
lastChange = "2013-03-13 10:38:35 +0200";
layers = (
{
layerId = UUID0;
name = "Regular Italic";
paths = (
{
closed = 1;
nodes = (
"371 1483 OFFCURVE",
"164 1233 OFFCURVE",
"58 735 CURVE SMOOTH",
"-45 254 OFFCURVE",
"53 -20 OFFCURVE",
"352 -20 CURVE SMOOTH",
"648 -20 OFFCURVE",
"866 253 OFFCURVE",
"968 733 CURVE SMOOTH",
"1070 1212 OFFCURVE",
"968 1483 OFFCURVE",
"675 1483 CURVE SMOOTH"
);
},
{
closed = 1;
nodes = (
"838 1341 OFFCURVE",
"894 1135 OFFCURVE",
"808 733 CURVE SMOOTH",
"722 326 OFFCURVE",
"576 122 OFFCURVE",
"382 122 CURVE SMOOTH",
"189 122 OFFCURVE",
"132 331 OFFCURVE",
"217 733 CURVE SMOOTH",
"302 1130 OFFCURVE",
"445 1341 OFFCURVE",
"644 1341 CURVE SMOOTH"
);
},
{
closed = 1;
nodes = (
"854 1907 LINE",
"797 1821 OFFCURVE",
"695 1695 OFFCURVE",
"604 1601 CURVE",
"599 1579 LINE",
"692 1579 LINE",
"805 1658 OFFCURVE",
"982 1813 OFFCURVE",
"1038 1888 CURVE",
"1042 1907 LINE"
);
}
);
width = 1116;
}
);
unicode = 00D3;
},
{
glyphname = Ocircumflex;
lastChange = "2013-03-13 10:38:35 +0200";
layers = (
{
layerId = UUID0;
name = "Regular Italic";
paths = (
{
closed = 1;
nodes = (
"371 1483 OFFCURVE",
"164 1233 OFFCURVE",
"58 735 CURVE SMOOTH",
"-45 254 OFFCURVE",
"53 -20 OFFCURVE",
"352 -20 CURVE SMOOTH",
"648 -20 OFFCURVE",
"866 253 OFFCURVE",
"968 733 CURVE SMOOTH",
"1070 1212 OFFCURVE",
"968 1483 OFFCURVE",
"675 1483 CURVE SMOOTH"
);
},
{
closed = 1;
nodes = (
"838 1341 OFFCURVE",
"894 1135 OFFCURVE",
"808 733 CURVE SMOOTH",
"722 326 OFFCURVE",
"576 122 OFFCURVE",
"382 122 CURVE SMOOTH",
"189 122 OFFCURVE",
"132 331 OFFCURVE",
"217 733 CURVE SMOOTH",
"302 1130 OFFCURVE",
"445 1341 OFFCURVE",
"644 1341 CURVE SMOOTH"
);
},
{
closed = 1;
nodes = (
"683 1907 LINE",
"628 1826 OFFCURVE",
"540 1724 OFFCURVE",
"421 1600 CURVE",
"416 1579 LINE",
"501 1579 LINE",
"570 1631 OFFCURVE",
"654 1708 OFFCURVE",
"734 1780 CURVE",
"802 1679 LINE SMOOTH",
"832 1635 OFFCURVE",
"858 1602 OFFCURVE",
"880 1579 CURVE",
"966 1579 LINE",
"971 1600 LINE",
"908 1711 OFFCURVE",
"852 1841 OFFCURVE",
"838 1907 CURVE"
);
}
);
width = 1116;
}
);
unicode = 00D4;
},
{
glyphname = Odieresis;
lastChange = "2013-03-13 10:38:35 +0200";
layers = (
{
layerId = UUID0;
name = "Regular Italic";
paths = (
{
closed = 1;
nodes = (
"379 1483 OFFCURVE",
"172 1233 OFFCURVE",
"66 735 CURVE SMOOTH",
"-36 254 OFFCURVE",
"62 -20 OFFCURVE",
"361 -20 CURVE SMOOTH",
"657 -20 OFFCURVE",
"875 253 OFFCURVE",
"977 733 CURVE SMOOTH",
"1078 1212 OFFCURVE",
"976 1483 OFFCURVE",
"683 1483 CURVE SMOOTH"
);
},
{
closed = 1;
nodes = (
"847 1341 OFFCURVE",
"902 1135 OFFCURVE",
"817 733 CURVE SMOOTH",
"730 326 OFFCURVE",
"585 122 OFFCURVE",
"391 122 CURVE SMOOTH",
"198 122 OFFCURVE",
"140 331 OFFCURVE",
"226 733 CURVE SMOOTH",
"310 1130 OFFCURVE",
"454 1341 OFFCURVE",
"653 1341 CURVE SMOOTH"
);
},
{
closed = 1;
nodes = (
"543 1828 OFFCURVE",
"500 1797 OFFCURVE",
"486 1732 CURVE SMOOTH",
"472 1666 OFFCURVE",
"502 1633 OFFCURVE",
"551 1633 CURVE SMOOTH",
"600 1633 OFFCURVE",
"643 1667 OFFCURVE",
"657 1732 CURVE SMOOTH",
"670 1795 OFFCURVE",
"641 1828 OFFCURVE",
"592 1828 CURVE SMOOTH"
);
},
{
closed = 1;
nodes = (
"879 1828 OFFCURVE",
"836 1796 OFFCURVE",
"822 1732 CURVE SMOOTH",
"808 1667 OFFCURVE",
"838 1633 OFFCURVE",
"886 1633 CURVE SMOOTH",
"936 1633 OFFCURVE",
"979 1666 OFFCURVE",
"993 1732 CURVE SMOOTH",
"1007 1797 OFFCURVE",
"976 1828 OFFCURVE",
"927 1828 CURVE SMOOTH"
);
}
);
width = 1116;
}
);
unicode = 00D6;
},
{
glyphname = Ograve;
lastChange = "2013-03-13 10:38:35 +0200";
layers = (
{
layerId = UUID0;
name = "Regular Italic";
paths = (
{
closed = 1;
nodes = (
"371 1483 OFFCURVE",
"164 1233 OFFCURVE",
"58 735 CURVE SMOOTH",
"-45 254 OFFCURVE",
"53 -20 OFFCURVE",
"352 -20 CURVE SMOOTH",
"648 -20 OFFCURVE",
"866 253 OFFCURVE",
"968 733 CURVE SMOOTH",
"1070 1212 OFFCURVE",
"968 1483 OFFCURVE",
"675 1483 CURVE SMOOTH"
);
},
{
closed = 1;
nodes = (
"838 1341 OFFCURVE",
"894 1135 OFFCURVE",
"808 733 CURVE SMOOTH",
"722 326 OFFCURVE",
"576 122 OFFCURVE",
"382 122 CURVE SMOOTH",
"189 122 OFFCURVE",
"132 331 OFFCURVE",
"217 733 CURVE SMOOTH",
"302 1130 OFFCURVE",
"445 1341 OFFCURVE",
"644 1341 CURVE SMOOTH"
);
},
{
closed = 1;
nodes = (
"475 1907 LINE",
"471 1889 LINE",
"484 1848 OFFCURVE",
"514 1795 OFFCURVE",
"559 1731 CURVE SMOOTH",
"606 1667 OFFCURVE",
"648 1616 OFFCURVE",
"685 1579 CURVE",
"779 1579 LINE",
"784 1602 LINE",
"760 1642 OFFCURVE",
"736 1693 OFFCURVE",
"712 1754 CURVE SMOOTH",
"689 1814 OFFCURVE",
"673 1866 OFFCURVE",
"664 1907 CURVE"
);
}
);
width = 1116;
}
);
unicode = 00D2;
},
{
glyphname = Oslash;
lastChange = "2013-03-13 10:38:35 +0200";
layers = (
{
layerId = UUID0;
name = "Regular Italic";
paths = (
{
closed = 1;
nodes = (
"962 1373 LINE",
"904 1446 OFFCURVE",
"824 1483 OFFCURVE",
"721 1483 CURVE SMOOTH",
"419 1483 OFFCURVE",
"210 1235 OFFCURVE",
"104 735 CURVE SMOOTH",
"52 490 OFFCURVE",
"51 303 OFFCURVE",
"102 174 CURVE",
"49 100 OFFCURVE",
"-4 26 OFFCURVE",
"-56 -46 CURVE",
"42 -96 LINE",
"166 75 LINE",
"221 11 OFFCURVE",
"299 -20 OFFCURVE",
"399 -20 CURVE SMOOTH",
"695 -20 OFFCURVE",
"913 253 OFFCURVE",
"1015 733 CURVE SMOOTH",
"1063 963 OFFCURVE",
"1067 1142 OFFCURVE",
"1022 1269 CURVE",
"1186 1495 LINE",
"1153 1512 OFFCURVE",
"1119 1529 OFFCURVE",
"1087 1547 CURVE"
);
},
{
closed = 1;
nodes = (
"896 999 OFFCURVE",
"884 879 OFFCURVE",
"854 739 CURVE SMOOTH",
"767 328 OFFCURVE",
"624 122 OFFCURVE",
"429 122 CURVE SMOOTH",
"352 122 OFFCURVE",
"297 152 OFFCURVE",
"265 213 CURVE",
"893 1086 LINE"
);
},
{
closed = 1;
nodes = (
"774 1341 OFFCURVE",
"831 1305 OFFCURVE",
"863 1232 CURVE",
"228 350 LINE",
"217 444 OFFCURVE",
"229 572 OFFCURVE",
"264 733 CURVE SMOOTH",
"348 1130 OFFCURVE",
"492 1341 OFFCURVE",
"691 1341 CURVE SMOOTH"
);
}
);
width = 1116;
}
);
unicode = 00D8;
},
{
glyphname = Otilde;
lastChange = "2013-03-13 10:38:35 +0200";
layers = (
{
layerId = UUID0;
name = "Regular Italic";
paths = (
{
closed = 1;
nodes = (
"380 1483 OFFCURVE",
"173 1233 OFFCURVE",
"67 735 CURVE SMOOTH",
"-35 254 OFFCURVE",
"62 -20 OFFCURVE",
"361 -20 CURVE SMOOTH",
"657 -20 OFFCURVE",
"875 253 OFFCURVE",
"977 733 CURVE SMOOTH",
"1079 1212 OFFCURVE",
"977 1483 OFFCURVE",
"684 1483 CURVE SMOOTH"
);
},
{
closed = 1;
nodes = (
"848 1341 OFFCURVE",
"903 1135 OFFCURVE",
"817 733 CURVE SMOOTH",
"731 326 OFFCURVE",
"586 122 OFFCURVE",
"392 122 CURVE SMOOTH",
"199 122 OFFCURVE",
"141 331 OFFCURVE",
"226 733 CURVE SMOOTH",
"311 1130 OFFCURVE",
"455 1341 OFFCURVE",
"654 1341 CURVE SMOOTH"
);
},
{
closed = 1;
nodes = (
"970 1821 LINE",
"941 1745 OFFCURVE",
"912 1699 OFFCURVE",
"866 1699 CURVE SMOOTH",
"795 1699 OFFCURVE",
"744 1819 OFFCURVE",
"643 1819 CURVE SMOOTH",
"538 1819 OFFCURVE",
"458 1732 OFFCURVE",
"409 1578 CURVE",
"505 1578 LINE",
"534 1657 OFFCURVE",
"571 1701 OFFCURVE",
"613 1701 CURVE SMOOTH",
"680 1701 OFFCURVE",
"732 1580 OFFCURVE",
"834 1580 CURVE SMOOTH",
"934 1580 OFFCURVE",
"1019 1664 OFFCURVE",
"1066 1821 CURVE"
);
}
);
width = 1116;
}
);
unicode = 00D5;
},
{
glyphname = OE;
lastChange = "2013-03-13 10:38:35 +0200";
layers = (
{
layerId = UUID0;
name = "Regular Italic";
paths = (
{
closed = 1;
nodes = (
"434 1473 OFFCURVE",
"205 1217 OFFCURVE",
"103 735 CURVE SMOOTH",
"-1 246 OFFCURVE",
"111 -10 OFFCURVE",
"435 -10 CURVE SMOOTH",
"495 -8 OFFCURVE",
"554 0 OFFCURVE",
"611 0 CURVE SMOOTH",
"1054 0 LINE",
"1083 141 LINE",
"666 141 LINE",
"784 693 LINE",
"1174 693 LINE",
"1204 834 LINE",
"814 834 LINE",
"917 1321 LINE",
"1334 1321 LINE",
"1364 1462 LINE",
"884 1462 LINE",
"843 1468 OFFCURVE",
"801 1473 OFFCURVE",
"757 1473 CURVE SMOOTH"
);
},
{
closed = 1;
nodes = (
"740 1327 OFFCURVE",
"752 1327 OFFCURVE",
"763 1326 CURVE",
"510 136 LINE",
"499 135 OFFCURVE",
"487 135 OFFCURVE",
"476 135 CURVE SMOOTH",
"242 135 OFFCURVE",
"174 314 OFFCURVE",
"263 733 CURVE SMOOTH",
"352 1150 OFFCURVE",
"497 1327 OFFCURVE",
"728 1327 CURVE SMOOTH"
);
}
);
width = 1303;
}
);
unicode = 0152;
},
{
glyphname = P;
lastChange = "2013-03-13 10:38:35 +0200";
layers = (
{
layerId = UUID0;
name = "Regular Italic";
paths = (
{
closed = 1;
nodes = (
"304 1462 LINE",
"-6 0 LINE",
"150 0 LINE",
"273 579 LINE",
"365 579 LINE SMOOTH",
"644 579 OFFCURVE",
"821 727 OFFCURVE",
"886 1032 CURVE SMOOTH",
"948 1326 OFFCURVE",
"845 1462 OFFCURVE",
"561 1462 CURVE SMOOTH"
);
},
{
closed = 1;
nodes = (
"706 1324 OFFCURVE",
"773 1237 OFFCURVE",
"728 1028 CURVE SMOOTH",
"681 805 OFFCURVE",
"580 717 OFFCURVE",
"385 717 CURVE SMOOTH",
"302 717 LINE",
"431 1324 LINE",
"526 1324 LINE SMOOTH"
);
}
);
width = 887;
}
);
unicode = 0050;
},
{
glyphname = Thorn;
lastChange = "2013-03-13 10:38:35 +0200";
layers = (
{
layerId = UUID0;
name = "Regular Italic";
paths = (
{
closed = 1;
nodes = (
"304 1462 LINE",
"-6 0 LINE",
"150 0 LINE",
"218 321 LINE",
"312 321 LINE SMOOTH",
"591 321 OFFCURVE",
"768 478 OFFCURVE",
"833 782 CURVE SMOOTH",
"894 1068 OFFCURVE",
"791 1204 OFFCURVE",
"506 1204 CURVE SMOOTH",
"406 1204 LINE",
"460 1462 LINE"
);
},
{
closed = 1;
nodes = (
"654 1062 OFFCURVE",
"716 973 OFFCURVE",
"673 770 CURVE SMOOTH",
"626 547 OFFCURVE",
"528 461 OFFCURVE",
"331 461 CURVE SMOOTH",
"248 461 LINE",
"375 1062 LINE",
"470 1062 LINE SMOOTH"
);
}
);
width = 887;
}
);
unicode = 00DE;
},
{
glyphname = Q;
lastChange = "2013-03-13 10:38:35 +0200";
layers = (
{
layerId = UUID0;
name = "Regular Italic";
paths = (
{
closed = 1;
nodes = (
"451 1483 OFFCURVE",
"243 1233 OFFCURVE",
"138 735 CURVE SMOOTH",
"35 254 OFFCURVE",
"133 -20 OFFCURVE",
"432 -20 CURVE SMOOTH",
"445 -20 OFFCURVE",
"459 -16 OFFCURVE",
"472 -17 CURVE",
"592 -348 LINE",
"779 -348 LINE",
"627 23 LINE",
"823 116 OFFCURVE",
"969 362 OFFCURVE",
"1048 733 CURVE SMOOTH",
"1150 1212 OFFCURVE",
"1048 1483 OFFCURVE",
"755 1483 CURVE SMOOTH"
);
},
{
closed = 1;
nodes = (
"918 1341 OFFCURVE",
"974 1135 OFFCURVE",
"888 733 CURVE SMOOTH",
"802 326 OFFCURVE",
"656 122 OFFCURVE",
"462 122 CURVE SMOOTH",
"269 122 OFFCURVE",
"212 331 OFFCURVE",
"297 733 CURVE SMOOTH",
"382 1130 OFFCURVE",
"525 1341 OFFCURVE",
"724 1341 CURVE SMOOTH"
);
}
);
width = 1116;
}
);
unicode = 0051;
},
{
glyphname = R;
lastChange = "2013-03-13 10:38:35 +0200";
layers = (
{
layerId = UUID0;
name = "Regular Italic";
paths = (
{
closed = 1;
nodes = (
"305 1462 LINE",
"-5 0 LINE",
"150 0 LINE",
"281 616 LINE",
"438 616 LINE",
"566 0 LINE",
"736 0 LINE",
"588 655 LINE",
"756 723 OFFCURVE",
"849 852 OFFCURVE",
"891 1049 CURVE SMOOTH",
"949 1325 OFFCURVE",
"847 1462 OFFCURVE",
"556 1462 CURVE SMOOTH"
);
},
{
closed = 1;
nodes = (
"708 1320 OFFCURVE",
"773 1240 OFFCURVE",
"731 1043 CURVE SMOOTH",
"691 851 OFFCURVE",
"586 753 OFFCURVE",
"425 753 CURVE SMOOTH",
"310 753 LINE",
"430 1320 LINE",
"526 1320 LINE SMOOTH"
);
}
);
width = 921;
}
);
unicode = 0052;
},
{
glyphname = S;
lastChange = "2013-03-13 10:38:35 +0200";
layers = (
{
layerId = UUID0;
name = "Regular Italic";
paths = (
{
closed = 1;
nodes = (
"400 1483 OFFCURVE",
"218 1326 OFFCURVE",
"171 1101 CURVE SMOOTH",
"125 887 OFFCURVE",
"188 787 OFFCURVE",
"367 672 CURVE SMOOTH",
"471 600 OFFCURVE",
"544 514 OFFCURVE",
"514 375 CURVE SMOOTH",
"484 231 OFFCURVE",
"372 121 OFFCURVE",
"237 121 CURVE SMOOTH",
"143 121 OFFCURVE",
"37 151 OFFCURVE",
"-33 198 CURVE",
"-67 38 LINE",
"2 0 OFFCURVE",
"95 -20 OFFCURVE",
"215 -20 CURVE SMOOTH",
"437 -20 OFFCURVE",
"619 139 OFFCURVE",
"672 389 CURVE SMOOTH",
"711 570 OFFCURVE",
"657 693 OFFCURVE",
"483 799 CURVE SMOOTH",
"317 905 OFFCURVE",
"295 968 OFFCURVE",
"324 1105 CURVE SMOOTH",
"354 1242 OFFCURVE",
"461 1338 OFFCURVE",
"582 1338 CURVE SMOOTH",
"660 1338 OFFCURVE",
"728 1314 OFFCURVE",
"791 1276 CURVE",
"818 1321 OFFCURVE",
"846 1366 OFFCURVE",
"874 1411 CURVE",
"813 1452 OFFCURVE",
"719 1483 OFFCURVE",
"606 1483 CURVE SMOOTH"
);
}
);
width = 821;
}
);
unicode = 0053;
},
{
glyphname = Scaron;
lastChange = "2013-03-13 10:38:35 +0200";
layers = (
{
layerId = UUID0;
name = "Regular Italic";
paths = (
{
closed = 1;
nodes = (
"355 1483 OFFCURVE",
"173 1326 OFFCURVE",
"125 1101 CURVE SMOOTH",
"80 887 OFFCURVE",
"143 787 OFFCURVE",
"322 672 CURVE SMOOTH",
"426 600 OFFCURVE",
"499 514 OFFCURVE",
"469 375 CURVE SMOOTH",
"439 231 OFFCURVE",
"327 121 OFFCURVE",
"192 121 CURVE SMOOTH",
"98 121 OFFCURVE",
"-8 151 OFFCURVE",
"-78 198 CURVE",
"-112 38 LINE",
"-44 0 OFFCURVE",
"50 -20 OFFCURVE",
"170 -20 CURVE SMOOTH",
"392 -20 OFFCURVE",
"574 139 OFFCURVE",
"627 389 CURVE SMOOTH",
"666 570 OFFCURVE",
"612 693 OFFCURVE",
"438 799 CURVE SMOOTH",
"272 905 OFFCURVE",
"250 968 OFFCURVE",
"279 1105 CURVE SMOOTH",
"308 1242 OFFCURVE",
"416 1338 OFFCURVE",
"537 1338 CURVE SMOOTH",
"615 1338 OFFCURVE",
"683 1314 OFFCURVE",
"746 1276 CURVE",
"773 1321 OFFCURVE",
"801 1366 OFFCURVE",
"829 1411 CURVE",
"768 1452 OFFCURVE",
"674 1483 OFFCURVE",
"561 1483 CURVE SMOOTH"
);
},
{
closed = 1;
nodes = (
"832 1907 LINE",
"789 1877 OFFCURVE",
"706 1806 OFFCURVE",
"602 1705 CURVE",
"552 1779 OFFCURVE",
"500 1856 OFFCURVE",
"453 1907 CURVE",
"368 1907 LINE",
"363 1885 LINE",
"428 1765 OFFCURVE",
"471 1663 OFFCURVE",
"495 1579 CURVE",
"650 1579 LINE",
"693 1642 OFFCURVE",
"807 1777 OFFCURVE",
"913 1885 CURVE",
"918 1907 LINE"
);
}
);
width = 821;
}
);
unicode = 0160;
},
{
glyphname = T;
lastChange = "2013-03-13 10:38:35 +0200";
layers = (
{
layerId = UUID0;
name = "Regular Italic";
paths = (
{
closed = 1;
nodes = (
"173 1462 LINE",
"143 1320 LINE",
"431 1320 LINE",
"151 0 LINE",
"306 0 LINE",
"586 1320 LINE",
"873 1320 LINE",
"903 1462 LINE"
);
}
);
width = 768;
}
);
unicode = 0054;
},
{
glyphname = U;
lastChange = "2013-03-13 10:38:35 +0200";
layers = (
{
layerId = UUID0;
name = "Regular Italic";
paths = (
{
closed = 1;
nodes = (
"921 1462 LINE",
"711 476 LINE SMOOTH",
"662 245 OFFCURVE",
"556 123 OFFCURVE",
"405 123 CURVE SMOOTH",
"252 123 OFFCURVE",
"194 244 OFFCURVE",
"243 475 CURVE SMOOTH",
"453 1462 LINE",
"297 1462 LINE",
"90 490 LINE SMOOTH",
"20 159 OFFCURVE",
"117 -20 OFFCURVE",
"371 -20 CURVE SMOOTH",
"628 -20 OFFCURVE",
"797 153 OFFCURVE",
"869 489 CURVE SMOOTH",
"1076 1462 LINE"
);
}
);
width = 1058;
}
);
unicode = 0055;
},
{
glyphname = Uacute;
lastChange = "2013-03-13 10:38:35 +0200";
layers = (
{
layerId = UUID0;
name = "Regular Italic";
paths = (
{
closed = 1;
nodes = (
"873 1462 LINE",
"664 476 LINE SMOOTH",
"615 245 OFFCURVE",
"509 123 OFFCURVE",
"358 123 CURVE SMOOTH",
"205 123 OFFCURVE",
"146 244 OFFCURVE",
"195 475 CURVE SMOOTH",
"405 1462 LINE",
"249 1462 LINE",
"43 490 LINE SMOOTH",
"-28 159 OFFCURVE",
"70 -20 OFFCURVE",
"324 -20 CURVE SMOOTH",
"581 -20 OFFCURVE",
"750 153 OFFCURVE",
"821 489 CURVE SMOOTH",
"1028 1462 LINE"
);
},
{
closed = 1;
nodes = (
"819 1907 LINE",
"762 1821 OFFCURVE",
"660 1695 OFFCURVE",
"569 1601 CURVE",
"564 1579 LINE",
"657 1579 LINE",
"770 1658 OFFCURVE",
"947 1813 OFFCURVE",
"1003 1888 CURVE",
"1007 1907 LINE"
);
}
);
width = 1058;
}
);
unicode = 00DA;
},
{
glyphname = Ucircumflex;
lastChange = "2013-03-13 10:38:35 +0200";
layers = (
{
layerId = UUID0;
name = "Regular Italic";
paths = (
{
closed = 1;
nodes = (
"873 1462 LINE",
"664 476 LINE SMOOTH",
"615 245 OFFCURVE",
"509 123 OFFCURVE",
"358 123 CURVE SMOOTH",
"205 123 OFFCURVE",
"146 244 OFFCURVE",
"195 475 CURVE SMOOTH",
"405 1462 LINE",
"249 1462 LINE",
"43 490 LINE SMOOTH",
"-28 159 OFFCURVE",
"70 -20 OFFCURVE",
"324 -20 CURVE SMOOTH",
"581 -20 OFFCURVE",
"750 153 OFFCURVE",
"821 489 CURVE SMOOTH",
"1028 1462 LINE"
);
},
{
closed = 1;
nodes = (
"656 1907 LINE",
"601 1826 OFFCURVE",
"513 1724 OFFCURVE",
"394 1600 CURVE",
"389 1579 LINE",
"474 1579 LINE",
"543 1631 OFFCURVE",
"627 1708 OFFCURVE",
"707 1780 CURVE",
"775 1679 LINE SMOOTH",
"805 1635 OFFCURVE",
"831 1602 OFFCURVE",
"853 1579 CURVE",
"939 1579 LINE",
"944 1600 LINE",
"881 1711 OFFCURVE",
"825 1841 OFFCURVE",
"811 1907 CURVE"
);
}
);
width = 1058;
}
);
unicode = 00DB;
},
{
glyphname = Udieresis;
lastChange = "2013-03-13 10:38:35 +0200";
layers = (
{
layerId = UUID0;
name = "Regular Italic";
paths = (
{
closed = 1;
nodes = (
"882 1462 LINE",
"672 476 LINE SMOOTH",
"623 245 OFFCURVE",
"517 123 OFFCURVE",
"366 123 CURVE SMOOTH",
"213 123 OFFCURVE",
"155 244 OFFCURVE",
"204 475 CURVE SMOOTH",
"414 1462 LINE",
"258 1462 LINE",
"51 490 LINE SMOOTH",
"-19 159 OFFCURVE",
"79 -20 OFFCURVE",
"333 -20 CURVE SMOOTH",
"590 -20 OFFCURVE",
"758 153 OFFCURVE",
"830 489 CURVE SMOOTH",
"1037 1462 LINE"
);
},
{
closed = 1;
nodes = (
"509 1828 OFFCURVE",
"466 1797 OFFCURVE",
"452 1732 CURVE SMOOTH",
"438 1666 OFFCURVE",
"468 1633 OFFCURVE",
"517 1633 CURVE SMOOTH",
"566 1633 OFFCURVE",
"609 1667 OFFCURVE",
"623 1732 CURVE SMOOTH",
"636 1795 OFFCURVE",
"607 1828 OFFCURVE",
"558 1828 CURVE SMOOTH"
);
},
{
closed = 1;
nodes = (
"845 1828 OFFCURVE",
"802 1796 OFFCURVE",
"788 1732 CURVE SMOOTH",
"774 1667 OFFCURVE",
"804 1633 OFFCURVE",
"852 1633 CURVE SMOOTH",
"902 1633 OFFCURVE",
"945 1666 OFFCURVE",
"959 1732 CURVE SMOOTH",
"973 1797 OFFCURVE",
"942 1828 OFFCURVE",
"893 1828 CURVE SMOOTH"
);
}
);
width = 1058;
}
);
unicode = 00DC;
},
{
glyphname = Ugrave;
lastChange = "2013-03-13 10:38:35 +0200";
layers = (
{
layerId = UUID0;
name = "Regular Italic";
paths = (
{
closed = 1;
nodes = (
"873 1462 LINE",
"664 476 LINE SMOOTH",
"615 245 OFFCURVE",
"509 123 OFFCURVE",
"358 123 CURVE SMOOTH",
"205 123 OFFCURVE",
"146 244 OFFCURVE",
"195 475 CURVE SMOOTH",
"405 1462 LINE",
"249 1462 LINE",
"43 490 LINE SMOOTH",
"-28 159 OFFCURVE",
"70 -20 OFFCURVE",
"324 -20 CURVE SMOOTH",
"581 -20 OFFCURVE",
"750 153 OFFCURVE",
"821 489 CURVE SMOOTH",
"1028 1462 LINE"
);
},
{
closed = 1;
nodes = (
"460 1907 LINE",
"456 1889 LINE",
"469 1848 OFFCURVE",
"499 1795 OFFCURVE",
"544 1731 CURVE SMOOTH",
"591 1667 OFFCURVE",
"633 1616 OFFCURVE",
"670 1579 CURVE",
"764 1579 LINE",
"769 1602 LINE",
"745 1642 OFFCURVE",
"721 1693 OFFCURVE",
"697 1754 CURVE SMOOTH",
"674 1814 OFFCURVE",
"658 1866 OFFCURVE",
"649 1907 CURVE"
);
}
);
width = 1058;
}
);
unicode = 00D9;
},
{
glyphname = V;
lastChange = "2013-03-13 10:38:35 +0200";
layers = (
{
layerId = UUID0;
name = "Regular Italic";
paths = (
{
closed = 1;
nodes = (
"872 1462 LINE",
"406 408 LINE SMOOTH",
"378 341 OFFCURVE",
"344 250 OFFCURVE",
"313 160 CURVE",
"325 289 OFFCURVE",
"329 339 OFFCURVE",
"327 478 CURVE SMOOTH",
"322 806 OFFCURVE",
"317 1133 OFFCURVE",
"313 1462 CURVE",
"155 1462 LINE",
"166 975 OFFCURVE",
"176 487 OFFCURVE",
"188 0 CURVE",
"375 0 LINE",
"1030 1462 LINE"
);
}
);
width = 876;
}
);
unicode = 0056;
},
{
glyphname = W;
lastChange = "2013-03-13 10:38:35 +0200";
layers = (
{
layerId = UUID0;
name = "Regular Italic";
paths = (
{
closed = 1;
nodes = (
"1455 1462 LINE",
"1070 515 LINE SMOOTH",
"1036 434 OFFCURVE",
"993 315 OFFCURVE",
"939 155 CURVE",
"948 274 OFFCURVE",
"958 417 OFFCURVE",
"961 625 CURVE SMOOTH",
"974 1462 LINE",
"806 1462 LINE",
"404 479 LINE SMOOTH",
"362 374 OFFCURVE",
"325 267 OFFCURVE",
"287 156 CURVE",
"296 263 OFFCURVE",
"298 435 OFFCURVE",
"306 627 CURVE SMOOTH",
"312 905 OFFCURVE",
"319 1183 OFFCURVE",
"324 1462 CURVE",
"167 1462 LINE",
"164 975 OFFCURVE",
"159 487 OFFCURVE",
"155 0 CURVE",
"345 0 LINE",
"646 741 LINE SMOOTH",
"690 855 OFFCURVE",
"736 970 OFFCURVE",
"781 1085 CURVE SMOOTH",
"816 1180 LINE SMOOTH",
"827 1209 OFFCURVE",
"837 1238 OFFCURVE",
"847 1268 CURVE",
"821 955 OFFCURVE",
"825 924 OFFCURVE",
"824 741 CURVE SMOOTH",
"814 0 LINE",
"1006 0 LINE",
"1208 487 OFFCURVE",
"1409 975 OFFCURVE",
"1611 1462 CURVE"
);
}
);
width = 1470;
}
);
unicode = 0057;
},
{
glyphname = X;
lastChange = "2013-03-13 10:38:35 +0200";
layers = (
{
layerId = UUID0;
name = "Regular Italic";
paths = (
{
closed = 1;
nodes = (
"770 1462 LINE",
"454 896 LINE",
"365 1462 LINE",
"205 1462 LINE",
"338 771 LINE",
"-142 0 LINE",
"18 0 LINE",
"384 623 LINE",
"468 0 LINE",
"630 0 LINE",
"506 752 LINE",
"931 1462 LINE"
);
}
);
width = 799;
}
);
unicode = 0058;
},
{
glyphname = Y;
lastChange = "2013-03-13 10:38:35 +0200";
layers = (
{
layerId = UUID0;
name = "Regular Italic";
paths = (
{
closed = 1;
nodes = (
"768 1462 LINE",
"396 766 LINE",
"319 1462 LINE",
"155 1462 LINE",
"276 572 LINE",
"155 0 LINE",
"310 0 LINE",
"432 576 LINE",
"932 1462 LINE"
);
}
);
width = 777;
}
);
unicode = 0059;
},
{
glyphname = Yacute;
lastChange = "2013-03-13 10:38:35 +0200";
layers = (
{
layerId = UUID0;
name = "Regular Italic";
paths = (
{
closed = 1;
nodes = (
"721 1462 LINE",
"349 766 LINE",
"272 1462 LINE",
"108 1462 LINE",
"229 572 LINE",
"107 0 LINE",
"262 0 LINE",
"385 576 LINE",
"885 1462 LINE"
);
},
{
closed = 1;
nodes = (
"684 1907 LINE",
"626 1821 OFFCURVE",
"525 1695 OFFCURVE",
"434 1601 CURVE",
"429 1579 LINE",
"522 1579 LINE",
"635 1658 OFFCURVE",
"812 1813 OFFCURVE",
"868 1888 CURVE",
"872 1907 LINE"
);
}
);
width = 777;
}
);
unicode = 00DD;
},
{
glyphname = Ydieresis;
lastChange = "2013-03-13 10:38:35 +0200";
layers = (
{
layerId = UUID0;
name = "Regular Italic";
paths = (
{
closed = 1;
nodes = (
"729 1462 LINE",
"358 766 LINE",
"280 1462 LINE",
"116 1462 LINE",
"237 572 LINE",
"116 0 LINE",
"271 0 LINE",
"393 576 LINE",
"893 1462 LINE"
);
},
{
closed = 1;
nodes = (
"368 1828 OFFCURVE",
"325 1797 OFFCURVE",
"311 1732 CURVE SMOOTH",
"297 1666 OFFCURVE",
"327 1633 OFFCURVE",
"376 1633 CURVE SMOOTH",
"425 1633 OFFCURVE",
"468 1667 OFFCURVE",
"482 1732 CURVE SMOOTH",
"495 1795 OFFCURVE",
"466 1828 OFFCURVE",
"417 1828 CURVE SMOOTH"
);
},
{
closed = 1;
nodes = (
"704 1828 OFFCURVE",
"660 1796 OFFCURVE",
"647 1732 CURVE SMOOTH",
"633 1667 OFFCURVE",
"663 1633 OFFCURVE",
"711 1633 CURVE SMOOTH",
"761 1633 OFFCURVE",
"804 1666 OFFCURVE",
"818 1732 CURVE SMOOTH",
"832 1797 OFFCURVE",
"801 1828 OFFCURVE",
"752 1828 CURVE SMOOTH"
);
}
);
width = 777;
}
);
unicode = 0178;
},
{
glyphname = Z;
lastChange = "2013-03-13 10:38:35 +0200";
layers = (
{
layerId = UUID0;
name = "Regular Italic";
paths = (
{
closed = 1;
nodes = (
"216 1462 LINE",
"186 1319 LINE",
"616 1319 LINE",
"-77 122 LINE",
"-103 0 LINE",
"524 0 LINE",
"554 142 LINE",
"98 142 LINE",
"795 1339 LINE",
"821 1462 LINE"
);
}
);
width = 720;
}
);
unicode = 005A;
},
{
glyphname = Zcaron;
lastChange = "2013-03-13 10:38:35 +0200";
layers = (
{
layerId = UUID0;
name = "Regular Italic";
paths = (
{
closed = 1;
nodes = (
"169 1462 LINE",
"139 1319 LINE",
"569 1319 LINE",
"-125 122 LINE",
"-151 0 LINE",
"476 0 LINE",
"507 142 LINE",
"51 142 LINE",
"748 1339 LINE",
"774 1462 LINE"
);
},
{
closed = 1;
nodes = (
"754 1907 LINE",
"711 1877 OFFCURVE",
"628 1806 OFFCURVE",
"524 1705 CURVE",
"473 1779 OFFCURVE",
"422 1856 OFFCURVE",
"375 1907 CURVE",
"290 1907 LINE",
"285 1885 LINE",
"349 1765 OFFCURVE",
"393 1663 OFFCURVE",
"417 1579 CURVE",
"572 1579 LINE",
"615 1642 OFFCURVE",
"729 1777 OFFCURVE",
"835 1885 CURVE",
"840 1907 LINE"
);
}
);
width = 720;
}
);
unicode = 017D;
},
{
glyphname = a;
lastChange = "2013-03-13 10:38:35 +0200";
layers = (
{
layerId = UUID0;
name = "Regular Italic";
paths = (
{
closed = 1;
nodes = (
"446 1116 OFFCURVE",
"348 1089 OFFCURVE",
"249 1034 CURVE",
"261 997 OFFCURVE",
"271 960 OFFCURVE",
"283 923 CURVE",
"365 968 OFFCURVE",
"437 990 OFFCURVE",
"501 990 CURVE SMOOTH",
"612 990 OFFCURVE",
"638 911 OFFCURVE",
"602 743 CURVE SMOOTH",
"584 657 LINE",
"456 651 LINE SMOOTH",
"219 640 OFFCURVE",
"63 518 OFFCURVE",
"18 303 CURVE SMOOTH",
"-26 98 OFFCURVE",
"43 -18 OFFCURVE",
"203 -18 CURVE SMOOTH",
"305 -18 OFFCURVE",
"397 32 OFFCURVE",
"481 152 CURVE",
"486 152 LINE",
"479 0 LINE",
"595 0 LINE",
"753 741 LINE SMOOTH",
"808 1000 OFFCURVE",
"739 1116 OFFCURVE",
"545 1116 CURVE SMOOTH"
);
},
{
closed = 1;
nodes = (
"538 440 LINE SMOOTH",
"493 228 OFFCURVE",
"393 102 OFFCURVE",
"270 102 CURVE SMOOTH",
"184 102 OFFCURVE",
"146 165 OFFCURVE",
"175 301 CURVE SMOOTH",
"208 454 OFFCURVE",
"298 533 OFFCURVE",
"457 541 CURVE SMOOTH",
"492 543 OFFCURVE",
"526 545 OFFCURVE",
"560 546 CURVE"
);
}
);
width = 841;
}
);
unicode = 0061;
},
{
glyphname = aacute;
lastChange = "2013-03-13 10:38:35 +0200";
layers = (
{
layerId = UUID0;
name = "Regular Italic";
paths = (
{
closed = 1;
nodes = (
"397 1116 OFFCURVE",
"300 1089 OFFCURVE",
"201 1034 CURVE",
"213 997 OFFCURVE",
"223 960 OFFCURVE",
"235 923 CURVE",
"317 968 OFFCURVE",
"389 990 OFFCURVE",
"453 990 CURVE SMOOTH",
"564 990 OFFCURVE",
"590 911 OFFCURVE",
"554 743 CURVE SMOOTH",
"536 657 LINE",
"408 651 LINE SMOOTH",
"171 640 OFFCURVE",
"15 518 OFFCURVE",
"-30 303 CURVE SMOOTH",
"-74 98 OFFCURVE",
"-5 -18 OFFCURVE",
"155 -18 CURVE SMOOTH",
"257 -18 OFFCURVE",
"349 32 OFFCURVE",
"432 152 CURVE",
"437 152 LINE",
"431 0 LINE",
"547 0 LINE",
"705 741 LINE SMOOTH",
"760 1000 OFFCURVE",
"690 1116 OFFCURVE",
"496 1116 CURVE SMOOTH"
);
},
{
closed = 1;
nodes = (
"490 440 LINE SMOOTH",
"445 228 OFFCURVE",
"345 102 OFFCURVE",
"222 102 CURVE SMOOTH",
"136 102 OFFCURVE",
"98 165 OFFCURVE",
"127 301 CURVE SMOOTH",
"160 454 OFFCURVE",
"249 533 OFFCURVE",
"409 541 CURVE SMOOTH",
"444 543 OFFCURVE",
"478 545 OFFCURVE",
"512 546 CURVE"
);
},
{
closed = 1;
nodes = (
"668 1569 LINE",
"610 1483 OFFCURVE",
"509 1357 OFFCURVE",
"418 1263 CURVE",
"413 1241 LINE",
"506 1241 LINE",
"619 1320 OFFCURVE",
"796 1475 OFFCURVE",
"852 1550 CURVE",
"856 1569 LINE"
);
}
);
width = 841;
}
);
unicode = 00E1;
},
{
glyphname = acircumflex;
lastChange = "2013-03-13 10:38:35 +0200";
layers = (
{
layerId = UUID0;
name = "Regular Italic";
paths = (
{
closed = 1;
nodes = (
"397 1116 OFFCURVE",
"300 1089 OFFCURVE",
"201 1034 CURVE",
"213 997 OFFCURVE",
"223 960 OFFCURVE",
"235 923 CURVE",
"317 968 OFFCURVE",
"388 990 OFFCURVE",
"452 990 CURVE SMOOTH",
"563 990 OFFCURVE",
"590 911 OFFCURVE",
"554 743 CURVE SMOOTH",
"536 657 LINE",
"407 651 LINE SMOOTH",
"171 640 OFFCURVE",
"15 518 OFFCURVE",
"-31 303 CURVE SMOOTH",
"-74 98 OFFCURVE",
"-5 -18 OFFCURVE",
"155 -18 CURVE SMOOTH",
"257 -18 OFFCURVE",
"349 32 OFFCURVE",
"432 152 CURVE",
"437 152 LINE",
"431 0 LINE",
"547 0 LINE",
"705 741 LINE SMOOTH",
"760 1000 OFFCURVE",
"690 1116 OFFCURVE",
"496 1116 CURVE SMOOTH"
);
},
{
closed = 1;
nodes = (
"490 440 LINE SMOOTH",
"445 228 OFFCURVE",
"345 102 OFFCURVE",
"222 102 CURVE SMOOTH",
"136 102 OFFCURVE",
"98 165 OFFCURVE",
"127 301 CURVE SMOOTH",
"160 454 OFFCURVE",
"249 533 OFFCURVE",
"409 541 CURVE SMOOTH",
"443 543 OFFCURVE",
"478 545 OFFCURVE",
"512 546 CURVE"
);
},
{
closed = 1;
nodes = (
"512 1570 LINE",
"457 1489 OFFCURVE",
"369 1387 OFFCURVE",
"250 1263 CURVE",
"245 1242 LINE",
"330 1242 LINE",
"399 1294 OFFCURVE",
"483 1371 OFFCURVE",
"563 1443 CURVE",
"631 1342 LINE SMOOTH",
"661 1298 OFFCURVE",
"687 1265 OFFCURVE",
"709 1242 CURVE",
"795 1242 LINE",
"800 1263 LINE",
"737 1374 OFFCURVE",
"681 1504 OFFCURVE",
"667 1570 CURVE"
);
}
);
width = 841;
}
);
unicode = 00E2;
},
{
glyphname = adieresis;
lastChange = "2013-03-13 10:38:35 +0200";
layers = (
{
layerId = UUID0;
name = "Regular Italic";
paths = (
{
closed = 1;
nodes = (
"406 1116 OFFCURVE",
"308 1089 OFFCURVE",
"209 1034 CURVE",
"221 997 OFFCURVE",
"232 960 OFFCURVE",
"244 923 CURVE",
"325 968 OFFCURVE",
"397 990 OFFCURVE",
"461 990 CURVE SMOOTH",
"572 990 OFFCURVE",
"598 911 OFFCURVE",
"562 743 CURVE SMOOTH",
"544 657 LINE",
"416 651 LINE SMOOTH",
"180 640 OFFCURVE",
"24 518 OFFCURVE",
"-22 303 CURVE SMOOTH",
"-66 98 OFFCURVE",
"4 -18 OFFCURVE",
"164 -18 CURVE SMOOTH",
"266 -18 OFFCURVE",
"357 32 OFFCURVE",
"441 152 CURVE",
"446 152 LINE",
"440 0 LINE",
"556 0 LINE",
"713 741 LINE SMOOTH",
"768 1000 OFFCURVE",
"699 1116 OFFCURVE",
"505 1116 CURVE SMOOTH"
);
},
{
closed = 1;
nodes = (
"498 440 LINE SMOOTH",
"453 228 OFFCURVE",
"353 102 OFFCURVE",
"230 102 CURVE SMOOTH",
"144 102 OFFCURVE",
"107 165 OFFCURVE",
"136 301 CURVE SMOOTH",
"168 454 OFFCURVE",
"258 533 OFFCURVE",
"418 541 CURVE SMOOTH",
"452 543 OFFCURVE",
"486 545 OFFCURVE",
"521 546 CURVE"
);
},
{
closed = 1;
nodes = (
"362 1490 OFFCURVE",
"319 1459 OFFCURVE",
"305 1394 CURVE SMOOTH",
"291 1328 OFFCURVE",
"321 1295 OFFCURVE",
"370 1295 CURVE SMOOTH",
"419 1295 OFFCURVE",
"462 1329 OFFCURVE",
"476 1394 CURVE SMOOTH",
"489 1457 OFFCURVE",
"460 1490 OFFCURVE",
"411 1490 CURVE SMOOTH"
);
},
{
closed = 1;
nodes = (
"698 1490 OFFCURVE",
"654 1458 OFFCURVE",
"641 1394 CURVE SMOOTH",
"627 1329 OFFCURVE",
"657 1295 OFFCURVE",
"705 1295 CURVE SMOOTH",
"755 1295 OFFCURVE",
"798 1328 OFFCURVE",
"812 1394 CURVE SMOOTH",
"826 1459 OFFCURVE",
"795 1490 OFFCURVE",
"746 1490 CURVE SMOOTH"
);
}
);
width = 841;
}
);
unicode = 00E4;
},
{
glyphname = agrave;
lastChange = "2013-03-13 10:38:35 +0200";
layers = (
{
layerId = UUID0;
name = "Regular Italic";
paths = (
{
closed = 1;
nodes = (
"397 1116 OFFCURVE",
"300 1089 OFFCURVE",
"201 1034 CURVE",
"213 997 OFFCURVE",
"223 960 OFFCURVE",
"235 923 CURVE",
"317 968 OFFCURVE",
"389 990 OFFCURVE",
"453 990 CURVE SMOOTH",
"564 990 OFFCURVE",
"590 911 OFFCURVE",
"554 743 CURVE SMOOTH",
"536 657 LINE",
"408 651 LINE SMOOTH",
"171 640 OFFCURVE",
"15 518 OFFCURVE",
"-30 303 CURVE SMOOTH",
"-74 98 OFFCURVE",
"-5 -18 OFFCURVE",
"155 -18 CURVE SMOOTH",
"257 -18 OFFCURVE",
"349 32 OFFCURVE",
"432 152 CURVE",
"437 152 LINE",
"431 0 LINE",
"547 0 LINE",
"705 741 LINE SMOOTH",
"760 1000 OFFCURVE",
"690 1116 OFFCURVE",
"496 1116 CURVE SMOOTH"
);
},
{
closed = 1;
nodes = (
"490 440 LINE SMOOTH",
"445 228 OFFCURVE",
"345 102 OFFCURVE",
"222 102 CURVE SMOOTH",
"136 102 OFFCURVE",
"98 165 OFFCURVE",
"127 301 CURVE SMOOTH",
"160 454 OFFCURVE",
"249 533 OFFCURVE",
"409 541 CURVE SMOOTH",
"444 543 OFFCURVE",
"478 545 OFFCURVE",
"512 546 CURVE"
);
},
{
closed = 1;
nodes = (
"326 1569 LINE",
"322 1551 LINE",
"335 1510 OFFCURVE",
"365 1457 OFFCURVE",
"410 1393 CURVE SMOOTH",
"457 1329 OFFCURVE",
"499 1278 OFFCURVE",
"536 1241 CURVE",
"630 1241 LINE",
"635 1264 LINE",
"611 1304 OFFCURVE",
"587 1355 OFFCURVE",
"563 1416 CURVE SMOOTH",
"540 1476 OFFCURVE",
"524 1528 OFFCURVE",
"515 1569 CURVE"
);
}
);
width = 841;
}
);
unicode = 00E0;
},
{
glyphname = aring;
lastChange = "2013-03-13 10:38:35 +0200";
layers = (
{
layerId = UUID0;
name = "Regular Italic";
paths = (
{
closed = 1;
nodes = (
"389 1116 OFFCURVE",
"291 1089 OFFCURVE",
"192 1034 CURVE",
"204 997 OFFCURVE",
"215 960 OFFCURVE",
"227 923 CURVE",
"308 968 OFFCURVE",
"380 990 OFFCURVE",
"444 990 CURVE SMOOTH",
"555 990 OFFCURVE",
"581 911 OFFCURVE",
"545 743 CURVE SMOOTH",
"527 657 LINE",
"399 651 LINE SMOOTH",
"162 640 OFFCURVE",
"7 518 OFFCURVE",
"-39 303 CURVE SMOOTH",
"-83 98 OFFCURVE",
"-13 -18 OFFCURVE",
"147 -18 CURVE SMOOTH",
"249 -18 OFFCURVE",
"340 32 OFFCURVE",
"424 152 CURVE",
"429 152 LINE",
"422 0 LINE",
"538 0 LINE",
"696 741 LINE SMOOTH",
"751 1000 OFFCURVE",
"682 1116 OFFCURVE",
"488 1116 CURVE SMOOTH"
);
},
{
closed = 1;
nodes = (
"481 440 LINE SMOOTH",
"436 228 OFFCURVE",
"336 102 OFFCURVE",
"213 102 CURVE SMOOTH",
"127 102 OFFCURVE",
"90 165 OFFCURVE",
"118 301 CURVE SMOOTH",
"151 454 OFFCURVE",
"241 533 OFFCURVE",
"400 541 CURVE SMOOTH",
"435 543 OFFCURVE",
"469 545 OFFCURVE",
"504 546 CURVE"
);
},
{
closed = 1;
nodes = (
"650 1560 OFFCURVE",
"682 1515 OFFCURVE",
"668 1449 CURVE SMOOTH",
"654 1381 OFFCURVE",
"598 1337 OFFCURVE",
"531 1337 CURVE SMOOTH",
"456 1337 OFFCURVE",
"426 1381 OFFCURVE",
"440 1449 CURVE SMOOTH",
"454 1515 OFFCURVE",
"511 1560 OFFCURVE",
"578 1560 CURVE SMOOTH"
);
},
{
closed = 1;
nodes = (
"469 1651 OFFCURVE",
"367 1572 OFFCURVE",
"340 1449 CURVE SMOOTH",
"313 1322 OFFCURVE",
"384 1247 OFFCURVE",
"512 1247 CURVE SMOOTH",
"643 1247 OFFCURVE",
"745 1327 OFFCURVE",
"771 1452 CURVE SMOOTH",
"796 1571 OFFCURVE",
"721 1651 OFFCURVE",
"597 1651 CURVE SMOOTH"
);
}
);
width = 841;
}
);
unicode = 00E5;
},
{
glyphname = atilde;
lastChange = "2013-03-13 10:38:35 +0200";
layers = (
{
layerId = UUID0;
name = "Regular Italic";
paths = (
{
closed = 1;
nodes = (
"407 1116 OFFCURVE",
"309 1089 OFFCURVE",
"210 1034 CURVE",
"222 997 OFFCURVE",
"232 960 OFFCURVE",
"244 923 CURVE",
"326 968 OFFCURVE",
"398 990 OFFCURVE",
"462 990 CURVE SMOOTH",
"573 990 OFFCURVE",
"599 911 OFFCURVE",
"563 743 CURVE SMOOTH",
"545 657 LINE",
"417 651 LINE SMOOTH",
"180 640 OFFCURVE",
"24 518 OFFCURVE",
"-21 303 CURVE SMOOTH",
"-65 98 OFFCURVE",
"4 -18 OFFCURVE",
"164 -18 CURVE SMOOTH",
"266 -18 OFFCURVE",
"358 32 OFFCURVE",
"442 152 CURVE",
"447 152 LINE",
"440 0 LINE",
"556 0 LINE",
"714 741 LINE SMOOTH",
"769 1000 OFFCURVE",
"700 1116 OFFCURVE",
"506 1116 CURVE SMOOTH"
);
},
{
closed = 1;
nodes = (
"499 440 LINE SMOOTH",
"454 228 OFFCURVE",
"354 102 OFFCURVE",
"231 102 CURVE SMOOTH",
"145 102 OFFCURVE",
"107 165 OFFCURVE",
"136 301 CURVE SMOOTH",
"169 454 OFFCURVE",
"259 533 OFFCURVE",
"418 541 CURVE SMOOTH",
"453 543 OFFCURVE",
"487 545 OFFCURVE",
"521 546 CURVE"
);
},
{
closed = 1;
nodes = (
"800 1483 LINE",
"770 1407 OFFCURVE",
"742 1361 OFFCURVE",
"696 1361 CURVE SMOOTH",
"625 1361 OFFCURVE",
"574 1481 OFFCURVE",
"473 1481 CURVE SMOOTH",
"368 1481 OFFCURVE",
"288 1394 OFFCURVE",
"239 1240 CURVE",
"335 1240 LINE",
"364 1319 OFFCURVE",
"401 1363 OFFCURVE",
"443 1363 CURVE SMOOTH",
"510 1363 OFFCURVE",
"562 1242 OFFCURVE",
"664 1242 CURVE SMOOTH",
"764 1242 OFFCURVE",
"849 1326 OFFCURVE",
"896 1483 CURVE"
);
}
);
width = 841;
}
);
unicode = 00E3;
},
{
glyphname = ae;
lastChange = "2013-03-13 10:38:35 +0200";
layers = (
{
layerId = UUID0;
name = "Regular Italic";
paths = (
{
closed = 1;
nodes = (
"923 1115 OFFCURVE",
"830 1067 OFFCURVE",
"751 970 CURVE",
"724 1066 OFFCURVE",
"651 1114 OFFCURVE",
"534 1114 CURVE SMOOTH",
"422 1114 OFFCURVE",
"334 1080 OFFCURVE",
"249 1034 CURVE",
"262 997 OFFCURVE",
"272 960 OFFCURVE",
"284 923 CURVE",
"365 968 OFFCURVE",
"437 990 OFFCURVE",
"501 990 CURVE SMOOTH",
"608 990 OFFCURVE",
"637 907 OFFCURVE",
"603 743 CURVE SMOOTH",
"584 657 LINE",
"456 651 LINE SMOOTH",
"220 640 OFFCURVE",
"64 518 OFFCURVE",
"18 303 CURVE SMOOTH",
"-25 101 OFFCURVE",
"46 -20 OFFCURVE",
"211 -20 CURVE SMOOTH",
"345 -20 OFFCURVE",
"454 44 OFFCURVE",
"553 200 CURVE",
"583 58 OFFCURVE",
"679 -20 OFFCURVE",
"824 -20 CURVE SMOOTH",
"919 -20 OFFCURVE",
"1007 3 OFFCURVE",
"1090 48 CURVE",
"1118 180 LINE",
"1033 133 OFFCURVE",
"942 108 OFFCURVE",
"867 108 CURVE SMOOTH",
"711 108 OFFCURVE",
"656 246 OFFCURVE",
"709 525 CURVE",
"1230 525 LINE",
"1253 631 LINE SMOOTH",
"1316 929 OFFCURVE",
"1232 1115 OFFCURVE",
"1029 1115 CURVE SMOOTH"
);
},
{
closed = 1;
nodes = (
"538 440 LINE SMOOTH",
"493 228 OFFCURVE",
"393 102 OFFCURVE",
"270 102 CURVE SMOOTH",
"184 102 OFFCURVE",
"147 165 OFFCURVE",
"176 301 CURVE SMOOTH",
"209 460 OFFCURVE",
"298 533 OFFCURVE",
"458 541 CURVE SMOOTH",
"492 543 OFFCURVE",
"526 545 OFFCURVE",
"561 546 CURVE"
);
},
{
closed = 1;
nodes = (
"1111 988 OFFCURVE",
"1153 856 OFFCURVE",
"1108 646 CURVE",
"738 646 LINE",
"799 874 OFFCURVE",
"887 988 OFFCURVE",
"1001 988 CURVE SMOOTH"
);
}
);
width = 1321;
}
);
unicode = 00E6;
},
{
glyphname = b;
lastChange = "2013-03-13 10:38:35 +0200";
layers = (
{
layerId = UUID0;
name = "Regular Italic";
paths = (
{
closed = 1;
nodes = (
"301 1556 LINE",
"-29 0 LINE",
"88 0 LINE",
"106 47 OFFCURVE",
"124 95 OFFCURVE",
"141 142 CURVE",
"152 142 LINE",
"188 34 OFFCURVE",
"262 -20 OFFCURVE",
"364 -20 CURVE SMOOTH",
"563 -20 OFFCURVE",
"721 179 OFFCURVE",
"799 549 CURVE SMOOTH",
"878 920 OFFCURVE",
"805 1114 OFFCURVE",
"599 1114 CURVE SMOOTH",
"499 1114 OFFCURVE",
"411 1063 OFFCURVE",
"327 950 CURVE",
"317 950 LINE",
"333 1013 OFFCURVE",
"346 1061 OFFCURVE",
"355 1096 CURVE SMOOTH",
"452 1556 LINE"
);
},
{
closed = 1;
nodes = (
"674 980 OFFCURVE",
"704 836 OFFCURVE",
"644 550 CURVE SMOOTH",
"581 253 OFFCURVE",
"487 113 OFFCURVE",
"356 113 CURVE SMOOTH",
"212 113 OFFCURVE",
"174 248 OFFCURVE",
"235 533 CURVE SMOOTH",
"241 559 LINE SMOOTH",
"306 866 OFFCURVE",
"394 980 OFFCURVE",
"537 980 CURVE SMOOTH"
);
}
);
width = 934;
}
);
unicode = 0062;
},
{
glyphname = c;
lastChange = "2013-03-13 10:38:35 +0200";
layers = (
{
layerId = UUID0;
name = "Regular Italic";
paths = (
{
closed = 1;
nodes = (
"327 1115 OFFCURVE",
"167 919 OFFCURVE",
"87 541 CURVE SMOOTH",
"8 173 OFFCURVE",
"88 -20 OFFCURVE",
"321 -20 CURVE SMOOTH",
"379 -20 OFFCURVE",
"460 -1 OFFCURVE",
"518 26 CURVE",
"546 157 LINE",
"481 130 OFFCURVE",
"422 115 OFFCURVE",
"371 115 CURVE SMOOTH",
"222 115 OFFCURVE",
"181 249 OFFCURVE",
"243 543 CURVE SMOOTH",
"305 834 OFFCURVE",
"405 980 OFFCURVE",
"549 980 CURVE SMOOTH",
"588 980 OFFCURVE",
"629 968 OFFCURVE",
"672 943 CURVE",
"748 1067 LINE",
"704 1097 OFFCURVE",
"635 1115 OFFCURVE",
"563 1115 CURVE SMOOTH"
);
}
);
width = 676;
}
);
unicode = 0063;
},
{
glyphname = ccedilla;
lastChange = "2013-03-13 10:38:35 +0200";
layers = (
{
layerId = UUID0;
name = "Regular Italic";
paths = (
{
closed = 1;
nodes = (
"377 1115 OFFCURVE",
"217 919 OFFCURVE",
"137 541 CURVE SMOOTH",
"59 173 OFFCURVE",
"139 -20 OFFCURVE",
"372 -20 CURVE SMOOTH",
"430 -20 OFFCURVE",
"511 -1 OFFCURVE",
"568 26 CURVE",
"596 157 LINE",
"531 130 OFFCURVE",
"472 115 OFFCURVE",
"421 115 CURVE SMOOTH",
"272 115 OFFCURVE",
"231 249 OFFCURVE",
"293 543 CURVE SMOOTH",
"355 834 OFFCURVE",
"455 980 OFFCURVE",
"599 980 CURVE SMOOTH",
"638 980 OFFCURVE",
"680 968 OFFCURVE",
"722 943 CURVE",
"799 1067 LINE",
"754 1097 OFFCURVE",
"685 1115 OFFCURVE",
"613 1115 CURVE SMOOTH"
);
},
{
closed = 1;
nodes = (
"288 0 LINE",
"179 -159 LINE",
"280 -176 OFFCURVE",
"331 -213 OFFCURVE",
"315 -285 CURVE SMOOTH",
"302 -348 OFFCURVE",
"252 -388 OFFCURVE",
"162 -388 CURVE SMOOTH",
"128 -388 OFFCURVE",
"99 -383 OFFCURVE",
"73 -375 CURVE",
"51 -478 LINE",
"73 -487 OFFCURVE",
"105 -492 OFFCURVE",
"149 -492 CURVE SMOOTH",
"312 -492 OFFCURVE",
"418 -417 OFFCURVE",
"447 -281 CURVE SMOOTH",
"467 -187 OFFCURVE",
"423 -127 OFFCURVE",
"327 -102 CURVE",
"395 0 LINE"
);
}
);
width = 676;
}
);
unicode = 00E7;
},
{
glyphname = d;
lastChange = "2013-03-13 10:38:35 +0200";
layers = (
{
layerId = UUID0;
name = "Regular Italic";
paths = (
{
closed = 1;
nodes = (
"815 1556 LINE",
"720 1106 LINE SMOOTH",
"712 1066 OFFCURVE",
"704 1015 OFFCURVE",
"695 955 CURVE",
"684 955 LINE",
"651 1058 OFFCURVE",
"571 1115 OFFCURVE",
"478 1115 CURVE SMOOTH",
"273 1115 OFFCURVE",
"117 909 OFFCURVE",
"40 545 CURVE SMOOTH",
"-39 173 OFFCURVE",
"35 -20 OFFCURVE",
"241 -20 CURVE SMOOTH",
"349 -20 OFFCURVE",
"444 39 OFFCURVE",
"521 149 CURVE",
"530 149 LINE",
"526 99 OFFCURVE",
"522 50 OFFCURVE",
"519 0 CURVE",
"636 0 LINE",
"966 1556 LINE"
);
},
{
closed = 1;
nodes = (
"623 979 OFFCURVE",
"664 849 OFFCURVE",
"599 544 CURVE SMOOTH",
"588 491 LINE SMOOTH",
"533 231 OFFCURVE",
"432 109 OFFCURVE",
"301 109 CURVE SMOOTH",
"163 109 OFFCURVE",
"135 257 OFFCURVE",
"196 542 CURVE SMOOTH",
"256 826 OFFCURVE",
"345 979 OFFCURVE",
"482 979 CURVE SMOOTH"
);
}
);
width = 934;
}
);
unicode = 0064;
},
{
glyphname = eth;
lastChange = "2013-03-13 10:38:35 +0200";
layers = (
{
layerId = UUID0;
name = "Regular Italic";
paths = (
{
closed = 1;
nodes = (
"434 1530 OFFCURVE",
"407 1498 OFFCURVE",
"379 1467 CURVE",
"419 1436 OFFCURVE",
"454 1404 OFFCURVE",
"484 1371 CURVE",
"292 1268 LINE",
"329 1176 LINE",
"544 1292 LINE",
"628 1165 OFFCURVE",
"671 1017 OFFCURVE",
"668 846 CURVE",
"665 845 OFFCURVE",
"662 845 OFFCURVE",
"659 845 CURVE",
"624 925 OFFCURVE",
"560 966 OFFCURVE",
"465 966 CURVE SMOOTH",
"250 966 OFFCURVE",
"91 787 OFFCURVE",
"24 473 CURVE SMOOTH",
"-38 181 OFFCURVE",
"60 -20 OFFCURVE",
"281 -20 CURVE SMOOTH",
"522 -20 OFFCURVE",
"693 171 OFFCURVE",
"769 532 CURVE SMOOTH",
"843 879 OFFCURVE",
"812 1154 OFFCURVE",
"670 1361 CURVE",
"864 1467 LINE",
"826 1558 LINE",
"753 1517 OFFCURVE",
"680 1478 OFFCURVE",
"607 1438 CURVE",
"567 1482 OFFCURVE",
"519 1523 OFFCURVE",
"461 1560 CURVE"
);
},
{
closed = 1;
nodes = (
"594 836 OFFCURVE",
"650 696 OFFCURVE",
"608 498 CURVE SMOOTH",
"553 239 OFFCURVE",
"462 112 OFFCURVE",
"315 112 CURVE SMOOTH",
"179 112 OFFCURVE",
"131 251 OFFCURVE",
"177 468 CURVE SMOOTH",
"228 711 OFFCURVE",
"328 836 OFFCURVE",
"471 836 CURVE SMOOTH"
);
}
);
width = 907;
}
);
unicode = 00F0;
},
{
glyphname = e;
lastChange = "2013-03-13 10:38:35 +0200";
layers = (
{
layerId = UUID0;
name = "Regular Italic";
paths = (
{
closed = 1;
nodes = (
"334 1115 OFFCURVE",
"165 909 OFFCURVE",
"86 539 CURVE SMOOTH",
"11 185 OFFCURVE",
"108 -20 OFFCURVE",
"355 -20 CURVE SMOOTH",
"446 -20 OFFCURVE",
"534 3 OFFCURVE",
"618 48 CURVE",
"646 182 LINE",
"556 134 OFFCURVE",
"473 111 OFFCURVE",
"399 111 CURVE SMOOTH",
"236 111 OFFCURVE",
"182 247 OFFCURVE",
"237 525 CURVE",
"758 525 LINE",
"781 631 LINE SMOOTH",
"844 928 OFFCURVE",
"760 1115 OFFCURVE",
"560 1115 CURVE SMOOTH"
);
},
{
closed = 1;
nodes = (
"639 990 OFFCURVE",
"678 854 OFFCURVE",
"634 646 CURVE",
"266 646 LINE",
"326 877 OFFCURVE",
"415 990 OFFCURVE",
"528 990 CURVE SMOOTH"
);
}
);
width = 849;
}
);
unicode = 0065;
},
{
glyphname = eacute;
lastChange = "2013-03-13 10:38:35 +0200";
layers = (
{
layerId = UUID0;
name = "Regular Italic";
paths = (
{
closed = 1;
nodes = (
"285 1115 OFFCURVE",
"117 909 OFFCURVE",
"38 539 CURVE SMOOTH",
"-37 185 OFFCURVE",
"60 -20 OFFCURVE",
"307 -20 CURVE SMOOTH",
"398 -20 OFFCURVE",
"486 3 OFFCURVE",
"570 48 CURVE",
"598 182 LINE",
"508 134 OFFCURVE",
"425 111 OFFCURVE",
"351 111 CURVE SMOOTH",
"188 111 OFFCURVE",
"134 247 OFFCURVE",
"189 525 CURVE",
"710 525 LINE",
"732 631 LINE SMOOTH",
"796 928 OFFCURVE",
"711 1115 OFFCURVE",
"511 1115 CURVE SMOOTH"
);
},
{
closed = 1;
nodes = (
"591 990 OFFCURVE",
"630 854 OFFCURVE",
"586 646 CURVE",
"218 646 LINE",
"278 877 OFFCURVE",
"367 990 OFFCURVE",
"480 990 CURVE SMOOTH"
);
},
{
closed = 1;
nodes = (
"699 1569 LINE",
"642 1483 OFFCURVE",
"540 1357 OFFCURVE",
"449 1263 CURVE",
"444 1241 LINE",
"537 1241 LINE",
"650 1320 OFFCURVE",
"827 1475 OFFCURVE",
"883 1550 CURVE",
"887 1569 LINE"
);
}
);
width = 849;
}
);
unicode = 00E9;
},
{
glyphname = ecircumflex;
lastChange = "2013-03-13 10:38:35 +0200";
layers = (
{
layerId = UUID0;
name = "Regular Italic";
paths = (
{
closed = 1;
nodes = (
"285 1115 OFFCURVE",
"117 909 OFFCURVE",
"38 539 CURVE SMOOTH",
"-37 185 OFFCURVE",
"60 -20 OFFCURVE",
"307 -20 CURVE SMOOTH",
"398 -20 OFFCURVE",
"486 3 OFFCURVE",
"570 48 CURVE",
"598 182 LINE",
"508 134 OFFCURVE",
"425 111 OFFCURVE",
"351 111 CURVE SMOOTH",
"188 111 OFFCURVE",
"134 247 OFFCURVE",
"189 525 CURVE",
"710 525 LINE",
"732 631 LINE SMOOTH",
"796 928 OFFCURVE",
"711 1115 OFFCURVE",
"511 1115 CURVE SMOOTH"
);
},
{
closed = 1;
nodes = (
"591 990 OFFCURVE",
"630 854 OFFCURVE",
"586 646 CURVE",
"218 646 LINE",
"278 877 OFFCURVE",
"367 990 OFFCURVE",
"480 990 CURVE SMOOTH"
);
},
{
closed = 1;
nodes = (
"528 1569 LINE",
"473 1488 OFFCURVE",
"385 1386 OFFCURVE",
"266 1262 CURVE",
"261 1241 LINE",
"346 1241 LINE",
"415 1293 OFFCURVE",
"500 1370 OFFCURVE",
"579 1442 CURVE",
"647 1341 LINE SMOOTH",
"677 1297 OFFCURVE",
"703 1264 OFFCURVE",
"725 1241 CURVE",
"811 1241 LINE",
"816 1262 LINE",
"753 1373 OFFCURVE",
"697 1503 OFFCURVE",
"683 1569 CURVE"
);
}
);
width = 849;
}
);
unicode = 00EA;
},
{
glyphname = edieresis;
lastChange = "2013-03-13 10:38:35 +0200";
layers = (
{
layerId = UUID0;
name = "Regular Italic";
paths = (
{
closed = 1;
nodes = (
"294 1115 OFFCURVE",
"125 909 OFFCURVE",
"46 539 CURVE SMOOTH",
"-29 185 OFFCURVE",
"69 -20 OFFCURVE",
"316 -20 CURVE SMOOTH",
"407 -20 OFFCURVE",
"494 3 OFFCURVE",
"578 48 CURVE",
"606 182 LINE",
"516 134 OFFCURVE",
"433 111 OFFCURVE",
"359 111 CURVE SMOOTH",
"196 111 OFFCURVE",
"142 247 OFFCURVE",
"197 525 CURVE",
"718 525 LINE",
"741 631 LINE SMOOTH",
"804 928 OFFCURVE",
"720 1115 OFFCURVE",
"520 1115 CURVE SMOOTH"
);
},
{
closed = 1;
nodes = (
"599 990 OFFCURVE",
"638 854 OFFCURVE",
"594 646 CURVE",
"226 646 LINE",
"286 877 OFFCURVE",
"375 990 OFFCURVE",
"488 990 CURVE SMOOTH"
);
},
{
closed = 1;
nodes = (
"380 1490 OFFCURVE",
"337 1459 OFFCURVE",
"323 1394 CURVE SMOOTH",
"309 1328 OFFCURVE",
"339 1295 OFFCURVE",
"388 1295 CURVE SMOOTH",
"437 1295 OFFCURVE",
"480 1329 OFFCURVE",
"494 1394 CURVE SMOOTH",
"507 1457 OFFCURVE",
"478 1490 OFFCURVE",
"429 1490 CURVE SMOOTH"
);
},
{
closed = 1;
nodes = (
"716 1490 OFFCURVE",
"673 1458 OFFCURVE",
"659 1394 CURVE SMOOTH",
"645 1329 OFFCURVE",
"675 1295 OFFCURVE",
"723 1295 CURVE SMOOTH",
"773 1295 OFFCURVE",
"816 1328 OFFCURVE",
"830 1394 CURVE SMOOTH",
"844 1459 OFFCURVE",
"813 1490 OFFCURVE",
"764 1490 CURVE SMOOTH"
);
}
);
width = 849;
}
);
unicode = 00EB;
},
{
glyphname = egrave;
lastChange = "2013-03-13 10:38:35 +0200";
layers = (
{
layerId = UUID0;
name = "Regular Italic";
paths = (
{
closed = 1;
nodes = (
"285 1115 OFFCURVE",
"117 909 OFFCURVE",
"38 539 CURVE SMOOTH",
"-37 185 OFFCURVE",
"60 -20 OFFCURVE",
"307 -20 CURVE SMOOTH",
"398 -20 OFFCURVE",
"486 3 OFFCURVE",
"570 48 CURVE",
"598 182 LINE",
"508 134 OFFCURVE",
"425 111 OFFCURVE",
"351 111 CURVE SMOOTH",
"188 111 OFFCURVE",
"134 247 OFFCURVE",
"189 525 CURVE",
"710 525 LINE",
"732 631 LINE SMOOTH",
"796 928 OFFCURVE",
"711 1115 OFFCURVE",
"511 1115 CURVE SMOOTH"
);
},
{
closed = 1;
nodes = (
"591 990 OFFCURVE",
"630 854 OFFCURVE",
"586 646 CURVE",
"218 646 LINE",
"278 877 OFFCURVE",
"367 990 OFFCURVE",
"480 990 CURVE SMOOTH"
);
},
{
closed = 1;
nodes = (
"349 1569 LINE",
"345 1551 LINE",
"358 1510 OFFCURVE",
"388 1457 OFFCURVE",
"433 1393 CURVE SMOOTH",
"480 1329 OFFCURVE",
"522 1278 OFFCURVE",
"559 1241 CURVE",
"653 1241 LINE",
"658 1264 LINE",
"635 1304 OFFCURVE",
"610 1355 OFFCURVE",
"586 1416 CURVE SMOOTH",
"563 1476 OFFCURVE",
"547 1528 OFFCURVE",
"538 1569 CURVE"
);
}
);
width = 849;
}
);
unicode = 00E8;
},
{
glyphname = f;
lastChange = "2013-03-13 10:38:35 +0200";
layers = (
{
layerId = UUID0;
name = "Regular Italic";
paths = (
{
closed = 1;
nodes = (
"396 1567 OFFCURVE",
"299 1447 OFFCURVE",
"243 1185 CURVE SMOOTH",
"226 1102 LINE",
"176 1084 OFFCURVE",
"127 1067 OFFCURVE",
"78 1048 CURVE",
"61 968 LINE",
"197 968 LINE",
"-9 0 LINE",
"141 0 LINE",
"347 968 LINE",
"522 968 LINE",
"549 1094 LINE",
"374 1094 LINE",
"393 1182 LINE SMOOTH",
"432 1369 OFFCURVE",
"474 1431 OFFCURVE",
"558 1434 CURVE",
"589 1434 OFFCURVE",
"620 1426 OFFCURVE",
"651 1409 CURVE",
"723 1535 LINE",
"681 1556 OFFCURVE",
"634 1567 OFFCURVE",
"578 1567 CURVE SMOOTH"
);
}
);
width = 505;
}
);
unicode = 0066;
},
{
glyphname = g;
lastChange = "2013-03-13 10:38:35 +0200";
layers = (
{
layerId = UUID0;
name = "Regular Italic";
paths = (
{
closed = 1;
nodes = (
"375 1115 OFFCURVE",
"232 974 OFFCURVE",
"182 739 CURVE SMOOTH",
"150 589 OFFCURVE",
"180 468 OFFCURVE",
"275 416 CURVE",
"177 351 OFFCURVE",
"130 307 OFFCURVE",
"116 241 CURVE SMOOTH",
"100 168 OFFCURVE",
"135 113 OFFCURVE",
"196 85 CURVE",
"41 33 OFFCURVE",
"-51 -64 OFFCURVE",
"-79 -196 CURVE SMOOTH",
"-119 -387 OFFCURVE",
"-24 -492 OFFCURVE",
"189 -492 CURVE SMOOTH",
"449 -492 OFFCURVE",
"645 -356 OFFCURVE",
"693 -132 CURVE SMOOTH",
"735 66 OFFCURVE",
"650 170 OFFCURVE",
"457 170 CURVE SMOOTH",
"358 170 LINE SMOOTH",
"277 170 OFFCURVE",
"236 201 OFFCURVE",
"248 258 CURVE SMOOTH",
"259 311 OFFCURVE",
"303 348 OFFCURVE",
"362 386 CURVE",
"373 383 OFFCURVE",
"390 382 OFFCURVE",
"407 382 CURVE SMOOTH",
"415 382 LINE SMOOTH",
"587 382 OFFCURVE",
"740 522 OFFCURVE",
"787 743 CURVE SMOOTH",
"806 834 OFFCURVE",
"801 927 OFFCURVE",
"777 976 CURVE",
"925 997 LINE",
"945 1093 LINE",
"709 1095 OFFCURVE",
"683 1093 OFFCURVE",
"683 1093 CURVE",
"655 1104 OFFCURVE",
"605 1115 OFFCURVE",
"567 1115 CURVE SMOOTH"
);
},
{
closed = 1;
nodes = (
"526 31 OFFCURVE",
"570 -30 OFFCURVE",
"546 -143 CURVE SMOOTH",
"516 -288 OFFCURVE",
"395 -376 OFFCURVE",
"223 -376 CURVE SMOOTH",
"92 -376 OFFCURVE",
"41 -304 OFFCURVE",
"67 -184 CURVE SMOOTH",
"95 -52 OFFCURVE",
"186 31 OFFCURVE",
"317 31 CURVE SMOOTH",
"393 31 LINE SMOOTH"
);
},
{
closed = 1;
nodes = (
"641 1004 OFFCURVE",
"674 910 OFFCURVE",
"639 744 CURVE SMOOTH",
"603 575 OFFCURVE",
"534 491 OFFCURVE",
"433 491 CURVE SMOOTH",
"336 491 OFFCURVE",
"294 575 OFFCURVE",
"328 737 CURVE SMOOTH",
"365 908 OFFCURVE",
"440 1004 OFFCURVE",
"542 1004 CURVE SMOOTH"
);
}
);
width = 805;
}
);
unicode = 0067;
},
{
glyphname = h;
lastChange = "2013-03-13 10:38:35 +0200";
layers = (
{
layerId = UUID0;
name = "Regular Italic";
paths = (
{
closed = 1;
nodes = (
"299 1556 LINE",
"-31 0 LINE",
"120 0 LINE",
"242 574 LINE SMOOTH",
"300 850 OFFCURVE",
"395 982 OFFCURVE",
"538 982 CURVE SMOOTH",
"643 982 OFFCURVE",
"672 905 OFFCURVE",
"633 720 CURVE SMOOTH",
"480 0 LINE",
"632 0 LINE",
"789 741 LINE SMOOTH",
"842 988 OFFCURVE",
"787 1115 OFFCURVE",
"597 1115 CURVE SMOOTH",
"497 1115 OFFCURVE",
"391 1052 OFFCURVE",
"325 947 CURVE",
"315 947 LINE",
"331 1006 OFFCURVE",
"344 1057 OFFCURVE",
"354 1103 CURVE SMOOTH",
"450 1556 LINE"
);
}
);
width = 925;
}
);
unicode = 0068;
},
{
glyphname = i;
lastChange = "2013-03-13 10:38:35 +0200";
layers = (
{
layerId = UUID0;
name = "Regular Italic";
paths = (
{
closed = 1;
nodes = (
"208 1095 LINE",
"-25 0 LINE",
"127 0 LINE",
"360 1095 LINE"
);
},
{
closed = 1;
nodes = (
"318 1503 OFFCURVE",
"273 1462 OFFCURVE",
"258 1392 CURVE SMOOTH",
"244 1324 OFFCURVE",
"272 1282 OFFCURVE",
"327 1282 CURVE SMOOTH",
"379 1282 OFFCURVE",
"423 1324 OFFCURVE",
"437 1392 CURVE SMOOTH",
"452 1462 OFFCURVE",
"427 1503 OFFCURVE",
"374 1503 CURVE SMOOTH"
);
}
);
width = 422;
}
);
unicode = 0069;
},
{
glyphname = dotlessi;
lastChange = "2013-03-13 10:38:35 +0200";
layers = (
{
layerId = UUID0;
name = "Regular Italic";
paths = (
{
closed = 1;
nodes = (
"251 1095 LINE",
"19 0 LINE",
"171 0 LINE",
"403 1095 LINE"
);
}
);
width = 422;
}
);
unicode = 0131;
},
{
glyphname = iacute;
lastChange = "2013-03-13 10:38:35 +0200";
layers = (
{
layerId = UUID0;
name = "Regular Italic";
paths = (
{
closed = 1;
nodes = (
"201 1095 LINE",
"-32 0 LINE",
"120 0 LINE",
"353 1095 LINE"
);
},
{
closed = 1;
nodes = (
"465 1569 LINE",
"407 1483 OFFCURVE",
"306 1357 OFFCURVE",
"215 1263 CURVE",
"210 1241 LINE",
"303 1241 LINE",
"416 1320 OFFCURVE",
"593 1475 OFFCURVE",
"649 1550 CURVE",
"653 1569 LINE"
);
}
);
width = 422;
}
);
unicode = 00ED;
},
{
glyphname = icircumflex;
lastChange = "2013-03-13 10:38:35 +0200";
layers = (
{
layerId = UUID0;
name = "Regular Italic";
paths = (
{
closed = 1;
nodes = (
"299 1569 LINE",
"244 1488 OFFCURVE",
"156 1386 OFFCURVE",
"36 1262 CURVE",
"32 1241 LINE",
"117 1241 LINE",
"186 1293 OFFCURVE",
"270 1370 OFFCURVE",
"350 1442 CURVE",
"418 1341 LINE SMOOTH",
"448 1297 OFFCURVE",
"474 1264 OFFCURVE",
"496 1241 CURVE",
"582 1241 LINE",
"586 1262 LINE",
"524 1373 OFFCURVE",
"468 1503 OFFCURVE",
"454 1569 CURVE"
);
},
{
closed = 1;
nodes = (
"201 1095 LINE",
"-32 0 LINE",
"120 0 LINE",
"353 1095 LINE"
);
}
);
width = 422;
}
);
unicode = 00EE;
},
{
glyphname = idieresis;
lastChange = "2013-03-13 10:38:35 +0200";
layers = (
{
layerId = UUID0;
name = "Regular Italic";
paths = (
{
closed = 1;
nodes = (
"209 1095 LINE",
"-23 0 LINE",
"129 0 LINE",
"361 1095 LINE"
);
},
{
closed = 1;
nodes = (
"154 1490 OFFCURVE",
"111 1459 OFFCURVE",
"97 1394 CURVE SMOOTH",
"83 1328 OFFCURVE",
"113 1295 OFFCURVE",
"162 1295 CURVE SMOOTH",
"211 1295 OFFCURVE",
"254 1329 OFFCURVE",
"268 1394 CURVE SMOOTH",
"281 1457 OFFCURVE",
"252 1490 OFFCURVE",
"203 1490 CURVE SMOOTH"
);
},
{
closed = 1;
nodes = (
"490 1490 OFFCURVE",
"447 1458 OFFCURVE",
"433 1394 CURVE SMOOTH",
"419 1329 OFFCURVE",
"449 1295 OFFCURVE",
"497 1295 CURVE SMOOTH",
"547 1295 OFFCURVE",
"590 1328 OFFCURVE",
"604 1394 CURVE SMOOTH",
"618 1459 OFFCURVE",
"587 1490 OFFCURVE",
"538 1490 CURVE SMOOTH"
);
}
);
width = 422;
}
);
unicode = 00EF;
},
{
glyphname = igrave;
lastChange = "2013-03-13 10:38:35 +0200";
layers = (
{
layerId = UUID0;
name = "Regular Italic";
paths = (
{
closed = 1;
nodes = (
"201 1095 LINE",
"-32 0 LINE",
"120 0 LINE",
"353 1095 LINE"
);
},
{
closed = 1;
nodes = (
"109 1569 LINE",
"105 1551 LINE",
"118 1510 OFFCURVE",
"148 1457 OFFCURVE",
"193 1393 CURVE SMOOTH",
"240 1329 OFFCURVE",
"282 1278 OFFCURVE",
"319 1241 CURVE",
"413 1241 LINE",
"418 1264 LINE",
"394 1304 OFFCURVE",
"370 1355 OFFCURVE",
"346 1416 CURVE SMOOTH",
"323 1476 OFFCURVE",
"307 1528 OFFCURVE",
"298 1569 CURVE"
);
}
);
width = 422;
}
);
unicode = 00EC;
},
{
glyphname = j;
lastChange = "2013-03-13 10:38:35 +0200";
layers = (
{
layerId = UUID0;
name = "Regular Italic";
paths = (
{
closed = 1;
nodes = (
"262 1095 LINE",
"-8 -175 LINE SMOOTH",
"-34 -297 OFFCURVE",
"-72 -356 OFFCURVE",
"-135 -356 CURVE SMOOTH",
"-158 -356 OFFCURVE",
"-180 -350 OFFCURVE",
"-202 -339 CURVE",
"-230 -472 LINE",
"-210 -485 OFFCURVE",
"-181 -492 OFFCURVE",
"-143 -492 CURVE SMOOTH",
"2 -492 OFFCURVE",
"99 -387 OFFCURVE",
"144 -177 CURVE SMOOTH",
"414 1095 LINE"
);
},
{
closed = 1;
nodes = (
"372 1503 OFFCURVE",
"327 1462 OFFCURVE",
"312 1392 CURVE SMOOTH",
"298 1324 OFFCURVE",
"327 1282 OFFCURVE",
"381 1282 CURVE SMOOTH",
"434 1282 OFFCURVE",
"477 1325 OFFCURVE",
"491 1392 CURVE SMOOTH",
"506 1461 OFFCURVE",
"482 1503 OFFCURVE",
"428 1503 CURVE SMOOTH"
);
}
);
width = 423;
}
);
unicode = 006A;
},
{
glyphname = k;
lastChange = "2013-03-13 10:38:35 +0200";
layers = (
{
layerId = UUID0;
name = "Regular Italic";
paths = (
{
closed = 1;
nodes = (
"299 1556 LINE",
"-31 0 LINE",
"121 0 LINE",
"210 419 LINE",
"354 556 LINE",
"460 0 LINE",
"619 0 LINE",
"481 676 LINE",
"830 1095 LINE",
"668 1095 LINE",
"327 675 LINE",
"239 558 LINE",
"230 558 LINE",
"281 753 LINE",
"451 1556 LINE"
);
}
);
width = 795;
}
);
unicode = 006B;
},
{
glyphname = l;
lastChange = "2013-03-13 10:38:35 +0200";
layers = (
{
layerId = UUID0;
name = "Regular Italic";
paths = (
{
closed = 1;
nodes = (
"299 1556 LINE",
"-31 0 LINE",
"121 0 LINE",
"451 1556 LINE"
);
}
);
width = 419;
}
);
unicode = 006C;
},
{
glyphname = m;
lastChange = "2013-03-13 10:38:35 +0200";
layers = (
{
layerId = UUID0;
name = "Regular Italic";
paths = (
{
closed = 1;
nodes = (
"983 1115 OFFCURVE",
"897 1007 OFFCURVE",
"831 925 CURVE",
"822 1050 OFFCURVE",
"762 1115 OFFCURVE",
"637 1115 CURVE SMOOTH",
"533 1115 OFFCURVE",
"438 1060 OFFCURVE",
"368 946 CURVE",
"356 946 LINE",
"360 995 OFFCURVE",
"367 1045 OFFCURVE",
"371 1094 CURVE",
"248 1094 LINE",
"15 0 LINE",
"166 0 LINE",
"289 575 LINE SMOOTH",
"350 862 OFFCURVE",
"433 978 OFFCURVE",
"567 978 CURVE SMOOTH",
"667 978 OFFCURVE",
"696 891 OFFCURVE",
"658 714 CURVE SMOOTH",
"506 0 LINE",
"658 0 LINE",
"787 603 LINE SMOOTH",
"840 854 OFFCURVE",
"921 978 OFFCURVE",
"1059 978 CURVE SMOOTH",
"1157 978 OFFCURVE",
"1187 889 OFFCURVE",
"1150 714 CURVE SMOOTH",
"998 0 LINE",
"1149 0 LINE",
"1301 714 LINE SMOOTH",
"1360 988 OFFCURVE",
"1304 1115 OFFCURVE",
"1129 1115 CURVE SMOOTH"
);
}
);
width = 1397;
}
);
unicode = 006D;
},
{
glyphname = n;
lastChange = "2013-03-13 10:38:35 +0200";
layers = (
{
layerId = UUID0;
name = "Regular Italic";
paths = (
{
closed = 1;
nodes = (
"542 1115 OFFCURVE",
"436 1053 OFFCURVE",
"368 946 CURVE",
"356 946 LINE",
"360 995 OFFCURVE",
"367 1045 OFFCURVE",
"371 1094 CURVE",
"248 1094 LINE",
"15 0 LINE",
"166 0 LINE",
"272 496 LINE SMOOTH",
"346 844 OFFCURVE",
"422 982 OFFCURVE",
"588 982 CURVE SMOOTH",
"688 982 OFFCURVE",
"717 894 OFFCURVE",
"680 720 CURVE SMOOTH",
"526 0 LINE",
"678 0 LINE",
"836 742 LINE SMOOTH",
"890 997 OFFCURVE",
"827 1115 OFFCURVE",
"647 1115 CURVE SMOOTH"
);
}
);
width = 925;
}
);
unicode = 006E;
},
{
glyphname = ntilde;
lastChange = "2013-03-13 10:38:35 +0200";
layers = (
{
layerId = UUID0;
name = "Regular Italic";
paths = (
{
closed = 1;
nodes = (
"502 1115 OFFCURVE",
"397 1053 OFFCURVE",
"328 946 CURVE",
"316 946 LINE",
"321 995 OFFCURVE",
"328 1045 OFFCURVE",
"332 1094 CURVE",
"209 1094 LINE",
"-24 0 LINE",
"127 0 LINE",
"233 496 LINE SMOOTH",
"307 844 OFFCURVE",
"383 982 OFFCURVE",
"549 982 CURVE SMOOTH",
"649 982 OFFCURVE",
"677 894 OFFCURVE",
"640 720 CURVE SMOOTH",
"487 0 LINE",
"639 0 LINE",
"797 742 LINE SMOOTH",
"851 997 OFFCURVE",
"787 1115 OFFCURVE",
"607 1115 CURVE SMOOTH"
);
},
{
closed = 1;
nodes = (
"839 1483 LINE",
"809 1407 OFFCURVE",
"781 1361 OFFCURVE",
"735 1361 CURVE SMOOTH",
"664 1361 OFFCURVE",
"613 1481 OFFCURVE",
"512 1481 CURVE SMOOTH",
"407 1481 OFFCURVE",
"327 1394 OFFCURVE",
"278 1240 CURVE",
"374 1240 LINE",
"403 1319 OFFCURVE",
"440 1363 OFFCURVE",
"482 1363 CURVE SMOOTH",
"549 1363 OFFCURVE",
"601 1242 OFFCURVE",
"703 1242 CURVE SMOOTH",
"803 1242 OFFCURVE",
"888 1326 OFFCURVE",
"935 1483 CURVE"
);
}
);
width = 925;
}
);
unicode = 00F1;
},
{
glyphname = o;
lastChange = "2013-03-13 10:38:35 +0200";
layers = (
{
layerId = UUID0;
name = "Regular Italic";
paths = (
{
closed = 1;
nodes = (
"339 1115 OFFCURVE",
"165 915 OFFCURVE",
"86 545 CURVE SMOOTH",
"10 186 OFFCURVE",
"102 -20 OFFCURVE",
"328 -20 CURVE SMOOTH",
"561 -20 OFFCURVE",
"739 184 OFFCURVE",
"816 549 CURVE SMOOTH",
"892 903 OFFCURVE",
"798 1115 OFFCURVE",
"574 1115 CURVE SMOOTH"
);
},
{
closed = 1;
nodes = (
"683 980 OFFCURVE",
"720 836 OFFCURVE",
"659 549 CURVE SMOOTH",
"598 259 OFFCURVE",
"498 115 OFFCURVE",
"359 115 CURVE SMOOTH",
"215 115 OFFCURVE",
"183 263 OFFCURVE",
"243 549 CURVE SMOOTH",
"304 836 OFFCURVE",
"396 980 OFFCURVE",
"543 980 CURVE SMOOTH"
);
}
);
width = 903;
}
);
unicode = 006F;
},
{
glyphname = oacute;
lastChange = "2013-03-13 10:38:35 +0200";
layers = (
{
layerId = UUID0;
name = "Regular Italic";
paths = (
{
closed = 1;
nodes = (
"290 1115 OFFCURVE",
"117 915 OFFCURVE",
"38 545 CURVE SMOOTH",
"-38 186 OFFCURVE",
"54 -20 OFFCURVE",
"280 -20 CURVE SMOOTH",
"513 -20 OFFCURVE",
"690 184 OFFCURVE",
"768 549 CURVE SMOOTH",
"843 903 OFFCURVE",
"749 1115 OFFCURVE",
"525 1115 CURVE SMOOTH"
);
},
{
closed = 1;
nodes = (
"635 980 OFFCURVE",
"672 836 OFFCURVE",
"611 549 CURVE SMOOTH",
"549 259 OFFCURVE",
"450 115 OFFCURVE",
"311 115 CURVE SMOOTH",
"167 115 OFFCURVE",
"134 263 OFFCURVE",
"195 549 CURVE SMOOTH",
"256 836 OFFCURVE",
"348 980 OFFCURVE",
"495 980 CURVE SMOOTH"
);
},
{
closed = 1;
nodes = (
"703 1569 LINE",
"646 1483 OFFCURVE",
"544 1357 OFFCURVE",
"453 1263 CURVE",
"448 1241 LINE",
"541 1241 LINE",
"654 1320 OFFCURVE",
"831 1475 OFFCURVE",
"887 1550 CURVE",
"891 1569 LINE"
);
}
);
width = 903;
}
);
unicode = 00F3;
},
{
glyphname = ocircumflex;
lastChange = "2013-03-13 10:38:35 +0200";
layers = (
{
layerId = UUID0;
name = "Regular Italic";
paths = (
{
closed = 1;
nodes = (
"290 1115 OFFCURVE",
"117 915 OFFCURVE",
"38 545 CURVE SMOOTH",
"-38 186 OFFCURVE",
"54 -20 OFFCURVE",
"280 -20 CURVE SMOOTH",
"513 -20 OFFCURVE",
"690 184 OFFCURVE",
"768 549 CURVE SMOOTH",
"843 903 OFFCURVE",
"749 1115 OFFCURVE",
"525 1115 CURVE SMOOTH"
);
},
{
closed = 1;
nodes = (
"635 980 OFFCURVE",
"672 836 OFFCURVE",
"611 549 CURVE SMOOTH",
"549 259 OFFCURVE",
"450 115 OFFCURVE",
"311 115 CURVE SMOOTH",
"167 115 OFFCURVE",
"134 263 OFFCURVE",
"195 549 CURVE SMOOTH",
"256 836 OFFCURVE",
"348 980 OFFCURVE",
"495 980 CURVE SMOOTH"
);
},
{
closed = 1;
nodes = (
"544 1569 LINE",
"489 1488 OFFCURVE",
"401 1386 OFFCURVE",
"282 1262 CURVE",
"277 1241 LINE",
"362 1241 LINE",
"431 1293 OFFCURVE",
"516 1370 OFFCURVE",
"595 1442 CURVE",
"663 1341 LINE SMOOTH",
"693 1297 OFFCURVE",
"719 1264 OFFCURVE",
"741 1241 CURVE",
"827 1241 LINE",
"832 1262 LINE",
"769 1373 OFFCURVE",
"713 1503 OFFCURVE",
"699 1569 CURVE"
);
}
);
width = 903;
}
);
unicode = 00F4;
},
{
glyphname = odieresis;
lastChange = "2013-03-13 10:38:35 +0200";
layers = (
{
layerId = UUID0;
name = "Regular Italic";
paths = (
{
closed = 1;
nodes = (
"299 1115 OFFCURVE",
"125 915 OFFCURVE",
"47 545 CURVE SMOOTH",
"-30 186 OFFCURVE",
"63 -20 OFFCURVE",
"289 -20 CURVE SMOOTH",
"522 -20 OFFCURVE",
"699 184 OFFCURVE",
"776 549 CURVE SMOOTH",
"852 903 OFFCURVE",
"758 1115 OFFCURVE",
"534 1115 CURVE SMOOTH"
);
},
{
closed = 1;
nodes = (
"643 980 OFFCURVE",
"680 836 OFFCURVE",
"619 549 CURVE SMOOTH",
"558 259 OFFCURVE",
"458 115 OFFCURVE",
"319 115 CURVE SMOOTH",
"175 115 OFFCURVE",
"143 263 OFFCURVE",
"203 549 CURVE SMOOTH",
"264 836 OFFCURVE",
"356 980 OFFCURVE",
"503 980 CURVE SMOOTH"
);
},
{
closed = 1;
nodes = (
"396 1490 OFFCURVE",
"353 1459 OFFCURVE",
"339 1394 CURVE SMOOTH",
"325 1328 OFFCURVE",
"355 1295 OFFCURVE",
"404 1295 CURVE SMOOTH",
"453 1295 OFFCURVE",
"496 1329 OFFCURVE",
"510 1394 CURVE SMOOTH",
"523 1457 OFFCURVE",
"494 1490 OFFCURVE",
"445 1490 CURVE SMOOTH"
);
},
{
closed = 1;
nodes = (
"732 1490 OFFCURVE",
"689 1458 OFFCURVE",
"675 1394 CURVE SMOOTH",
"661 1329 OFFCURVE",
"691 1295 OFFCURVE",
"739 1295 CURVE SMOOTH",
"789 1295 OFFCURVE",
"832 1328 OFFCURVE",
"846 1394 CURVE SMOOTH",
"860 1459 OFFCURVE",
"829 1490 OFFCURVE",
"780 1490 CURVE SMOOTH"
);
}
);
width = 903;
}
);
unicode = 00F6;
},
{
glyphname = ograve;
lastChange = "2013-03-13 10:38:35 +0200";
layers = (
{
layerId = UUID0;
name = "Regular Italic";
paths = (
{
closed = 1;
nodes = (
"290 1115 OFFCURVE",
"117 915 OFFCURVE",
"38 545 CURVE SMOOTH",
"-38 186 OFFCURVE",
"54 -20 OFFCURVE",
"280 -20 CURVE SMOOTH",
"513 -20 OFFCURVE",
"690 184 OFFCURVE",
"768 549 CURVE SMOOTH",
"843 903 OFFCURVE",
"749 1115 OFFCURVE",
"525 1115 CURVE SMOOTH"
);
},
{
closed = 1;
nodes = (
"635 980 OFFCURVE",
"672 836 OFFCURVE",
"611 549 CURVE SMOOTH",
"549 259 OFFCURVE",
"450 115 OFFCURVE",
"311 115 CURVE SMOOTH",
"167 115 OFFCURVE",
"134 263 OFFCURVE",
"195 549 CURVE SMOOTH",
"256 836 OFFCURVE",
"348 980 OFFCURVE",
"495 980 CURVE SMOOTH"
);
},
{
closed = 1;
nodes = (
"359 1569 LINE",
"355 1551 LINE",
"368 1510 OFFCURVE",
"398 1457 OFFCURVE",
"443 1393 CURVE SMOOTH",
"490 1329 OFFCURVE",
"532 1278 OFFCURVE",
"569 1241 CURVE",
"663 1241 LINE",
"668 1264 LINE",
"645 1304 OFFCURVE",
"620 1355 OFFCURVE",
"596 1416 CURVE SMOOTH",
"573 1476 OFFCURVE",
"557 1528 OFFCURVE",
"548 1569 CURVE"
);
}
);
width = 903;
}
);
unicode = 00F2;
},
{
glyphname = oslash;
lastChange = "2013-03-13 10:38:35 +0200";
layers = (
{
layerId = UUID0;
name = "Regular Italic";
paths = (
{
closed = 1;
nodes = (
"752 1044 LINE",
"709 1091 OFFCURVE",
"650 1115 OFFCURVE",
"577 1115 CURVE SMOOTH",
"339 1115 OFFCURVE",
"168 913 OFFCURVE",
"91 549 CURVE SMOOTH",
"52 365 OFFCURVE",
"56 223 OFFCURVE",
"99 126 CURVE",
"52 59 OFFCURVE",
"4 -7 OFFCURVE",
"-45 -74 CURVE",
"48 -127 LINE",
"88 -72 OFFCURVE",
"127 -16 OFFCURVE",
"166 38 CURVE",
"205 0 OFFCURVE",
"261 -20 OFFCURVE",
"332 -20 CURVE SMOOTH",
"567 -20 OFFCURVE",
"742 184 OFFCURVE",
"820 549 CURVE SMOOTH",
"856 719 OFFCURVE",
"854 852 OFFCURVE",
"816 951 CURVE",
"948 1138 LINE",
"918 1155 OFFCURVE",
"886 1172 OFFCURVE",
"856 1190 CURVE"
);
},
{
closed = 1;
nodes = (
"694 719 OFFCURVE",
"685 642 OFFCURVE",
"667 549 CURVE SMOOTH",
"606 264 OFFCURVE",
"502 115 OFFCURVE",
"362 115 CURVE SMOOTH",
"312 115 OFFCURVE",
"277 131 OFFCURVE",
"256 164 CURVE",
"692 778 LINE"
);
},
{
closed = 1;
nodes = (
"599 980 OFFCURVE",
"638 958 OFFCURVE",
"661 917 CURVE",
"513 708 OFFCURVE",
"364 500 OFFCURVE",
"215 292 CURVE",
"215 359 OFFCURVE",
"221 441 OFFCURVE",
"244 549 CURVE SMOOTH",
"305 835 OFFCURVE",
"399 980 OFFCURVE",
"546 980 CURVE SMOOTH"
);
}
);
width = 903;
}
);
unicode = 00F8;
},
{
glyphname = otilde;
lastChange = "2013-03-13 10:38:35 +0200";
layers = (
{
layerId = UUID0;
name = "Regular Italic";
paths = (
{
closed = 1;
nodes = (
"300 1115 OFFCURVE",
"126 915 OFFCURVE",
"47 545 CURVE SMOOTH",
"-29 186 OFFCURVE",
"63 -20 OFFCURVE",
"289 -20 CURVE SMOOTH",
"522 -20 OFFCURVE",
"700 184 OFFCURVE",
"777 549 CURVE SMOOTH",
"852 903 OFFCURVE",
"759 1115 OFFCURVE",
"535 1115 CURVE SMOOTH"
);
},
{
closed = 1;
nodes = (
"644 980 OFFCURVE",
"681 836 OFFCURVE",
"620 549 CURVE SMOOTH",
"559 259 OFFCURVE",
"459 115 OFFCURVE",
"320 115 CURVE SMOOTH",
"176 115 OFFCURVE",
"143 263 OFFCURVE",
"204 549 CURVE SMOOTH",
"265 836 OFFCURVE",
"357 980 OFFCURVE",
"504 980 CURVE SMOOTH"
);
},
{
closed = 1;
nodes = (
"822 1483 LINE",
"793 1407 OFFCURVE",
"764 1361 OFFCURVE",
"718 1361 CURVE SMOOTH",
"647 1361 OFFCURVE",
"596 1481 OFFCURVE",
"495 1481 CURVE SMOOTH",
"390 1481 OFFCURVE",
"310 1394 OFFCURVE",
"261 1240 CURVE",
"357 1240 LINE",
"386 1319 OFFCURVE",
"423 1363 OFFCURVE",
"465 1363 CURVE SMOOTH",
"532 1363 OFFCURVE",
"585 1242 OFFCURVE",
"687 1242 CURVE SMOOTH",
"787 1242 OFFCURVE",
"871 1326 OFFCURVE",
"918 1483 CURVE"
);
}
);
width = 903;
}
);
unicode = 00F5;
},
{
glyphname = oe;
lastChange = "2013-03-13 10:38:35 +0200";
layers = (
{
layerId = UUID0;
name = "Regular Italic";
paths = (
{
closed = 1;
nodes = (
"1005 1115 OFFCURVE",
"899 1049 OFFCURVE",
"812 917 CURVE",
"778 1049 OFFCURVE",
"698 1115 OFFCURVE",
"574 1115 CURVE SMOOTH",
"332 1115 OFFCURVE",
"166 917 OFFCURVE",
"86 545 CURVE SMOOTH",
"10 186 OFFCURVE",
"102 -20 OFFCURVE",
"328 -20 CURVE SMOOTH",
"458 -20 OFFCURVE",
"570 47 OFFCURVE",
"659 181 CURVE",
"696 47 OFFCURVE",
"784 -20 OFFCURVE",
"925 -20 CURVE SMOOTH",
"1015 -20 OFFCURVE",
"1103 3 OFFCURVE",
"1188 48 CURVE",
"1216 180 LINE",
"1127 133 OFFCURVE",
"1047 110 OFFCURVE",
"975 110 CURVE SMOOTH",
"811 110 OFFCURVE",
"752 242 OFFCURVE",
"807 525 CURVE",
"1327 525 LINE",
"1350 631 LINE SMOOTH",
"1413 929 OFFCURVE",
"1329 1115 OFFCURVE",
"1130 1115 CURVE SMOOTH"
);
},
{
closed = 1;
nodes = (
"682 980 OFFCURVE",
"719 836 OFFCURVE",
"658 549 CURVE SMOOTH",
"655 532 LINE SMOOTH",
"595 252 OFFCURVE",
"496 112 OFFCURVE",
"358 112 CURVE SMOOTH",
"217 112 OFFCURVE",
"182 259 OFFCURVE",
"243 549 CURVE SMOOTH",
"304 836 OFFCURVE",
"396 980 OFFCURVE",
"543 980 CURVE SMOOTH"
);
},
{
closed = 1;
nodes = (
"1209 988 OFFCURVE",
"1249 856 OFFCURVE",
"1204 646 CURVE",
"836 646 LINE",
"896 875 OFFCURVE",
"985 988 OFFCURVE",
"1098 988 CURVE SMOOTH"
);
}
);
width = 1418;
}
);
unicode = 0153;
},
{
glyphname = p;
lastChange = "2013-03-13 10:38:35 +0200";
layers = (
{
layerId = UUID0;
name = "Regular Italic";
paths = (
{
closed = 1;
nodes = (
"600 1112 OFFCURVE",
"503 1063 OFFCURVE",
"421 946 CURVE",
"411 946 LINE",
"421 1094 LINE",
"301 1094 LINE",
"-36 -492 LINE",
"116 -492 LINE",
"222 8 LINE",
"228 41 OFFCURVE",
"233 85 OFFCURVE",
"240 142 CURVE",
"251 142 LINE",
"281 36 OFFCURVE",
"357 -20 OFFCURVE",
"462 -20 CURVE SMOOTH",
"664 -20 OFFCURVE",
"820 189 OFFCURVE",
"897 549 CURVE SMOOTH",
"973 907 OFFCURVE",
"909 1112 OFFCURVE",
"706 1112 CURVE SMOOTH"
);
},
{
closed = 1;
nodes = (
"776 980 OFFCURVE",
"802 837 OFFCURVE",
"741 550 CURVE SMOOTH",
"678 253 OFFCURVE",
"584 113 OFFCURVE",
"453 113 CURVE SMOOTH",
"310 113 OFFCURVE",
"272 250 OFFCURVE",
"337 554 CURVE SMOOTH",
"344 586 LINE SMOOTH",
"403 860 OFFCURVE",
"493 980 OFFCURVE",
"634 980 CURVE SMOOTH"
);
}
);
width = 934;
}
);
unicode = 0070;
},
{
glyphname = thorn;
lastChange = "2013-03-13 10:38:35 +0200";
layers = (
{
layerId = UUID0;
name = "Regular Italic";
paths = (
{
closed = 1;
nodes = (
"352 1556 LINE",
"-84 -492 LINE",
"71 -492 LINE",
"178 8 LINE",
"193 142 LINE",
"202 142 LINE",
"231 37 OFFCURVE",
"308 -20 OFFCURVE",
"414 -20 CURVE SMOOTH",
"613 -20 OFFCURVE",
"773 189 OFFCURVE",
"850 549 CURVE SMOOTH",
"929 923 OFFCURVE",
"855 1115 OFFCURVE",
"650 1115 CURVE SMOOTH",
"550 1115 OFFCURVE",
"454 1060 OFFCURVE",
"373 946 CURVE",
"366 946 LINE",
"383 1010 OFFCURVE",
"396 1060 OFFCURVE",
"405 1095 CURVE SMOOTH",
"503 1556 LINE"
);
},
{
closed = 1;
nodes = (
"726 980 OFFCURVE",
"755 846 OFFCURVE",
"692 550 CURVE SMOOTH",
"626 242 OFFCURVE",
"533 113 OFFCURVE",
"406 113 CURVE SMOOTH",
"263 113 OFFCURVE",
"225 250 OFFCURVE",
"290 554 CURVE SMOOTH",
"296 586 LINE SMOOTH",
"356 860 OFFCURVE",
"446 980 OFFCURVE",
"587 980 CURVE SMOOTH"
);
}
);
width = 934;
}
);
unicode = 00FE;
},
{
glyphname = q;
lastChange = "2013-03-13 10:38:35 +0200";
layers = (
{
layerId = UUID0;
name = "Regular Italic";
paths = (
{
closed = 1;
nodes = (
"375 1111 OFFCURVE",
"216 918 OFFCURVE",
"137 545 CURVE SMOOTH",
"58 172 OFFCURVE",
"132 -20 OFFCURVE",
"336 -20 CURVE SMOOTH",
"441 -20 OFFCURVE",
"534 36 OFFCURVE",
"616 153 CURVE",
"625 153 LINE",
"601 73 OFFCURVE",
"585 15 OFFCURVE",
"577 -23 CURVE SMOOTH",
"478 -492 LINE",
"629 -492 LINE",
"966 1094 LINE",
"841 1094 LINE",
"824 1046 OFFCURVE",
"807 998 OFFCURVE",
"791 950 CURVE",
"781 950 LINE",
"747 1065 OFFCURVE",
"677 1111 OFFCURVE",
"570 1111 CURVE SMOOTH"
);
},
{
closed = 1;
nodes = (
"723 979 OFFCURVE",
"761 845 OFFCURVE",
"697 544 CURVE SMOOTH",
"687 499 LINE SMOOTH",
"633 242 OFFCURVE",
"533 111 OFFCURVE",
"400 111 CURVE SMOOTH",
"263 111 OFFCURVE",
"230 242 OFFCURVE",
"293 542 CURVE SMOOTH",
"354 827 OFFCURVE",
"443 979 OFFCURVE",
"578 979 CURVE SMOOTH"
);
}
);
width = 934;
}
);
unicode = 0071;
},
{
glyphname = r;
lastChange = "2013-03-13 10:38:35 +0200";
layers = (
{
layerId = UUID0;
name = "Regular Italic";
paths = (
{
closed = 1;
nodes = (
"523 1116 OFFCURVE",
"442 1051 OFFCURVE",
"358 910 CURVE",
"351 910 LINE",
"373 1095 LINE",
"248 1095 LINE",
"15 0 LINE",
"167 0 LINE",
"289 574 LINE SMOOTH",
"338 802 OFFCURVE",
"460 966 OFFCURVE",
"576 966 CURVE SMOOTH",
"603 966 OFFCURVE",
"626 961 OFFCURVE",
"647 952 CURVE",
"703 1101 LINE",
"677 1111 OFFCURVE",
"646 1116 OFFCURVE",
"612 1116 CURVE SMOOTH"
);
}
);
width = 602;
}
);
unicode = 0072;
},
{
glyphname = s;
lastChange = "2013-03-13 10:38:35 +0200";
layers = (
{
layerId = UUID0;
name = "Regular Italic";
paths = (
{
closed = 1;
nodes = (
"407 1116 OFFCURVE",
"327 1089 OFFCURVE",
"259 1037 CURVE SMOOTH",
"191 984 OFFCURVE",
"148 917 OFFCURVE",
"131 833 CURVE SMOOTH",
"107 720 OFFCURVE",
"133 642 OFFCURVE",
"206 573 CURVE SMOOTH",
"238 542 OFFCURVE",
"278 507 OFFCURVE",
"327 467 CURVE SMOOTH",
"389 414 OFFCURVE",
"438 377 OFFCURVE",
"415 271 CURVE SMOOTH",
"397 188 OFFCURVE",
"326 117 OFFCURVE",
"213 117 CURVE SMOOTH",
"130 117 OFFCURVE",
"31 152 OFFCURVE",
"-5 193 CURVE",
"-38 42 LINE",
"6 7 OFFCURVE",
"82 -20 OFFCURVE",
"184 -20 CURVE SMOOTH",
"387 -20 OFFCURVE",
"517 77 OFFCURVE",
"558 271 CURVE SMOOTH",
"594 439 OFFCURVE",
"521 514 OFFCURVE",
"421 603 CURVE SMOOTH",
"311 700 LINE SMOOTH",
"266 741 OFFCURVE",
"271 792 OFFCURVE",
"280 834 CURVE SMOOTH",
"299 924 OFFCURVE",
"372 986 OFFCURVE",
"469 986 CURVE SMOOTH",
"528 986 OFFCURVE",
"584 967 OFFCURVE",
"636 930 CURVE",
"723 1048 LINE",
"664 1093 OFFCURVE",
"590 1116 OFFCURVE",
"499 1116 CURVE SMOOTH"
);
}
);
width = 685;
}
);
unicode = 0073;
},
{
glyphname = scaron;
lastChange = "2013-03-13 10:38:35 +0200";
layers = (
{
layerId = UUID0;
name = "Regular Italic";
paths = (
{
closed = 1;
nodes = (
"359 1116 OFFCURVE",
"279 1089 OFFCURVE",
"211 1037 CURVE SMOOTH",
"143 984 OFFCURVE",
"100 917 OFFCURVE",
"82 833 CURVE SMOOTH",
"58 720 OFFCURVE",
"85 642 OFFCURVE",
"158 573 CURVE SMOOTH",
"190 542 OFFCURVE",
"230 507 OFFCURVE",
"279 467 CURVE SMOOTH",
"340 414 OFFCURVE",
"390 377 OFFCURVE",
"367 271 CURVE SMOOTH",
"349 188 OFFCURVE",
"278 117 OFFCURVE",
"165 117 CURVE SMOOTH",
"82 117 OFFCURVE",
"-17 152 OFFCURVE",
"-54 193 CURVE",
"-86 42 LINE",
"-42 7 OFFCURVE",
"34 -20 OFFCURVE",
"136 -20 CURVE SMOOTH",
"339 -20 OFFCURVE",
"469 77 OFFCURVE",
"510 271 CURVE SMOOTH",
"546 439 OFFCURVE",
"473 514 OFFCURVE",
"373 603 CURVE SMOOTH",
"263 700 LINE SMOOTH",
"218 741 OFFCURVE",
"223 792 OFFCURVE",
"232 834 CURVE SMOOTH",
"251 924 OFFCURVE",
"324 986 OFFCURVE",
"421 986 CURVE SMOOTH",
"480 986 OFFCURVE",
"536 967 OFFCURVE",
"588 930 CURVE",
"675 1048 LINE",
"616 1093 OFFCURVE",
"542 1116 OFFCURVE",
"451 1116 CURVE SMOOTH"
);
},
{
closed = 1;
nodes = (
"710 1569 LINE",
"667 1539 OFFCURVE",
"584 1468 OFFCURVE",
"480 1367 CURVE",
"430 1441 OFFCURVE",
"378 1518 OFFCURVE",
"331 1569 CURVE",
"246 1569 LINE",
"241 1547 LINE",
"306 1427 OFFCURVE",
"349 1325 OFFCURVE",
"373 1241 CURVE",
"528 1241 LINE",
"572 1304 OFFCURVE",
"685 1439 OFFCURVE",
"791 1547 CURVE",
"796 1569 LINE"
);
}
);
width = 685;
}
);
unicode = 0161;
},
{
glyphname = germandbls;
lastChange = "2013-03-13 10:38:35 +0200";
layers = (
{
layerId = UUID0;
name = "Regular Italic";
paths = (
{
closed = 1;
nodes = (
"436 1567 OFFCURVE",
"291 1441 OFFCURVE",
"232 1222 CURVE SMOOTH",
"223 1189 OFFCURVE",
"215 1154 OFFCURVE",
"207 1119 CURVE SMOOTH",
"-30 0 LINE",
"121 0 LINE",
"374 1190 LINE SMOOTH",
"407 1349 OFFCURVE",
"485 1433 OFFCURVE",
"597 1433 CURVE SMOOTH",
"695 1433 OFFCURVE",
"733 1374 OFFCURVE",
"709 1262 CURVE SMOOTH",
"694 1190 OFFCURVE",
"657 1136 OFFCURVE",
"590 1065 CURVE",
"491 983 OFFCURVE",
"448 916 OFFCURVE",
"432 841 CURVE SMOOTH",
"411 741 OFFCURVE",
"434 662 OFFCURVE",
"519 549 CURVE SMOOTH",
"609 430 OFFCURVE",
"616 380 OFFCURVE",
"599 299 CURVE SMOOTH",
"574 179 OFFCURVE",
"501 110 OFFCURVE",
"398 110 CURVE SMOOTH",
"324 110 OFFCURVE",
"277 138 OFFCURVE",
"234 174 CURVE",
"204 33 LINE",
"243 -4 OFFCURVE",
"316 -20 OFFCURVE",
"385 -20 CURVE SMOOTH",
"573 -20 OFFCURVE",
"712 103 OFFCURVE",
"756 310 CURVE",
"782 434 OFFCURVE",
"755 519 OFFCURVE",
"678 616 CURVE SMOOTH",
"640 662 LINE",
"575 759 OFFCURVE",
"571 791 OFFCURVE",
"584 853 CURVE SMOOTH",
"594 899 OFFCURVE",
"633 947 OFFCURVE",
"706 1019 CURVE",
"717 1028 LINE",
"798 1106 OFFCURVE",
"847 1188 OFFCURVE",
"866 1275 CURVE SMOOTH",
"904 1456 OFFCURVE",
"819 1567 OFFCURVE",
"631 1567 CURVE SMOOTH"
);
}
);
width = 917;
}
);
unicode = 00DF;
},
{
glyphname = t;
lastChange = "2013-03-13 10:38:35 +0200";
layers = (
{
layerId = UUID0;
name = "Regular Italic";
paths = (
{
closed = 1;
nodes = (
"338 1346 LINE",
"241 1095 LINE",
"120 1045 LINE",
"104 968 LINE",
"206 968 LINE",
"74 348 LINE SMOOTH",
"22 103 OFFCURVE",
"42 -20 OFFCURVE",
"202 -20 CURVE SMOOTH",
"262 -20 OFFCURVE",
"311 -10 OFFCURVE",
"348 8 CURVE",
"374 130 LINE",
"342 118 OFFCURVE",
"310 113 OFFCURVE",
"278 113 CURVE SMOOTH",
"202 113 OFFCURVE",
"186 160 OFFCURVE",
"211 277 CURVE SMOOTH",
"358 968 LINE",
"540 968 LINE",
"567 1094 LINE",
"385 1094 LINE",
"438 1346 LINE"
);
}
);
width = 520;
}
);
unicode = 0074;
},
{
glyphname = u;
lastChange = "2013-03-13 10:38:35 +0200";
layers = (
{
layerId = UUID0;
name = "Regular Italic";
paths = (
{
closed = 1;
nodes = (
"758 1094 LINE",
"636 519 LINE SMOOTH",
"575 231 OFFCURVE",
"481 113 OFFCURVE",
"336 113 CURVE SMOOTH",
"235 113 OFFCURVE",
"209 203 OFFCURVE",
"251 401 CURVE SMOOTH",
"398 1094 LINE",
"246 1094 LINE",
"95 380 LINE SMOOTH",
"35 101 OFFCURVE",
"98 -20 OFFCURVE",
"279 -20 CURVE SMOOTH",
"382 -20 OFFCURVE",
"486 41 OFFCURVE",
"557 149 CURVE",
"567 149 LINE",
"562 99 OFFCURVE",
"557 50 OFFCURVE",
"554 0 CURVE",
"677 0 LINE",
"909 1094 LINE"
);
}
);
width = 925;
}
);
unicode = 0075;
},
{
glyphname = uacute;
lastChange = "2013-03-13 10:38:35 +0200";
layers = (
{
layerId = UUID0;
name = "Regular Italic";
paths = (
{
closed = 1;
nodes = (
"708 1094 LINE",
"586 519 LINE SMOOTH",
"524 231 OFFCURVE",
"430 113 OFFCURVE",
"285 113 CURVE SMOOTH",
"184 113 OFFCURVE",
"159 203 OFFCURVE",
"201 401 CURVE SMOOTH",
"348 1094 LINE",
"196 1094 LINE",
"44 380 LINE SMOOTH",
"-15 101 OFFCURVE",
"47 -20 OFFCURVE",
"228 -20 CURVE SMOOTH",
"331 -20 OFFCURVE",
"435 41 OFFCURVE",
"506 149 CURVE",
"516 149 LINE",
"511 99 OFFCURVE",
"507 50 OFFCURVE",
"503 0 CURVE",
"626 0 LINE",
"859 1094 LINE"
);
},
{
closed = 1;
nodes = (
"715 1569 LINE",
"658 1483 OFFCURVE",
"556 1357 OFFCURVE",
"465 1263 CURVE",
"460 1241 LINE",
"553 1241 LINE",
"666 1320 OFFCURVE",
"843 1475 OFFCURVE",
"899 1550 CURVE",
"903 1569 LINE"
);
}
);
width = 925;
}
);
unicode = 00FA;
},
{
glyphname = ucircumflex;
lastChange = "2013-03-13 10:38:35 +0200";
layers = (
{
layerId = UUID0;
name = "Regular Italic";
paths = (
{
closed = 1;
nodes = (
"708 1094 LINE",
"586 519 LINE SMOOTH",
"524 231 OFFCURVE",
"430 113 OFFCURVE",
"285 113 CURVE SMOOTH",
"184 113 OFFCURVE",
"159 203 OFFCURVE",
"201 401 CURVE SMOOTH",
"348 1094 LINE",
"196 1094 LINE",
"44 380 LINE SMOOTH",
"-15 101 OFFCURVE",
"47 -20 OFFCURVE",
"228 -20 CURVE SMOOTH",
"331 -20 OFFCURVE",
"435 41 OFFCURVE",
"506 149 CURVE",
"516 149 LINE",
"511 99 OFFCURVE",
"507 50 OFFCURVE",
"503 0 CURVE",
"626 0 LINE",
"859 1094 LINE"
);
},
{
closed = 1;
nodes = (
"547 1569 LINE",
"492 1488 OFFCURVE",
"404 1386 OFFCURVE",
"285 1262 CURVE",
"280 1241 LINE",
"365 1241 LINE",
"434 1293 OFFCURVE",
"519 1370 OFFCURVE",
"598 1442 CURVE",
"666 1341 LINE SMOOTH",
"696 1297 OFFCURVE",
"722 1264 OFFCURVE",
"744 1241 CURVE",
"830 1241 LINE",
"835 1262 LINE",
"772 1373 OFFCURVE",
"716 1503 OFFCURVE",
"702 1569 CURVE"
);
}
);
width = 925;
}
);
unicode = 00FB;
},
{
glyphname = udieresis;
lastChange = "2013-03-13 10:38:35 +0200";
layers = (
{
layerId = UUID0;
name = "Regular Italic";
paths = (
{
closed = 1;
nodes = (
"716 1094 LINE",
"594 519 LINE SMOOTH",
"533 231 OFFCURVE",
"439 113 OFFCURVE",
"294 113 CURVE SMOOTH",
"193 113 OFFCURVE",
"167 203 OFFCURVE",
"209 401 CURVE SMOOTH",
"356 1094 LINE",
"204 1094 LINE",
"53 380 LINE SMOOTH",
"-7 101 OFFCURVE",
"56 -20 OFFCURVE",
"237 -20 CURVE SMOOTH",
"340 -20 OFFCURVE",
"443 41 OFFCURVE",
"514 149 CURVE",
"524 149 LINE",
"520 99 OFFCURVE",
"515 50 OFFCURVE",
"512 0 CURVE",
"635 0 LINE",
"867 1094 LINE"
);
},
{
closed = 1;
nodes = (
"405 1490 OFFCURVE",
"362 1459 OFFCURVE",
"348 1394 CURVE SMOOTH",
"334 1328 OFFCURVE",
"364 1295 OFFCURVE",
"413 1295 CURVE SMOOTH",
"462 1295 OFFCURVE",
"505 1329 OFFCURVE",
"519 1394 CURVE SMOOTH",
"532 1457 OFFCURVE",
"503 1490 OFFCURVE",
"454 1490 CURVE SMOOTH"
);
},
{
closed = 1;
nodes = (
"741 1490 OFFCURVE",
"698 1458 OFFCURVE",
"684 1394 CURVE SMOOTH",
"670 1329 OFFCURVE",
"700 1295 OFFCURVE",
"748 1295 CURVE SMOOTH",
"798 1295 OFFCURVE",
"841 1328 OFFCURVE",
"855 1394 CURVE SMOOTH",
"869 1459 OFFCURVE",
"838 1490 OFFCURVE",
"789 1490 CURVE SMOOTH"
);
}
);
width = 925;
}
);
unicode = 00FC;
},
{
glyphname = ugrave;
lastChange = "2013-03-13 10:38:35 +0200";
layers = (
{
layerId = UUID0;
name = "Regular Italic";
paths = (
{
closed = 1;
nodes = (
"708 1094 LINE",
"586 519 LINE SMOOTH",
"524 231 OFFCURVE",
"430 113 OFFCURVE",
"285 113 CURVE SMOOTH",
"184 113 OFFCURVE",
"159 203 OFFCURVE",
"201 401 CURVE SMOOTH",
"348 1094 LINE",
"196 1094 LINE",
"44 380 LINE SMOOTH",
"-15 101 OFFCURVE",
"47 -20 OFFCURVE",
"228 -20 CURVE SMOOTH",
"331 -20 OFFCURVE",
"435 41 OFFCURVE",
"506 149 CURVE",
"516 149 LINE",
"511 99 OFFCURVE",
"507 50 OFFCURVE",
"503 0 CURVE",
"626 0 LINE",
"859 1094 LINE"
);
},
{
closed = 1;
nodes = (
"353 1569 LINE",
"349 1551 LINE",
"362 1510 OFFCURVE",
"392 1457 OFFCURVE",
"437 1393 CURVE SMOOTH",
"484 1329 OFFCURVE",
"526 1278 OFFCURVE",
"563 1241 CURVE",
"657 1241 LINE",
"662 1264 LINE",
"639 1304 OFFCURVE",
"614 1355 OFFCURVE",
"590 1416 CURVE SMOOTH",
"567 1476 OFFCURVE",
"551 1528 OFFCURVE",
"542 1569 CURVE"
);
}
);
width = 925;
}
);
unicode = 00F9;
},
{
glyphname = v;
lastChange = "2013-03-13 10:38:35 +0200";
layers = (
{
layerId = UUID0;
name = "Regular Italic";
paths = (
{
closed = 1;
nodes = (
"692 1094 LINE",
"423 486 OFFCURVE",
"350 316 OFFCURVE",
"327 258 CURVE SMOOTH",
"310 217 OFFCURVE",
"298 182 OFFCURVE",
"288 152 CURVE",
"281 152 LINE",
"297 516 OFFCURVE",
"282 783 OFFCURVE",
"278 1094 CURVE",
"122 1094 LINE",
"158 0 LINE",
"342 0 LINE",
"848 1094 LINE"
);
}
);
width = 739;
}
);
unicode = 0076;
},
{
glyphname = w;
lastChange = "2013-03-13 10:38:35 +0200";
layers = (
{
layerId = UUID0;
name = "Regular Italic";
paths = (
{
closed = 1;
nodes = (
"1188 1094 LINE",
"959 543 OFFCURVE",
"827 218 OFFCURVE",
"807 148 CURVE",
"801 148 LINE",
"814 308 OFFCURVE",
"821 415 OFFCURVE",
"820 468 CURVE SMOOTH",
"826 1094 LINE",
"646 1094 LINE",
"388 470 LINE SMOOTH",
"351 383 OFFCURVE",
"295 228 OFFCURVE",
"269 148 CURVE",
"263 148 LINE",
"287 505 OFFCURVE",
"283 778 OFFCURVE",
"287 1094 CURVE",
"136 1094 LINE",
"135 0 LINE",
"323 0 LINE",
"508 452 OFFCURVE",
"633 750 OFFCURVE",
"701 936 CURVE",
"704 936 LINE",
"699 873 OFFCURVE",
"696 810 OFFCURVE",
"693 747 CURVE SMOOTH",
"690 635 LINE",
"678 0 LINE",
"867 0 LINE",
"1023 364 OFFCURVE",
"1181 729 OFFCURVE",
"1336 1094 CURVE"
);
}
);
width = 1241;
}
);
unicode = 0077;
},
{
glyphname = x;
lastChange = "2013-03-13 10:38:35 +0200";
layers = (
{
layerId = UUID0;
name = "Regular Italic";
paths = (
{
closed = 1;
nodes = (
"665 1095 LINE",
"407 688 LINE",
"322 1095 LINE",
"162 1095 LINE",
"301 565 LINE",
"-88 0 LINE",
"69 0 LINE",
"346 432 LINE",
"443 0 LINE",
"602 0 LINE",
"453 557 LINE",
"822 1095 LINE"
);
}
);
width = 746;
}
);
unicode = 0078;
},
{
glyphname = y;
lastChange = "2013-03-13 10:38:35 +0200";
layers = (
{
layerId = UUID0;
name = "Regular Italic";
paths = (
{
closed = 1;
nodes = (
"744 1094 LINE",
"626 825 OFFCURVE",
"528 602 OFFCURVE",
"451 426 CURVE SMOOTH",
"412 333 OFFCURVE",
"378 243 OFFCURVE",
"351 171 CURVE",
"344 171 LINE",
"351 273 OFFCURVE",
"353 360 OFFCURVE",
"350 433 CURVE SMOOTH",
"331 1094 LINE",
"175 1094 LINE",
"232 -4 LINE",
"161 -153 LINE SMOOTH",
"99 -294 OFFCURVE",
"38 -357 OFFCURVE",
"-45 -357 CURVE SMOOTH",
"-73 -357 OFFCURVE",
"-100 -352 OFFCURVE",
"-125 -343 CURVE",
"-153 -475 LINE",
"-120 -486 OFFCURVE",
"-87 -492 OFFCURVE",
"-52 -492 CURVE SMOOTH",
"139 -492 OFFCURVE",
"240 -317 OFFCURVE",
"388 -6 CURVE SMOOTH",
"558 360 OFFCURVE",
"729 727 OFFCURVE",
"901 1094 CURVE"
);
}
);
width = 739;
}
);
unicode = 0079;
},
{
glyphname = yacute;
lastChange = "2013-03-13 10:38:35 +0200";
layers = (
{
layerId = UUID0;
name = "Regular Italic";
paths = (
{
closed = 1;
nodes = (
"693 1094 LINE",
"576 825 OFFCURVE",
"477 602 OFFCURVE",
"400 426 CURVE SMOOTH",
"361 333 OFFCURVE",
"327 243 OFFCURVE",
"301 171 CURVE",
"294 171 LINE",
"301 273 OFFCURVE",
"302 360 OFFCURVE",
"300 433 CURVE SMOOTH",
"280 1094 LINE",
"124 1094 LINE",
"182 -4 LINE",
"111 -153 LINE SMOOTH",
"48 -294 OFFCURVE",
"-12 -357 OFFCURVE",
"-95 -357 CURVE SMOOTH",
"-123 -357 OFFCURVE",
"-150 -352 OFFCURVE",
"-175 -343 CURVE",
"-203 -475 LINE",
"-171 -486 OFFCURVE",
"-137 -492 OFFCURVE",
"-102 -492 CURVE SMOOTH",
"89 -492 OFFCURVE",
"189 -317 OFFCURVE",
"337 -6 CURVE SMOOTH",
"507 360 OFFCURVE",
"678 727 OFFCURVE",
"850 1094 CURVE"
);
},
{
closed = 1;
nodes = (
"676 1569 LINE",
"619 1483 OFFCURVE",
"517 1357 OFFCURVE",
"426 1263 CURVE",
"421 1241 LINE",
"514 1241 LINE",
"627 1320 OFFCURVE",
"804 1475 OFFCURVE",
"860 1550 CURVE",
"864 1569 LINE"
);
}
);
width = 739;
}
);
unicode = 00FD;
},
{
glyphname = ydieresis;
lastChange = "2013-03-13 10:38:35 +0200";
layers = (
{
layerId = UUID0;
name = "Regular Italic";
paths = (
{
closed = 1;
nodes = (
"701 1094 LINE",
"584 825 OFFCURVE",
"486 602 OFFCURVE",
"408 426 CURVE SMOOTH",
"370 333 OFFCURVE",
"336 243 OFFCURVE",
"309 171 CURVE",
"302 171 LINE",
"309 273 OFFCURVE",
"310 360 OFFCURVE",
"308 433 CURVE SMOOTH",
"288 1094 LINE",
"132 1094 LINE",
"190 -4 LINE",
"119 -153 LINE SMOOTH",
"56 -294 OFFCURVE",
"-4 -357 OFFCURVE",
"-87 -357 CURVE SMOOTH",
"-115 -357 OFFCURVE",
"-142 -352 OFFCURVE",
"-167 -343 CURVE",
"-195 -475 LINE",
"-162 -486 OFFCURVE",
"-129 -492 OFFCURVE",
"-94 -492 CURVE SMOOTH",
"97 -492 OFFCURVE",
"198 -317 OFFCURVE",
"346 -6 CURVE SMOOTH",
"515 360 OFFCURVE",
"686 727 OFFCURVE",
"858 1094 CURVE"
);
},
{
closed = 1;
nodes = (
"367 1490 OFFCURVE",
"323 1459 OFFCURVE",
"309 1394 CURVE SMOOTH",
"295 1328 OFFCURVE",
"325 1295 OFFCURVE",
"374 1295 CURVE SMOOTH",
"423 1295 OFFCURVE",
"466 1329 OFFCURVE",
"480 1394 CURVE SMOOTH",
"494 1457 OFFCURVE",
"465 1490 OFFCURVE",
"416 1490 CURVE SMOOTH"
);
},
{
closed = 1;
nodes = (
"703 1490 OFFCURVE",
"659 1458 OFFCURVE",
"645 1394 CURVE SMOOTH",
"631 1329 OFFCURVE",
"661 1295 OFFCURVE",
"709 1295 CURVE SMOOTH",
"759 1295 OFFCURVE",
"802 1328 OFFCURVE",
"816 1394 CURVE SMOOTH",
"830 1459 OFFCURVE",
"800 1490 OFFCURVE",
"751 1490 CURVE SMOOTH"
);
}
);
width = 739;
}
);
unicode = 00FF;
},
{
glyphname = z;
lastChange = "2013-03-13 10:38:35 +0200";
layers = (
{
layerId = UUID0;
name = "Regular Italic";
paths = (
{
closed = 1;
nodes = (
"190 1095 LINE",
"163 967 LINE",
"469 967 LINE",
"-41 107 LINE",
"-63 0 LINE",
"443 0 LINE",
"470 127 LINE",
"132 127 LINE",
"636 981 LINE",
"660 1095 LINE"
);
}
);
width = 604;
}
);
unicode = 007A;
},
{
glyphname = zcaron;
lastChange = "2013-03-13 10:38:35 +0200";
layers = (
{
layerId = UUID0;
name = "Regular Italic";
paths = (
{
closed = 1;
nodes = (
"140 1095 LINE",
"113 967 LINE",
"419 967 LINE",
"-91 107 LINE",
"-114 0 LINE",
"392 0 LINE",
"419 127 LINE",
"81 127 LINE",
"586 981 LINE",
"610 1095 LINE"
);
},
{
closed = 1;
nodes = (
"669 1569 LINE",
"626 1539 OFFCURVE",
"543 1468 OFFCURVE",
"439 1367 CURVE",
"389 1441 OFFCURVE",
"337 1518 OFFCURVE",
"290 1569 CURVE",
"205 1569 LINE",
"200 1547 LINE",
"265 1427 OFFCURVE",
"308 1325 OFFCURVE",
"332 1241 CURVE",
"487 1241 LINE",
"530 1304 OFFCURVE",
"644 1439 OFFCURVE",
"750 1547 CURVE",
"755 1569 LINE"
);
}
);
width = 604;
}
);
unicode = 017E;
},
{
glyphname = uniFB01;
lastChange = "2013-03-13 10:38:35 +0200";
layers = (
{
layerId = UUID0;
name = "Regular Italic";
paths = (
{
closed = 1;
nodes = (
"396 1567 OFFCURVE",
"299 1447 OFFCURVE",
"243 1185 CURVE SMOOTH",
"226 1102 LINE",
"176 1084 OFFCURVE",
"127 1067 OFFCURVE",
"78 1048 CURVE",
"61 968 LINE",
"197 968 LINE",
"-9 0 LINE",
"141 0 LINE",
"347 968 LINE",
"522 968 LINE",
"549 1094 LINE",
"374 1094 LINE",
"393 1182 LINE SMOOTH",
"432 1369 OFFCURVE",
"474 1431 OFFCURVE",
"558 1434 CURVE",
"589 1434 OFFCURVE",
"620 1426 OFFCURVE",
"651 1409 CURVE",
"723 1535 LINE",
"681 1556 OFFCURVE",
"634 1567 OFFCURVE",
"578 1567 CURVE SMOOTH"
);
},
{
closed = 1;
nodes = (
"706 1095 LINE",
"473 0 LINE",
"625 0 LINE",
"858 1095 LINE"
);
},
{
closed = 1;
nodes = (
"816 1503 OFFCURVE",
"771 1462 OFFCURVE",
"756 1392 CURVE SMOOTH",
"742 1324 OFFCURVE",
"770 1282 OFFCURVE",
"825 1282 CURVE SMOOTH",
"877 1282 OFFCURVE",
"921 1324 OFFCURVE",
"935 1392 CURVE SMOOTH",
"950 1462 OFFCURVE",
"925 1503 OFFCURVE",
"872 1503 CURVE SMOOTH"
);
}
);
width = 927;
}
);
unicode = FB01;
},
{
glyphname = uniFB02;
lastChange = "2013-03-13 10:38:35 +0200";
layers = (
{
layerId = UUID0;
name = "Regular Italic";
paths = (
{
closed = 1;
nodes = (
"396 1567 OFFCURVE",
"299 1447 OFFCURVE",
"243 1185 CURVE SMOOTH",
"226 1102 LINE",
"176 1084 OFFCURVE",
"127 1067 OFFCURVE",
"78 1048 CURVE",
"61 968 LINE",
"197 968 LINE",
"-9 0 LINE",
"141 0 LINE",
"347 968 LINE",
"522 968 LINE",
"549 1094 LINE",
"374 1094 LINE",
"393 1182 LINE SMOOTH",
"432 1369 OFFCURVE",
"474 1431 OFFCURVE",
"558 1434 CURVE",
"589 1434 OFFCURVE",
"620 1426 OFFCURVE",
"651 1409 CURVE",
"723 1535 LINE",
"681 1556 OFFCURVE",
"634 1567 OFFCURVE",
"578 1567 CURVE SMOOTH"
);
},
{
closed = 1;
nodes = (
"803 1556 LINE",
"472 0 LINE",
"624 0 LINE",
"955 1556 LINE"
);
}
);
width = 925;
}
);
unicode = FB02;
},
{
glyphname = ordfeminine;
lastChange = "2013-03-13 10:38:35 +0200";
layers = (
{
layerId = UUID0;
name = "Regular Italic";
paths = (
{
closed = 1;
nodes = (
"312 1479 OFFCURVE",
"241 1460 OFFCURVE",
"169 1423 CURVE",
"176 1395 OFFCURVE",
"182 1366 OFFCURVE",
"188 1338 CURVE",
"248 1368 OFFCURVE",
"299 1383 OFFCURVE",
"341 1383 CURVE SMOOTH",
"415 1383 OFFCURVE",
"437 1343 OFFCURVE",
"418 1250 CURVE SMOOTH",
"407 1199 LINE",
"317 1193 LINE SMOOTH",
"140 1181 OFFCURVE",
"52 1111 OFFCURVE",
"25 985 CURVE SMOOTH",
"-1 859 OFFCURVE",
"52 789 OFFCURVE",
"151 789 CURVE SMOOTH",
"226 789 OFFCURVE",
"287 826 OFFCURVE",
"356 892 CURVE",
"356 861 OFFCURVE",
"356 831 OFFCURVE",
"355 801 CURVE",
"432 801 LINE",
"528 1253 LINE SMOOTH",
"560 1404 OFFCURVE",
"517 1479 OFFCURVE",
"380 1479 CURVE SMOOTH"
);
},
{
closed = 1;
nodes = (
"378 1063 LINE SMOOTH",
"354 949 OFFCURVE",
"288 882 OFFCURVE",
"202 882 CURVE SMOOTH",
"145 882 OFFCURVE",
"125 916 OFFCURVE",
"139 984 CURVE SMOOTH",
"157 1069 OFFCURVE",
"210 1101 OFFCURVE",
"323 1113 CURVE SMOOTH",
"390 1120 LINE"
);
}
);
width = 612;
}
);
unicode = 00AA;
},
{
glyphname = ordmasculine;
lastChange = "2013-03-13 10:38:35 +0200";
layers = (
{
layerId = UUID0;
name = "Regular Italic";
paths = (
{
closed = 1;
nodes = (
"233 1479 OFFCURVE",
"113 1352 OFFCURVE",
"67 1135 CURVE SMOOTH",
"20 915 OFFCURVE",
"82 789 OFFCURVE",
"248 789 CURVE SMOOTH",
"409 789 OFFCURVE",
"527 912 OFFCURVE",
"574 1135 CURVE SMOOTH",
"622 1359 OFFCURVE",
"551 1479 OFFCURVE",
"394 1479 CURVE SMOOTH"
);
},
{
closed = 1;
nodes = (
"467 1378 OFFCURVE",
"493 1305 OFFCURVE",
"457 1135 CURVE SMOOTH",
"421 964 OFFCURVE",
"366 889 OFFCURVE",
"268 889 CURVE SMOOTH",
"174 889 OFFCURVE",
"148 964 OFFCURVE",
"184 1135 CURVE SMOOTH",
"220 1304 OFFCURVE",
"285 1378 OFFCURVE",
"372 1378 CURVE SMOOTH"
);
}
);
width = 640;
}
);
unicode = 00BA;
},
{
glyphname = "alef-hb";
lastChange = "2013-03-13 10:38:35 +0200";
layers = (
{
anchors = (
{
name = bottom;
position = "{293, 0}";
},
{
name = bottomleft;
position = "{-117, 0}";
},
{
name = center;
position = "{239, 107}";
},
{
name = top;
position = "{511, 1024}";
},
{
name = topleft;
position = "{215, 1127}";
}
);
layerId = UUID0;
name = "Regular Italic";
paths = (
{
closed = 1;
nodes = (
"771 1290 LINE",
"680 861 LINE SMOOTH",
"648 711 OFFCURVE",
"611 623 OFFCURVE",
"522 572 CURVE",
"467 803 LINE",
"375 1290 LINE",
"205 1290 LINE",
"306 843 LINE",
"120 764 OFFCURVE",
"64 588 OFFCURVE",
"36 455 CURVE SMOOTH",
"-61 0 LINE",
"88 0 LINE",
"177 417 LINE SMOOTH",
"207 562 OFFCURVE",
"247 662 OFFCURVE",
"336 718 CURVE",
"479 0 LINE",
"650 0 LINE",
"618 149 OFFCURVE",
"584 297 OFFCURVE",
"552 447 CURVE",
"739 521 OFFCURVE",
"792 688 OFFCURVE",
"821 823 CURVE SMOOTH",
"920 1290 LINE"
);
}
);
width = 859;
}
);
unicode = 05D0;
},
{
glyphname = "bet-hb";
lastChange = "2013-03-13 10:38:35 +0200";
layers = (
{
anchors = (
{
name = bottom;
position = "{266, 0}";
},
{
name = bottomleft;
position = "{-119, 0}";
},
{
name = center;
position = "{263, 512}";
},
{
name = top;
position = "{483, 1024}";
},
{
name = topleft;
position = "{247, 1127}";
}
);
layerId = UUID0;
name = "Regular Italic";
paths = (
{
closed = 1;
nodes = (
"339 1310 OFFCURVE",
"230 1298 OFFCURVE",
"230 1298 CURVE",
"202 1167 LINE",
"202 1167 OFFCURVE",
"303 1180 OFFCURVE",
"417 1180 CURVE SMOOTH",
"570 1180 OFFCURVE",
"626 1137 OFFCURVE",
"580 918 CURVE SMOOTH",
"412 127 LINE",
"-18 127 LINE",
"-45 0 LINE",
"639 0 LINE",
"666 127 LINE",
"564 127 LINE",
"732 918 LINE SMOOTH",
"784 1163 OFFCURVE",
"758 1310 OFFCURVE",
"457 1310 CURVE SMOOTH"
);
}
);
width = 810;
}
);
unicode = 05D1;
},
{
glyphname = "gimel-hb";
lastChange = "2013-03-13 10:38:35 +0200";
layers = (
{
anchors = (
{
name = bottom;
position = "{212, 0}";
},
{
name = bottomleft;
position = "{-118, 0}";
},
{
name = center;
position = "{218, 512}";
},
{
name = top;
position = "{429, 1024}";
},
{
name = topleft;
position = "{301, 1127}";
}
);
layerId = UUID0;
name = "Regular Italic";
paths = (
{
closed = 1;
nodes = (
"370 1310 OFFCURVE",
"322 1296 OFFCURVE",
"306 1292 CURVE",
"278 1159 LINE",
"294 1163 OFFCURVE",
"348 1178 OFFCURVE",
"391 1178 CURVE SMOOTH",
"510 1178 OFFCURVE",
"514 1096 OFFCURVE",
"484 958 CURVE SMOOTH",
"390 515 LINE SMOOTH",
"338 269 OFFCURVE",
"244 135 OFFCURVE",
"62 135 CURVE SMOOTH",
"29 135 OFFCURVE",
"1 145 OFFCURVE",
"1 146 CURVE",
"-49 1 LINE",
"-49 1 OFFCURVE",
"-17 -9 OFFCURVE",
"24 -9 CURVE SMOOTH",
"220 -9 OFFCURVE",
"297 149 OFFCURVE",
"327 204 CURVE",
"337 204 LINE",
"329 157 OFFCURVE",
"323 47 OFFCURVE",
"315 0 CURVE",
"432 0 LINE",
"635 958 LINE SMOOTH",
"675 1144 OFFCURVE",
"679 1310 OFFCURVE",
"437 1310 CURVE SMOOTH"
);
}
);
width = 699;
}
);
unicode = 05D2;
},
{
glyphname = "dalet-hb";
lastChange = "2013-03-13 10:38:35 +0200";
layers = (
{
anchors = (
{
name = bottom;
position = "{296, 0}";
},
{
name = bottomleft;
position = "{-117, 0}";
},
{
name = center;
position = "{179, 512}";
},
{
name = top;
position = "{448, 1024}";
},
{
name = topleft;
position = "{189, 1127}";
}
);
layerId = UUID0;
name = "Regular Italic";
paths = (
{
closed = 1;
nodes = (
"157 1290 LINE",
"130 1162 LINE",
"543 1162 OFFCURVE",
"610 1162 OFFCURVE",
"610 1162 CURVE SMOOTH",
"610 1162 OFFCURVE",
"458 1100 OFFCURVE",
"414 894 CURVE SMOOTH",
"224 0 LINE",
"375 0 LINE",
"565 892 LINE SMOOTH",
"600 1059 OFFCURVE",
"704 1136 OFFCURVE",
"818 1174 CURVE",
"843 1290 LINE"
);
}
);
width = 733;
}
);
unicode = 05D3;
},
{
glyphname = "he-hb";
lastChange = "2013-03-13 10:38:35 +0200";
layers = (
{
anchors = (
{
name = bottom;
position = "{339, 0}";
},
{
name = bottomleft;
position = "{-119, 0}";
},
{
name = center;
position = "{448, 512}";
},
{
name = top;
position = "{556, 1024}";
},
{
name = topleft;
position = "{280, 1127}";
}
);
layerId = UUID0;
name = "Regular Italic";
paths = (
{
closed = 1;
nodes = (
"435 1310 OFFCURVE",
"304 1288 OFFCURVE",
"267 1282 CURVE",
"240 1153 LINE",
"283 1159 OFFCURVE",
"443 1180 OFFCURVE",
"542 1180 CURVE SMOOTH",
"721 1180 OFFCURVE",
"778 1139 OFFCURVE",
"731 920 CURVE SMOOTH",
"536 0 LINE",
"689 0 LINE",
"884 920 LINE SMOOTH",
"948 1218 OFFCURVE",
"862 1310 OFFCURVE",
"582 1310 CURVE SMOOTH"
);
},
{
closed = 1;
nodes = (
"168 816 LINE",
"-5 0 LINE",
"147 0 LINE",
"320 816 LINE"
);
}
);
width = 956;
}
);
unicode = 05D4;
},
{
glyphname = "vav-hb";
lastChange = "2013-03-13 10:38:35 +0200";
layers = (
{
anchors = (
{
name = bottom;
position = "{73, 0}";
},
{
name = bottomleft;
position = "{-117, 0}";
},
{
name = center;
position = "{-43, 512}";
},
{
name = top;
position = "{291, 1024}";
},
{
name = topleft;
position = "{273, 1127}";
}
);
layerId = UUID0;
name = "Regular Italic";
paths = (
{
closed = 1;
nodes = (
"271 1290 LINE",
"-3 0 LINE",
"148 0 LINE",
"422 1290 LINE"
);
}
);
width = 420;
}
);
unicode = 05D5;
},
{
glyphname = "zayin-hb";
lastChange = "2013-03-13 10:38:35 +0200";
layers = (
{
anchors = (
{
name = bottom;
position = "{104, 0}";
},
{
name = bottomleft;
position = "{-117, 0}";
},
{
name = center;
position = "{-1, 512}";
},
{
name = top;
position = "{322, 1024}";
},
{
name = topleft;
position = "{246, 1127}";
}
);
layerId = UUID0;
name = "Regular Italic";
paths = (
{
closed = 1;
nodes = (
"266 1290 LINE",
"239 1162 LINE",
"425 1162 LINE",
"316 1050 OFFCURVE",
"211 846 OFFCURVE",
"149 555 CURVE SMOOTH",
"31 0 LINE",
"182 0 LINE",
"300 555 LINE SMOOTH",
"333 710 OFFCURVE",
"394 1018 OFFCURVE",
"562 1170 CURVE",
"587 1290 LINE"
);
}
);
width = 481;
}
);
unicode = 05D6;
},
{
glyphname = "het-hb";
lastChange = "2013-03-13 10:38:35 +0200";
layers = (
{
anchors = (
{
name = bottom;
position = "{339, 0}";
},
{
name = bottomleft;
position = "{-119, 0}";
},
{
name = center;
position = "{448, 512}";
},
{
name = top;
position = "{556, 1024}";
},
{
name = topleft;
position = "{287, 1127}";
}
);
layerId = UUID0;
name = "Regular Italic";
paths = (
{
closed = 1;
nodes = (
"455 1310 OFFCURVE",
"318 1288 OFFCURVE",
"267 1282 CURVE",
"-5 0 LINE",
"147 0 LINE",
"395 1169 LINE",
"445 1175 OFFCURVE",
"504 1180 OFFCURVE",
"542 1180 CURVE SMOOTH",
"721 1180 OFFCURVE",
"778 1139 OFFCURVE",
"731 920 CURVE SMOOTH",
"536 0 LINE",
"689 0 LINE",
"884 920 LINE SMOOTH",
"948 1218 OFFCURVE",
"862 1310 OFFCURVE",
"582 1310 CURVE SMOOTH"
);
}
);
width = 956;
}
);
unicode = 05D7;
},
{
glyphname = "tet-hb";
lastChange = "2013-03-13 10:38:35 +0200";
layers = (
{
anchors = (
{
name = bottom;
position = "{331, 0}";
},
{
name = bottomleft;
position = "{-117, 0}";
},
{
name = center;
position = "{440, 512}";
},
{
name = top;
position = "{549, 1024}";
},
{
name = topleft;
position = "{222, 1127}";
}
);
layerId = UUID0;
name = "Regular Italic";
paths = (
{
closed = 1;
nodes = (
"584 1310 OFFCURVE",
"546 1303 OFFCURVE",
"526 1299 CURVE",
"499 1170 LINE",
"518 1174 OFFCURVE",
"555 1180 OFFCURVE",
"585 1180 CURVE SMOOTH",
"706 1180 OFFCURVE",
"781 1067 OFFCURVE",
"691 645 CURVE SMOOTH",
"601 221 OFFCURVE",
"478 110 OFFCURVE",
"358 110 CURVE SMOOTH",
"237 110 OFFCURVE",
"161 221 OFFCURVE",
"251 645 CURVE SMOOTH",
"388 1289 LINE",
"232 1289 LINE",
"186 1074 OFFCURVE",
"95 645 OFFCURVE",
"95 645 CURVE",
"-11 147 OFFCURVE",
"135 -20 OFFCURVE",
"331 -20 CURVE SMOOTH",
"526 -20 OFFCURVE",
"741 147 OFFCURVE",
"847 645 CURVE SMOOTH",
"931 1042 OFFCURVE",
"877 1310 OFFCURVE",
"623 1310 CURVE SMOOTH"
);
}
);
width = 935;
}
);
unicode = 05D8;
},
{
glyphname = "yod-hb";
lastChange = "2013-03-13 10:38:35 +0200";
layers = (
{
anchors = (
{
name = bottom;
position = "{74, 0}";
},
{
name = bottomleft;
position = "{-113, 0}";
},
{
name = center;
position = "{51, 730}";
},
{
name = top;
position = "{292, 1024}";
},
{
name = topleft;
position = "{274, 1127}";
}
);
layerId = UUID0;
name = "Regular Italic";
paths = (
{
closed = 1;
nodes = (
"273 1290 LINE",
"97 466 LINE",
"136 466 LINE",
"186 519 OFFCURVE",
"233 572 OFFCURVE",
"282 625 CURVE",
"424 1290 LINE"
);
}
);
width = 414;
}
);
unicode = 05D9;
},
{
glyphname = "finalkaf-hb";
lastChange = "2013-03-13 10:38:35 +0200";
layers = (
{
anchors = (
{
name = bottom;
position = "{-3, 360}";
},
{
name = bottomleft;
position = "{-113, 0}";
},
{
name = center;
position = "{209, 512}";
},
{
name = top;
position = "{449, 1024}";
},
{
name = topleft;
position = "{207, 1127}";
}
);
layerId = UUID0;
name = "Regular Italic";
paths = (
{
closed = 1;
nodes = (
"284 1310 OFFCURVE",
"206 1281 OFFCURVE",
"183 1276 CURVE",
"153 1134 LINE",
"211 1157 OFFCURVE",
"286 1174 OFFCURVE",
"345 1174 CURVE SMOOTH",
"492 1174 OFFCURVE",
"528 1014 OFFCURVE",
"466 726 CURVE SMOOTH",
"207 -492 LINE",
"360 -492 LINE",
"619 726 LINE SMOOTH",
"688 1048 OFFCURVE",
"667 1310 OFFCURVE",
"382 1310 CURVE SMOOTH"
);
}
);
width = 727;
}
);
unicode = 05DA;
},
{
glyphname = "kaf-hb";
lastChange = "2013-03-13 10:38:35 +0200";
layers = (
{
anchors = (
{
name = bottom;
position = "{207, 0}";
},
{
name = bottomleft;
position = "{-117, 0}";
},
{
name = center;
position = "{185, 512}";
},
{
name = top;
position = "{425, 1024}";
},
{
name = topleft;
position = "{202, 1127}";
}
);
layerId = UUID0;
name = "Regular Italic";
paths = (
{
closed = 1;
nodes = (
"279 1310 OFFCURVE",
"202 1281 OFFCURVE",
"179 1276 CURVE",
"149 1135 LINE",
"217 1159 OFFCURVE",
"281 1174 OFFCURVE",
"340 1174 CURVE SMOOTH",
"487 1174 OFFCURVE",
"521 1014 OFFCURVE",
"460 726 CURVE SMOOTH",
"418 528 LINE SMOOTH",
"393 410 OFFCURVE",
"317 112 OFFCURVE",
"115 112 CURVE SMOOTH",
"20 112 OFFCURVE",
"-38 139 OFFCURVE",
"-57 145 CURVE",
"-86 8 LINE",
"-72 3 OFFCURVE",
"7 -20 OFFCURVE",
"95 -20 CURVE SMOOTH",
"398 -20 OFFCURVE",
"520 280 OFFCURVE",
"573 528 CURVE SMOOTH",
"615 726 LINE SMOOTH",
"684 1048 OFFCURVE",
"662 1310 OFFCURVE",
"377 1310 CURVE SMOOTH"
);
}
);
width = 687;
}
);
unicode = 05DB;
},
{
glyphname = "lamed-hb";
lastChange = "2013-03-13 10:38:35 +0200";
layers = (
{
anchors = (
{
name = bottom;
position = "{173, 0}";
},
{
name = bottomleft;
position = "{-117, 0}";
},
{
name = center;
position = "{85, 512}";
},
{
name = top;
position = "{419, 1024}";
},
{
name = topleft;
position = "{29, 1127}";
}
);
layerId = UUID0;
name = "Regular Italic";
paths = (
{
closed = 1;
nodes = (
"239 1564 LINE",
"154 1161 LINE",
"604 1161 LINE",
"296 496 LINE",
"253 385 OFFCURVE",
"141 110 OFFCURVE",
"98 0 CURVE",
"248 0 LINE",
"315 168 OFFCURVE",
"383 335 OFFCURVE",
"450 503 CURVE",
"550 722 OFFCURVE",
"650 942 OFFCURVE",
"750 1160 CURVE",
"779 1294 LINE",
"333 1294 LINE",
"390 1564 LINE"
);
}
);
width = 678;
}
);
unicode = 05DC;
},
{
glyphname = "finalmem-hb";
lastChange = "2013-03-13 10:38:35 +0200";
layers = (
{
anchors = (
{
name = bottom;
position = "{339, 0}";
},
{
name = bottomleft;
position = "{-119, 0}";
},
{
name = center;
position = "{448, 512}";
},
{
name = top;
position = "{556, 1024}";
},
{
name = topleft;
position = "{267, 1127}";
}
);
layerId = UUID0;
name = "Regular Italic";
paths = (
{
closed = 1;
nodes = (
"455 1310 OFFCURVE",
"319 1294 OFFCURVE",
"268 1287 CURVE",
"-5 0 LINE",
"689 0 LINE",
"886 929 LINE SMOOTH",
"949 1226 OFFCURVE",
"891 1310 OFFCURVE",
"582 1310 CURVE SMOOTH"
);
},
{
closed = 1;
nodes = (
"742 1181 OFFCURVE",
"781 1148 OFFCURVE",
"734 929 CURVE SMOOTH",
"564 127 LINE",
"174 127 LINE",
"396 1171 LINE",
"445 1177 OFFCURVE",
"504 1181 OFFCURVE",
"542 1181 CURVE SMOOTH"
);
}
);
width = 956;
}
);
unicode = 05DD;
},
{
glyphname = "mem-hb";
lastChange = "2013-03-13 10:38:35 +0200";
layers = (
{
anchors = (
{
name = bottom;
position = "{328, 0}";
},
{
name = bottomleft;
position = "{-119, 0}";
},
{
name = center;
position = "{437, 512}";
},
{
name = top;
position = "{545, 1024}";
},
{
name = topleft;
position = "{207, 1127}";
}
);
layerId = UUID0;
name = "Regular Italic";
paths = (
{
closed = 1;
nodes = (
"501 1310 OFFCURVE",
"385 1140 OFFCURVE",
"385 1140 CURVE SMOOTH",
"376 1140 LINE",
"375 1179 OFFCURVE",
"365 1273 OFFCURVE",
"362 1290 CURVE",
"211 1290 LINE",
"216 1253 OFFCURVE",
"241 1125 OFFCURVE",
"219 1020 CURVE SMOOTH",
"206 965 OFFCURVE",
"189 910 OFFCURVE",
"172 853 CURVE SMOOTH",
"-86 0 LINE",
"66 0 LINE",
"357 963 LINE",
"357 963 OFFCURVE",
"460 1178 OFFCURVE",
"625 1178 CURVE SMOOTH",
"760 1178 OFFCURVE",
"726 1000 OFFCURVE",
"691 835 CURVE SMOOTH",
"541 127 LINE",
"313 127 LINE",
"286 0 LINE",
"665 0 LINE",
"842 835 LINE SMOOTH",
"886 1039 OFFCURVE",
"931 1310 OFFCURVE",
"684 1310 CURVE SMOOTH"
);
}
);
width = 933;
}
);
unicode = 05DE;
},
{
glyphname = "finalnun-hb";
lastChange = "2013-03-13 10:38:35 +0200";
layers = (
{
anchors = (
{
name = bottom;
position = "{-302, 367}";
},
{
name = bottomleft;
position = "{-113, 0}";
},
{
name = center;
position = "{-11, 512}";
},
{
name = top;
position = "{297, 1024}";
},
{
name = topleft;
position = "{214, 1127}";
}
);
layerId = UUID0;
name = "Regular Italic";
paths = (
{
closed = 1;
nodes = (
"229 1290 LINE SMOOTH",
"229 1290 OFFCURVE",
"241 1099 OFFCURVE",
"194 878 CURVE SMOOTH",
"-97 -492 LINE",
"55 -492 LINE",
"346 878 LINE SMOOTH",
"394 1104 OFFCURVE",
"382 1290 OFFCURVE",
"382 1290 CURVE SMOOTH"
);
}
);
width = 424;
}
);
unicode = 05DF;
},
{
glyphname = "nun-hb";
lastChange = "2013-03-13 10:38:35 +0200";
layers = (
{
anchors = (
{
name = bottom;
position = "{170, 0}";
},
{
name = bottomleft;
position = "{-119, 0}";
},
{
name = center;
position = "{157, 512}";
},
{
name = top;
position = "{387, 1024}";
},
{
name = topleft;
position = "{233, 1127}";
}
);
layerId = UUID0;
name = "Regular Italic";
paths = (
{
closed = 1;
nodes = (
"293 1310 OFFCURVE",
"254 1299 OFFCURVE",
"227 1293 CURVE",
"199 1161 LINE",
"225 1167 OFFCURVE",
"266 1178 OFFCURVE",
"309 1178 CURVE SMOOTH",
"430 1178 OFFCURVE",
"430 1088 OFFCURVE",
"409 988 CURVE SMOOTH",
"271 340 LINE SMOOTH",
"243 210 OFFCURVE",
"202 127 OFFCURVE",
"202 127 CURVE SMOOTH",
"-72 127 LINE",
"-99 0 LINE",
"308 0 LINE",
"308 0 OFFCURVE",
"386 169 OFFCURVE",
"422 340 CURVE SMOOTH",
"546 921 LINE SMOOTH",
"592 1141 OFFCURVE",
"609 1310 OFFCURVE",
"355 1310 CURVE SMOOTH"
);
}
);
width = 617;
}
);
unicode = 05E0;
},
{
glyphname = "samekh-hb";
lastChange = "2013-03-13 10:38:35 +0200";
layers = (
{
anchors = (
{
name = bottom;
position = "{326, 0}";
},
{
name = bottomleft;
position = "{-117, 0}";
},
{
name = center;
position = "{435, 512}";
},
{
name = top;
position = "{544, 1024}";
},
{
name = topleft;
position = "{269, 1127}";
}
);
layerId = UUID0;
name = "Regular Italic";
paths = (
{
closed = 1;
nodes = (
"436 1310 OFFCURVE",
"296 1296 OFFCURVE",
"242 1291 CURVE",
"215 1162 LINE",
"344 1169 LINE",
"237 1059 OFFCURVE",
"138 886 OFFCURVE",
"87 645 CURVE SMOOTH",
"-19 147 OFFCURVE",
"125 -20 OFFCURVE",
"321 -20 CURVE SMOOTH",
"517 -20 OFFCURVE",
"732 147 OFFCURVE",
"838 645 CURVE SMOOTH",
"944 1143 OFFCURVE",
"799 1310 OFFCURVE",
"603 1310 CURVE SMOOTH"
);
},
{
closed = 1;
nodes = (
"696 1178 OFFCURVE",
"772 1069 OFFCURVE",
"682 645 CURVE SMOOTH",
"592 221 OFFCURVE",
"469 111 OFFCURVE",
"348 111 CURVE SMOOTH",
"227 111 OFFCURVE",
"153 221 OFFCURVE",
"243 645 CURVE SMOOTH",
"295 890 OFFCURVE",
"358 1058 OFFCURVE",
"488 1173 CURVE",
"488 1173 OFFCURVE",
"529 1178 OFFCURVE",
"575 1178 CURVE SMOOTH"
);
}
);
width = 926;
}
);
unicode = 05E1;
},
{
glyphname = "ayin-hb";
lastChange = "2013-03-13 10:38:35 +0200";
layers = (
{
anchors = (
{
name = bottom;
position = "{312, 0}";
},
{
name = bottomleft;
position = "{-112, 0}";
},
{
name = center;
position = "{492, 580}";
},
{
name = top;
position = "{530, 1024}";
},
{
name = topleft;
position = "{188, 1127}";
}
);
layerId = UUID0;
name = "Regular Italic";
paths = (
{
closed = 1;
nodes = (
"210 1290 LINE",
"216 122 LINE",
"128 103 OFFCURVE",
"38 90 OFFCURVE",
"-50 76 CURVE",
"-78 -52 LINE",
"15 -36 OFFCURVE",
"106 -20 OFFCURVE",
"197 -5 CURVE SMOOTH",
"620 62 OFFCURVE",
"723 413 OFFCURVE",
"818 720 CURVE SMOOTH",
"994 1289 LINE",
"842 1289 LINE",
"782 1095 OFFCURVE",
"724 900 OFFCURVE",
"663 706 CURVE SMOOTH",
"583 448 OFFCURVE",
"493 257 OFFCURVE",
"343 171 CURVE",
"363 706 LINE",
"362 1290 LINE"
);
}
);
width = 888;
}
);
unicode = 05E2;
},
{
glyphname = "finalpe-hb";
lastChange = "2013-03-13 10:38:35 +0200";
layers = (
{
anchors = (
{
name = bottom;
position = "{226, 367}";
},
{
name = bottomleft;
position = "{-112, 0}";
},
{
name = center;
position = "{497, 740}";
},
{
name = top;
position = "{558, 1024}";
},
{
name = topleft;
position = "{280, 1127}";
}
);
layerId = UUID0;
name = "Regular Italic";
paths = (
{
closed = 1;
nodes = (
"381 1310 OFFCURVE",
"189 1135 OFFCURVE",
"130 857 CURVE SMOOTH",
"69 569 OFFCURVE",
"176 435 OFFCURVE",
"376 436 CURVE",
"429 555 LINE",
"421 556 OFFCURVE",
"415 557 OFFCURVE",
"407 557 CURVE",
"273 565 OFFCURVE",
"240 673 OFFCURVE",
"280 860 CURVE SMOOTH",
"303 970 OFFCURVE",
"398 1178 OFFCURVE",
"557 1178 CURVE SMOOTH",
"678 1178 OFFCURVE",
"758 1069 OFFCURVE",
"668 645 CURVE SMOOTH",
"426 -492 LINE",
"578 -492 LINE",
"820 645 LINE SMOOTH",
"926 1143 OFFCURVE",
"782 1310 OFFCURVE",
"586 1310 CURVE SMOOTH"
);
}
);
width = 943;
}
);
unicode = 05E3;
},
{
glyphname = "pe-hb";
lastChange = "2013-03-13 10:38:35 +0200";
layers = (
{
anchors = (
{
name = bottom;
position = "{315, 0}";
},
{
name = bottomleft;
position = "{-117, 0}";
},
{
name = center;
position = "{472, 740}";
},
{
name = top;
position = "{533, 1024}";
},
{
name = topleft;
position = "{249, 1127}";
}
);
layerId = UUID0;
name = "Regular Italic";
paths = (
{
closed = 1;
nodes = (
"375 1310 OFFCURVE",
"185 1136 OFFCURVE",
"126 857 CURVE SMOOTH",
"67 581 OFFCURVE",
"164 445 OFFCURVE",
"351 438 CURVE",
"372 436 LINE",
"424 556 LINE",
"403 558 LINE",
"261 563 OFFCURVE",
"236 677 OFFCURVE",
"274 857 CURVE SMOOTH",
"297 966 OFFCURVE",
"393 1178 OFFCURVE",
"553 1178 CURVE SMOOTH",
"674 1178 OFFCURVE",
"749 1070 OFFCURVE",
"659 645 CURVE SMOOTH",
"569 221 OFFCURVE",
"436 112 OFFCURVE",
"315 112 CURVE SMOOTH",
"198 112 OFFCURVE",
"70 136 OFFCURVE",
"70 136 CURVE",
"42 3 LINE",
"42 3 OFFCURVE",
"147 -20 OFFCURVE",
"287 -20 CURVE SMOOTH",
"483 -20 OFFCURVE",
"709 147 OFFCURVE",
"815 645 CURVE SMOOTH",
"921 1144 OFFCURVE",
"777 1310 OFFCURVE",
"581 1310 CURVE SMOOTH"
);
}
);
width = 903;
}
);
unicode = 05E4;
},
{
glyphname = "finaltsadi-hb";
lastChange = "2013-03-13 10:38:35 +0200";
layers = (
{
anchors = (
{
name = bottom;
position = "{-230, 367}";
},
{
name = bottomleft;
position = "{-108, 0}";
},
{
name = center;
position = "{347, 512}";
},
{
name = top;
position = "{456, 1024}";
},
{
name = topleft;
position = "{168, 1127}";
}
);
layerId = UUID0;
name = "Regular Italic";
paths = (
{
closed = 1;
nodes = (
"659 1290 LINE",
"563 835 LINE SMOOTH",
"529 678 OFFCURVE",
"458 598 OFFCURVE",
"350 563 CURVE",
"315 1290 LINE",
"149 1290 LINE",
"192 558 LINE",
"-31 -492 LINE",
"125 -492 LINE",
"323 441 LINE",
"323 441 OFFCURVE",
"322 441 OFFCURVE",
"322 441 CURVE",
"579 477 OFFCURVE",
"679 673 OFFCURVE",
"714 835 CURVE SMOOTH",
"810 1290 LINE"
);
}
);
width = 731;
}
);
unicode = 05E5;
},
{
glyphname = "tsadi-hb";
lastChange = "2013-03-13 10:38:35 +0200";
layers = (
{
anchors = (
{
name = bottom;
position = "{282, 0}";
},
{
name = bottomleft;
position = "{-117, 0}";
},
{
name = center;
position = "{121, 427}";
},
{
name = top;
position = "{500, 1024}";
},
{
name = topleft;
position = "{229, 1127}";
}
);
layerId = UUID0;
name = "Regular Italic";
paths = (
{
closed = 1;
nodes = (
"195 1290 LINE",
"359 480 LINE",
"465 123 LINE",
"465 123 OFFCURVE",
"465 122 OFFCURVE",
"465 122 CURVE SMOOTH",
"291 127 LINE",
"-49 127 LINE",
"-76 0 LINE",
"610 0 LINE",
"627 80 LINE",
"520 481 LINE",
"688 616 OFFCURVE",
"759 802 OFFCURVE",
"843 1073 CURVE SMOOTH",
"910 1289 LINE",
"758 1289 LINE",
"665 989 LINE SMOOTH",
"616 829 OFFCURVE",
"558 674 OFFCURVE",
"480 605 CURVE",
"354 1290 LINE"
);
}
);
width = 837;
}
);
unicode = 05E6;
},
{
glyphname = "qof-hb";
lastChange = "2013-03-13 10:38:35 +0200";
layers = (
{
anchors = (
{
name = bottom;
position = "{577, 0}";
},
{
name = bottomleft;
position = "{-113, 0}";
},
{
name = center;
position = "{399, 550}";
},
{
name = top;
position = "{545, 1024}";
},
{
name = topleft;
position = "{274, 1127}";
}
);
layerId = UUID0;
name = "Regular Italic";
paths = (
{
closed = 1;
nodes = (
"282 1290 LINE",
"255 1162 LINE",
"813 1162 LINE",
"723 978 OFFCURVE",
"528 567 OFFCURVE",
"528 567 CURVE",
"423 351 OFFCURVE",
"316 139 OFFCURVE",
"291 22 CURVE SMOOTH",
"286 0 LINE",
"435 0 LINE",
"440 22 LINE SMOOTH",
"463 131 OFFCURVE",
"587 380 OFFCURVE",
"678 567 CURVE SMOOTH",
"975 1178 LINE",
"998 1290 LINE"
);
},
{
closed = 1;
nodes = (
"171 763 LINE",
"-95 -492 LINE",
"56 -492 LINE",
"322 763 LINE"
);
}
);
width = 920;
}
);
unicode = 05E7;
},
{
glyphname = "resh-hb";
lastChange = "2013-03-13 10:38:35 +0200";
layers = (
{
anchors = (
{
name = bottom;
position = "{381, 0}";
},
{
name = bottomleft;
position = "{-119, 0}";
},
{
name = center;
position = "{217, 512}";
},
{
name = top;
position = "{438, 1024}";
},
{
name = topleft;
position = "{180, 1127}";
}
);
layerId = UUID0;
name = "Regular Italic";
paths = (
{
closed = 1;
nodes = (
"262 1310 OFFCURVE",
"195 1301 OFFCURVE",
"166 1298 CURVE",
"138 1168 LINE",
"169 1171 OFFCURVE",
"241 1180 OFFCURVE",
"327 1180 CURVE SMOOTH",
"509 1180 OFFCURVE",
"541 1133 OFFCURVE",
"495 920 CURVE SMOOTH",
"300 0 LINE",
"452 0 LINE",
"647 920 LINE SMOOTH",
"711 1218 OFFCURVE",
"649 1310 OFFCURVE",
"367 1310 CURVE SMOOTH"
);
}
);
width = 719;
}
);
unicode = 05E8;
},
{
glyphname = "shin-hb";
lastChange = "2013-03-13 10:38:35 +0200";
layers = (
{
anchors = (
{
name = bottom;
position = "{427, 0}";
},
{
name = bottomleft;
position = "{-117, 0}";
},
{
name = center;
position = "{487, 300}";
},
{
name = top;
position = "{645, 1024}";
},
{
name = topleft;
position = "{209, 1127}";
},
{
name = topright;
position = "{1113, 1127}";
}
);
layerId = UUID0;
name = "Regular Italic";
paths = (
{
closed = 1;
nodes = (
"1059 1290 LINE",
"887 727 LINE SMOOTH",
"781 379 OFFCURVE",
"546 129 OFFCURVE",
"251 129 CURVE SMOOTH",
"197 129 LINE",
"240 455 LINE",
"505 517 OFFCURVE",
"611 689 OFFCURVE",
"693 961 CURVE SMOOTH",
"792 1290 LINE",
"649 1290 LINE",
"550 960 LINE SMOOTH",
"481 728 OFFCURVE",
"400 629 OFFCURVE",
"255 580 CURVE",
"347 1290 LINE",
"201 1290 LINE",
"34 0 LINE",
"224 0 LINE SMOOTH",
"718 0 OFFCURVE",
"942 434 OFFCURVE",
"1031 727 CURVE SMOOTH",
"1203 1290 LINE"
);
}
);
width = 1128;
}
);
unicode = 05E9;
},
{
glyphname = "tav-hb";
lastChange = "2013-03-13 10:38:35 +0200";
layers = (
{
anchors = (
{
name = bottom;
position = "{335, 0}";
},
{
name = bottomleft;
position = "{-119, 0}";
},
{
name = center;
position = "{444, 512}";
},
{
name = top;
position = "{553, 1024}";
},
{
name = topleft;
position = "{208, 1127}";
}
);
layerId = UUID0;
name = "Regular Italic";
paths = (
{
closed = 1;
nodes = (
"392 1310 OFFCURVE",
"241 1283 OFFCURVE",
"204 1279 CURVE",
"177 1150 LINE",
"207 1154 OFFCURVE",
"236 1158 OFFCURVE",
"265 1161 CURVE",
"73 256 LINE SMOOTH",
"56 176 OFFCURVE",
"25 130 OFFCURVE",
"-37 130 CURVE SMOOTH",
"-61 130 OFFCURVE",
"-73 136 OFFCURVE",
"-88 139 CURVE",
"-116 7 LINE",
"-104 4 OFFCURVE",
"-64 -6 OFFCURVE",
"-26 -6 CURVE SMOOTH",
"132 -6 OFFCURVE",
"190 90 OFFCURVE",
"245 353 CURVE SMOOTH",
"420 1175 LINE",
"486 1179 OFFCURVE",
"486 1180 OFFCURVE",
"547 1180 CURVE SMOOTH",
"706 1180 OFFCURVE",
"768 1137 OFFCURVE",
"722 918 CURVE SMOOTH",
"526 0 LINE",
"677 0 LINE",
"873 918 LINE SMOOTH",
"916 1123 OFFCURVE",
"909 1310 OFFCURVE",
"588 1310 CURVE SMOOTH"
);
}
);
width = 948;
}
);
unicode = 05EA;
},
{
glyphname = zero;
lastChange = "2013-03-13 10:38:35 +0200";
layers = (
{
layerId = UUID0;
name = "Regular Italic";
paths = (
{
closed = 1;
nodes = (
"354 1483 OFFCURVE",
"192 1244 OFFCURVE",
"83 732 CURVE SMOOTH",
"-31 197 OFFCURVE",
"23 -20 OFFCURVE",
"268 -20 CURVE SMOOTH",
"505 -20 OFFCURVE",
"667 221 OFFCURVE",
"776 732 CURVE SMOOTH",
"886 1248 OFFCURVE",
"832 1483 OFFCURVE",
"590 1483 CURVE SMOOTH"
);
},
{
closed = 1;
nodes = (
"688 1344 OFFCURVE",
"709 1160 OFFCURVE",
"618 732 CURVE SMOOTH",
"521 276 OFFCURVE",
"421 119 OFFCURVE",
"299 119 CURVE SMOOTH",
"164 119 OFFCURVE",
"149 298 OFFCURVE",
"241 732 CURVE SMOOTH",
"333 1164 OFFCURVE",
"424 1344 OFFCURVE",
"559 1344 CURVE SMOOTH"
);
}
);
width = 862;
}
);
unicode = 0030;
},
{
glyphname = one;
lastChange = "2013-03-13 10:38:35 +0200";
layers = (
{
layerId = UUID0;
name = "Regular Italic";
paths = (
{
closed = 1;
nodes = (
"605 1462 LINE",
"226 1169 LINE",
"289 1072 LINE",
"325 1101 OFFCURVE",
"447 1198 OFFCURVE",
"460 1209 CURVE",
"513 1254 OFFCURVE",
"548 1284 OFFCURVE",
"562 1299 CURVE",
"533 1192 OFFCURVE",
"508 1092 OFFCURVE",
"489 1003 CURVE SMOOTH",
"276 0 LINE",
"429 0 LINE",
"739 1462 LINE"
);
}
);
width = 862;
}
);
unicode = 0031;
},
{
glyphname = two;
lastChange = "2013-03-13 10:38:35 +0200";
layers = (
{
layerId = UUID0;
name = "Regular Italic";
paths = (
{
closed = 1;
nodes = (
"435 1483 OFFCURVE",
"341 1449 OFFCURVE",
"212 1349 CURVE",
"234 1315 OFFCURVE",
"253 1280 OFFCURVE",
"275 1246 CURVE",
"366 1314 OFFCURVE",
"433 1342 OFFCURVE",
"520 1342 CURVE SMOOTH",
"648 1342 OFFCURVE",
"688 1225 OFFCURVE",
"664 1115 CURVE SMOOTH",
"620 907 OFFCURVE",
"538 791 OFFCURVE",
"314 539 CURVE SMOOTH",
"-58 119 LINE",
"-84 0 LINE",
"613 0 LINE",
"643 140 LINE",
"121 140 LINE",
"123 148 LINE",
"299 339 OFFCURVE",
"502 555 OFFCURVE",
"588 666 CURVE",
"721 827 OFFCURVE",
"786 963 OFFCURVE",
"819 1120 CURVE SMOOTH",
"866 1340 OFFCURVE",
"772 1483 OFFCURVE",
"559 1483 CURVE SMOOTH"
);
}
);
width = 862;
}
);
unicode = 0032;
},
{
glyphname = three;
lastChange = "2013-03-13 10:38:35 +0200";
layers = (
{
layerId = UUID0;
name = "Regular Italic";
paths = (
{
closed = 1;
nodes = (
"432 1483 OFFCURVE",
"321 1442 OFFCURVE",
"201 1345 CURVE",
"262 1242 LINE",
"361 1321 OFFCURVE",
"434 1347 OFFCURVE",
"521 1347 CURVE SMOOTH",
"645 1347 OFFCURVE",
"697 1260 OFFCURVE",
"665 1110 CURVE SMOOTH",
"628 934 OFFCURVE",
"499 819 OFFCURVE",
"331 819 CURVE SMOOTH",
"251 819 LINE",
"223 690 LINE",
"300 690 LINE SMOOTH",
"498 690 OFFCURVE",
"576 579 OFFCURVE",
"539 409 CURVE SMOOTH",
"499 218 OFFCURVE",
"386 113 OFFCURVE",
"227 113 CURVE SMOOTH",
"128 113 OFFCURVE",
"36 140 OFFCURVE",
"-38 191 CURVE",
"-70 38 LINE",
"-1 0 OFFCURVE",
"91 -20 OFFCURVE",
"209 -20 CURVE SMOOTH",
"455 -20 OFFCURVE",
"640 147 OFFCURVE",
"694 403 CURVE SMOOTH",
"736 598 OFFCURVE",
"664 726 OFFCURVE",
"501 759 CURVE",
"503 767 LINE",
"675 822 OFFCURVE",
"786 952 OFFCURVE",
"825 1135 CURVE SMOOTH",
"869 1344 OFFCURVE",
"767 1483 OFFCURVE",
"559 1483 CURVE SMOOTH"
);
}
);
width = 862;
}
);
unicode = 0033;
},
{
glyphname = four;
lastChange = "2013-03-13 10:38:35 +0200";
layers = (
{
layerId = UUID0;
name = "Regular Italic";
paths = (
{
closed = 1;
nodes = (
"660 1473 LINE",
"-23 452 LINE",
"-51 323 LINE",
"444 323 LINE",
"375 0 LINE",
"523 0 LINE",
"592 323 LINE",
"746 323 LINE",
"775 458 LINE",
"621 458 LINE",
"837 1473 LINE"
);
},
{
closed = 1;
nodes = (
"626 1169 OFFCURVE",
"599 1053 OFFCURVE",
"575 938 CURVE SMOOTH",
"473 458 LINE",
"120 458 LINE",
"480 1004 LINE SMOOTH",
"538 1095 OFFCURVE",
"595 1184 OFFCURVE",
"650 1280 CURVE",
"657 1280 LINE"
);
}
);
width = 862;
}
);
unicode = 0034;
},
{
glyphname = five;
lastChange = "2013-03-13 10:38:35 +0200";
layers = (
{
layerId = UUID0;
name = "Regular Italic";
paths = (
{
closed = 1;
nodes = (
"312 1462 LINE",
"125 791 LINE",
"173 727 LINE",
"246 747 OFFCURVE",
"313 758 OFFCURVE",
"377 758 CURVE SMOOTH",
"532 758 OFFCURVE",
"600 660 OFFCURVE",
"558 462 CURVE SMOOTH",
"515 248 OFFCURVE",
"360 120 OFFCURVE",
"172 125 CURVE SMOOTH",
"98 127 OFFCURVE",
"35 156 OFFCURVE",
"-16 198 CURVE",
"-50 41 LINE",
"8 0 OFFCURVE",
"92 -20 OFFCURVE",
"203 -20 CURVE SMOOTH",
"495 -14 OFFCURVE",
"662 219 OFFCURVE",
"718 472 CURVE",
"766 705 OFFCURVE",
"686 885 OFFCURVE",
"449 888 CURVE SMOOTH",
"395 888 OFFCURVE",
"341 882 OFFCURVE",
"286 870 CURVE",
"412 1319 LINE",
"819 1319 LINE",
"850 1462 LINE"
);
}
);
width = 862;
}
);
unicode = 0035;
},
{
glyphname = six;
lastChange = "2013-03-13 10:38:35 +0200";
layers = (
{
layerId = UUID0;
name = "Regular Italic";
paths = (
{
closed = 1;
nodes = (
"408 1482 OFFCURVE",
"193 1212 OFFCURVE",
"68 622 CURVE SMOOTH",
"-21 203 OFFCURVE",
"52 -20 OFFCURVE",
"278 -20 CURVE SMOOTH",
"485 -20 OFFCURVE",
"655 162 OFFCURVE",
"718 460 CURVE SMOOTH",
"779 743 OFFCURVE",
"703 916 OFFCURVE",
"516 916 CURVE SMOOTH",
"412 916 OFFCURVE",
"318 856 OFFCURVE",
"250 752 CURVE",
"241 752 LINE",
"340 1160 OFFCURVE",
"491 1344 OFFCURVE",
"693 1344 CURVE SMOOTH",
"742 1344 OFFCURVE",
"786 1337 OFFCURVE",
"824 1322 CURVE",
"853 1461 LINE",
"824 1474 OFFCURVE",
"775 1482 OFFCURVE",
"721 1482 CURVE SMOOTH"
);
},
{
closed = 1;
nodes = (
"571 782 OFFCURVE",
"608 664 OFFCURVE",
"564 456 CURVE SMOOTH",
"515 228 OFFCURVE",
"425 118 OFFCURVE",
"310 118 CURVE SMOOTH",
"199 118 OFFCURVE",
"148 262 OFFCURVE",
"203 519 CURVE SMOOTH",
"235 669 OFFCURVE",
"334 782 OFFCURVE",
"451 782 CURVE SMOOTH"
);
}
);
width = 862;
}
);
unicode = 0036;
},
{
glyphname = seven;
lastChange = "2013-03-13 10:38:35 +0200";
layers = (
{
layerId = UUID0;
name = "Regular Italic";
paths = (
{
closed = 1;
nodes = (
"220 1461 LINE",
"190 1319 LINE",
"755 1319 LINE",
"35 0 LINE",
"196 0 LINE",
"917 1346 LINE",
"941 1461 LINE"
);
}
);
width = 862;
}
);
unicode = 0037;
},
{
glyphname = eight;
lastChange = "2013-03-13 10:38:35 +0200";
layers = (
{
layerId = UUID0;
name = "Regular Italic";
paths = (
{
closed = 1;
nodes = (
"401 1482 OFFCURVE",
"233 1343 OFFCURVE",
"189 1135 CURVE SMOOTH",
"158 991 OFFCURVE",
"197 869 OFFCURVE",
"315 762 CURVE",
"122 651 OFFCURVE",
"29 528 OFFCURVE",
"-8 356 CURVE SMOOTH",
"-56 128 OFFCURVE",
"55 -20 OFFCURVE",
"279 -20 CURVE SMOOTH",
"489 -20 OFFCURVE",
"666 142 OFFCURVE",
"714 367 CURVE SMOOTH",
"749 533 OFFCURVE",
"696 640 OFFCURVE",
"539 765 CURVE",
"717 862 OFFCURVE",
"816 985 OFFCURVE",
"849 1138 CURVE SMOOTH",
"893 1349 OFFCURVE",
"791 1482 OFFCURVE",
"592 1482 CURVE SMOOTH"
);
},
{
closed = 1;
nodes = (
"439 669 LINE SMOOTH",
"550 576 OFFCURVE",
"583 477 OFFCURVE",
"561 372 CURVE SMOOTH",
"527 213 OFFCURVE",
"428 110 OFFCURVE",
"300 110 CURVE SMOOTH",
"174 110 OFFCURVE",
"114 208 OFFCURVE",
"146 360 CURVE SMOOTH",
"179 516 OFFCURVE",
"252 607 OFFCURVE",
"407 696 CURVE"
);
},
{
closed = 1;
nodes = (
"676 1352 OFFCURVE",
"723 1271 OFFCURVE",
"693 1129 CURVE SMOOTH",
"667 1008 OFFCURVE",
"596 915 OFFCURVE",
"453 834 CURVE",
"341 927 OFFCURVE",
"314 1004 OFFCURVE",
"341 1129 CURVE SMOOTH",
"371 1270 OFFCURVE",
"453 1352 OFFCURVE",
"562 1352 CURVE SMOOTH"
);
}
);
width = 862;
}
);
unicode = 0038;
},
{
glyphname = nine;
lastChange = "2013-03-13 10:38:35 +0200";
layers = (
{
layerId = UUID0;
name = "Regular Italic";
paths = (
{
closed = 1;
nodes = (
"370 1482 OFFCURVE",
"198 1301 OFFCURVE",
"134 1000 CURVE SMOOTH",
"75 722 OFFCURVE",
"148 544 OFFCURVE",
"336 544 CURVE SMOOTH",
"441 544 OFFCURVE",
"535 606 OFFCURVE",
"602 708 CURVE",
"610 708 LINE",
"514 318 OFFCURVE",
"356 116 OFFCURVE",
"153 116 CURVE SMOOTH",
"100 116 OFFCURVE",
"56 124 OFFCURVE",
"19 139 CURVE",
"-10 0 LINE",
"14 -9 OFFCURVE",
"79 -20 OFFCURVE",
"128 -20 CURVE SMOOTH",
"440 -20 OFFCURVE",
"664 270 OFFCURVE",
"787 847 CURVE SMOOTH",
"874 1257 OFFCURVE",
"804 1482 OFFCURVE",
"581 1482 CURVE SMOOTH"
);
},
{
closed = 1;
nodes = (
"657 1342 OFFCURVE",
"705 1199 OFFCURVE",
"654 957 CURVE SMOOTH",
"620 798 OFFCURVE",
"516 678 OFFCURVE",
"401 678 CURVE SMOOTH",
"281 678 OFFCURVE",
"246 795 OFFCURVE",
"290 1005 CURVE SMOOTH",
"339 1233 OFFCURVE",
"433 1342 OFFCURVE",
"548 1342 CURVE SMOOTH"
);
}
);
width = 862;
}
);
unicode = 0039;
},
{
glyphname = fraction;
lastChange = "2013-03-13 10:38:35 +0200";
layers = (
{
layerId = UUID0;
name = "Regular Italic";
paths = (
{
closed = 1;
nodes = (
"592 1462 LINE",
"-477 0 LINE",
"-348 0 LINE",
"721 1462 LINE"
);
}
);
width = 245;
}
);
unicode = 2044;
},
{
glyphname = onehalf;
lastChange = "2013-03-13 10:38:35 +0200";
layers = (
{
layerId = UUID0;
name = "Regular Italic";
paths = (
{
closed = 1;
nodes = (
"1174 1462 LINE",
"105 0 LINE",
"234 0 LINE",
"1303 1462 LINE"
);
},
{
closed = 1;
nodes = (
"458 1462 LINE",
"169 1271 LINE",
"214 1189 LINE",
"337 1268 OFFCURVE",
"366 1287 OFFCURVE",
"421 1332 CURVE",
"395 1244 OFFCURVE",
"376 1154 OFFCURVE",
"357 1067 CURVE SMOOTH",
"255 586 LINE",
"377 586 LINE",
"563 1462 LINE"
);
},
{
closed = 1;
nodes = (
"1077 898 OFFCURVE",
"988 860 OFFCURVE",
"902 784 CURVE",
"919 755 OFFCURVE",
"937 726 OFFCURVE",
"955 697 CURVE",
"1020 753 OFFCURVE",
"1080 781 OFFCURVE",
"1136 781 CURVE SMOOTH",
"1212 781 OFFCURVE",
"1248 727 OFFCURVE",
"1233 654 CURVE SMOOTH",
"1210 546 OFFCURVE",
"1169 498 OFFCURVE",
"990 327 CURVE SMOOTH",
"912 253 OFFCURVE",
"835 179 OFFCURVE",
"758 105 CURVE",
"736 1 LINE",
"1239 1 LINE",
"1263 117 LINE",
"908 117 LINE",
"1080 280 OFFCURVE",
"1241 429 OFFCURVE",
"1289 498 CURVE SMOOTH",
"1325 549 OFFCURVE",
"1350 603 OFFCURVE",
"1362 660 CURVE SMOOTH",
"1393 807 OFFCURVE",
"1322 898 OFFCURVE",
"1169 898 CURVE SMOOTH"
);
}
);
width = 1485;
}
);
unicode = 00BD;
},
{
glyphname = onequarter;
lastChange = "2013-03-13 10:38:35 +0200";
layers = (
{
layerId = UUID0;
name = "Regular Italic";
paths = (
{
closed = 1;
nodes = (
"1190 1462 LINE",
"121 0 LINE",
"249 0 LINE",
"1319 1462 LINE"
);
},
{
closed = 1;
nodes = (
"457 1462 LINE",
"169 1271 LINE",
"214 1189 LINE",
"334 1268 OFFCURVE",
"367 1287 OFFCURVE",
"420 1332 CURVE",
"395 1243 OFFCURVE",
"377 1154 OFFCURVE",
"356 1067 CURVE SMOOTH",
"254 586 LINE",
"377 586 LINE",
"563 1462 LINE"
);
},
{
closed = 1;
nodes = (
"1173 883 LINE",
"1017 683 OFFCURVE",
"859 484 OFFCURVE",
"703 285 CURVE",
"684 193 LINE",
"1022 193 LINE",
"981 1 LINE",
"1103 1 LINE",
"1144 193 LINE",
"1248 193 LINE",
"1271 301 LINE",
"1167 301 LINE",
"1290 883 LINE"
);
},
{
closed = 1;
nodes = (
"1128 686 OFFCURVE",
"1116 634 OFFCURVE",
"1101 566 CURVE SMOOTH",
"1045 301 LINE",
"827 301 LINE",
"1015 543 OFFCURVE",
"1114 684 OFFCURVE",
"1138 721 CURVE"
);
}
);
width = 1485;
}
);
unicode = 00BC;
},
{
glyphname = threequarters;
lastChange = "2013-03-13 10:38:35 +0200";
layers = (
{
layerId = UUID0;
name = "Regular Italic";
paths = (
{
closed = 1;
nodes = (
"1227 1462 LINE",
"157 0 LINE",
"285 0 LINE",
"643 487 OFFCURVE",
"1000 975 OFFCURVE",
"1356 1462 CURVE"
);
},
{
closed = 1;
nodes = (
"361 1483 OFFCURVE",
"278 1454 OFFCURVE",
"188 1388 CURVE",
"204 1358 OFFCURVE",
"218 1328 OFFCURVE",
"233 1298 CURVE",
"298 1348 OFFCURVE",
"354 1372 OFFCURVE",
"411 1372 CURVE SMOOTH",
"495 1372 OFFCURVE",
"533 1326 OFFCURVE",
"517 1248 CURVE SMOOTH",
"496 1150 OFFCURVE",
"424 1092 OFFCURVE",
"316 1092 CURVE SMOOTH",
"245 1092 LINE",
"222 988 LINE",
"295 988 LINE SMOOTH",
"420 988 OFFCURVE",
"472 931 OFFCURVE",
"450 827 CURVE SMOOTH",
"431 735 OFFCURVE",
"367 679 OFFCURVE",
"253 679 CURVE SMOOTH",
"180 679 OFFCURVE",
"114 698 OFFCURVE",
"56 738 CURVE",
"30 616 LINE",
"87 584 OFFCURVE",
"154 569 OFFCURVE",
"233 569 CURVE SMOOTH",
"410 569 OFFCURVE",
"541 672 OFFCURVE",
"573 822 CURVE SMOOTH",
"597 934 OFFCURVE",
"558 1012 OFFCURVE",
"451 1042 CURVE",
"453 1052 LINE",
"551 1085 OFFCURVE",
"617 1156 OFFCURVE",
"638 1253 CURVE SMOOTH",
"668 1394 OFFCURVE",
"596 1483 OFFCURVE",
"447 1483 CURVE SMOOTH"
);
},
{
closed = 1;
nodes = (
"1199 883 LINE",
"1043 683 OFFCURVE",
"885 484 OFFCURVE",
"729 285 CURVE",
"709 193 LINE",
"1047 193 LINE",
"1007 1 LINE",
"1129 1 LINE",
"1169 193 LINE",
"1273 193 LINE",
"1296 301 LINE",
"1192 301 LINE",
"1316 883 LINE"
);
},
{
closed = 1;
nodes = (
"1154 686 OFFCURVE",
"1142 634 OFFCURVE",
"1127 566 CURVE SMOOTH",
"1070 301 LINE",
"852 301 LINE",
"1041 543 OFFCURVE",
"1140 684 OFFCURVE",
"1164 721 CURVE"
);
}
);
width = 1485;
}
);
unicode = 00BE;
},
{
glyphname = onesuperior;
lastChange = "2013-03-13 10:38:35 +0200";
layers = (
{
layerId = UUID0;
name = "Regular Italic";
paths = (
{
closed = 1;
nodes = (
"418 1462 LINE",
"129 1271 LINE",
"174 1189 LINE",
"297 1268 OFFCURVE",
"326 1287 OFFCURVE",
"380 1332 CURVE",
"355 1244 OFFCURVE",
"336 1154 OFFCURVE",
"317 1067 CURVE SMOOTH",
"215 586 LINE",
"337 586 LINE",
"523 1462 LINE"
);
}
);
width = 638;
}
);
unicode = 00B9;
},
{
glyphname = twosuperior;
lastChange = "2013-03-13 10:38:35 +0200";
layers = (
{
layerId = UUID0;
name = "Regular Italic";
paths = (
{
closed = 1;
nodes = (
"296 1483 OFFCURVE",
"207 1445 OFFCURVE",
"121 1369 CURVE",
"138 1340 OFFCURVE",
"156 1311 OFFCURVE",
"174 1282 CURVE",
"239 1338 OFFCURVE",
"298 1366 OFFCURVE",
"354 1366 CURVE SMOOTH",
"430 1366 OFFCURVE",
"467 1312 OFFCURVE",
"451 1239 CURVE SMOOTH",
"429 1131 OFFCURVE",
"388 1083 OFFCURVE",
"209 912 CURVE SMOOTH",
"131 838 OFFCURVE",
"54 764 OFFCURVE",
"-23 690 CURVE",
"-45 586 LINE",
"458 586 LINE",
"482 702 LINE",
"127 702 LINE",
"299 865 OFFCURVE",
"460 1014 OFFCURVE",
"508 1083 CURVE SMOOTH",
"544 1134 OFFCURVE",
"569 1188 OFFCURVE",
"581 1245 CURVE SMOOTH",
"612 1392 OFFCURVE",
"541 1483 OFFCURVE",
"388 1483 CURVE SMOOTH"
);
}
);
width = 638;
}
);
unicode = 00B2;
},
{
glyphname = threesuperior;
lastChange = "2013-03-13 10:38:35 +0200";
layers = (
{
layerId = UUID0;
name = "Regular Italic";
paths = (
{
closed = 1;
nodes = (
"299 1483 OFFCURVE",
"216 1454 OFFCURVE",
"127 1388 CURVE",
"142 1358 OFFCURVE",
"156 1328 OFFCURVE",
"172 1298 CURVE",
"236 1348 OFFCURVE",
"293 1372 OFFCURVE",
"350 1372 CURVE SMOOTH",
"434 1372 OFFCURVE",
"472 1326 OFFCURVE",
"455 1248 CURVE SMOOTH",
"434 1150 OFFCURVE",
"362 1092 OFFCURVE",
"254 1092 CURVE SMOOTH",
"183 1092 LINE",
"161 988 LINE",
"234 988 LINE SMOOTH",
"359 988 OFFCURVE",
"410 931 OFFCURVE",
"388 827 CURVE SMOOTH",
"368 735 OFFCURVE",
"304 679 OFFCURVE",
"191 679 CURVE SMOOTH",
"117 679 OFFCURVE",
"51 698 OFFCURVE",
"-5 738 CURVE",
"-31 616 LINE",
"25 584 OFFCURVE",
"93 569 OFFCURVE",
"171 569 CURVE SMOOTH",
"348 569 OFFCURVE",
"480 671 OFFCURVE",
"512 822 CURVE SMOOTH",
"535 934 OFFCURVE",
"497 1012 OFFCURVE",
"389 1042 CURVE",
"392 1052 LINE",
"490 1085 OFFCURVE",
"555 1156 OFFCURVE",
"575 1253 CURVE SMOOTH",
"605 1395 OFFCURVE",
"532 1483 OFFCURVE",
"385 1483 CURVE SMOOTH"
);
}
);
width = 638;
}
);
unicode = 00B3;
},
{
glyphname = asterisk;
lastChange = "2013-03-13 10:38:35 +0200";
layers = (
{
layerId = UUID0;
name = "Regular Italic";
paths = (
{
closed = 1;
nodes = (
"397 1556 LINE",
"370 1288 LINE",
"131 1353 LINE",
"76 1208 LINE",
"315 1197 LINE",
"105 964 LINE",
"220 896 LINE",
"389 1142 LINE",
"452 898 LINE",
"597 964 LINE",
"481 1197 LINE",
"729 1208 LINE",
"740 1354 LINE",
"469 1288 LINE",
"557 1556 LINE"
);
}
);
width = 813;
}
);
unicode = 002A;
},
{
glyphname = backslash;
lastChange = "2013-03-13 10:38:35 +0200";
layers = (
{
layerId = UUID0;
name = "Regular Italic";
paths = (
{
closed = 1;
nodes = (
"194 1462 LINE",
"413 0 LINE",
"566 0 LINE",
"343 1462 LINE"
);
}
);
width = 751;
}
);
unicode = 005C;
},
{
glyphname = bullet;
lastChange = "2013-03-13 10:38:35 +0200";
layers = (
{
layerId = UUID0;
name = "Regular Italic";
paths = (
{
closed = 1;
nodes = (
"285 1011 OFFCURVE",
"182 920 OFFCURVE",
"145 748 CURVE SMOOTH",
"109 578 OFFCURVE",
"175 484 OFFCURVE",
"326 484 CURVE SMOOTH",
"476 484 OFFCURVE",
"582 579 OFFCURVE",
"618 748 CURVE SMOOTH",
"655 920 OFFCURVE",
"589 1011 OFFCURVE",
"438 1011 CURVE SMOOTH"
);
}
);
width = 763;
}
);
unicode = 2022;
},
{
glyphname = colon;
lastChange = "2013-03-13 10:38:35 +0200";
layers = (
{
layerId = UUID0;
name = "Regular Italic";
paths = (
{
closed = 1;
nodes = (
"96 231 OFFCURVE",
"51 187 OFFCURVE",
"33 106 CURVE SMOOTH",
"16 24 OFFCURVE",
"43 -20 OFFCURVE",
"113 -20 CURVE SMOOTH",
"177 -20 OFFCURVE",
"228 20 OFFCURVE",
"246 106 CURVE SMOOTH",
"265 193 OFFCURVE",
"231 231 OFFCURVE",
"166 231 CURVE SMOOTH"
);
},
{
closed = 1;
nodes = (
"281 1103 OFFCURVE",
"236 1060 OFFCURVE",
"219 978 CURVE SMOOTH",
"202 897 OFFCURVE",
"228 853 OFFCURVE",
"298 853 CURVE SMOOTH",
"362 853 OFFCURVE",
"414 893 OFFCURVE",
"432 978 CURVE SMOOTH",
"449 1061 OFFCURVE",
"422 1103 OFFCURVE",
"351 1103 CURVE SMOOTH"
);
}
);
width = 465;
}
);
unicode = 003A;
},
{
glyphname = comma;
lastChange = "2013-03-13 10:41:50 +0200";
layers = (
{
layerId = UUID0;
name = "Regular Italic";
paths = (
{
closed = 1;
nodes = (
"80 216 LINE",
"30 68 OFFCURVE",
"-37 -92 OFFCURVE",
"-122 -264 CURVE",
"-13 -264 LINE",
"94 -104 OFFCURVE",
"182 48 OFFCURVE",
"254 193 CURVE",
"245 216 LINE"
);
}
);
width = 465;
}
);
unicode = 002C;
},
{
glyphname = ellipsis;
lastChange = "2013-03-13 10:41:38 +0200";
layers = (
{
layerId = UUID0;
name = "Regular Italic";
paths = (
{
closed = 1;
nodes = (
"1019 231 OFFCURVE",
"973 187 OFFCURVE",
"956 106 CURVE SMOOTH",
"939 24 OFFCURVE",
"965 -20 OFFCURVE",
"1036 -20 CURVE SMOOTH",
"1099 -20 OFFCURVE",
"1152 20 OFFCURVE",
"1170 106 CURVE SMOOTH",
"1189 193 OFFCURVE",
"1155 231 OFFCURVE",
"1090 231 CURVE SMOOTH"
);
},
{
closed = 1;
nodes = (
"89 231 OFFCURVE",
"43 187 OFFCURVE",
"26 106 CURVE SMOOTH",
"9 24 OFFCURVE",
"35 -20 OFFCURVE",
"105 -20 CURVE SMOOTH",
"169 -20 OFFCURVE",
"221 20 OFFCURVE",
"239 106 CURVE SMOOTH",
"258 193 OFFCURVE",
"224 231 OFFCURVE",
"159 231 CURVE SMOOTH"
);
},
{
closed = 1;
nodes = (
"554 231 OFFCURVE",
"508 187 OFFCURVE",
"491 106 CURVE SMOOTH",
"474 24 OFFCURVE",
"500 -20 OFFCURVE",
"571 -20 CURVE SMOOTH",
"634 -20 OFFCURVE",
"687 20 OFFCURVE",
"705 106 CURVE SMOOTH",
"724 193 OFFCURVE",
"689 231 OFFCURVE",
"625 231 CURVE SMOOTH"
);
}
);
width = 1396;
}
);
unicode = 2026;
},
{
glyphname = exclam;
lastChange = "2013-03-13 10:38:35 +0200";
layers = (
{
layerId = UUID0;
name = "Regular Italic";
paths = (
{
closed = 1;
nodes = (
"306 1462 LINE",
"119 401 LINE",
"229 401 LINE",
"495 1462 LINE"
);
},
{
closed = 1;
nodes = (
"67 231 OFFCURVE",
"21 187 OFFCURVE",
"4 106 CURVE SMOOTH",
"-13 24 OFFCURVE",
"13 -20 OFFCURVE",
"84 -20 CURVE SMOOTH",
"147 -20 OFFCURVE",
"200 20 OFFCURVE",
"218 106 CURVE SMOOTH",
"237 193 OFFCURVE",
"203 231 OFFCURVE",
"138 231 CURVE SMOOTH"
);
}
);
width = 485;
}
);
unicode = 0021;
},
{
glyphname = exclamdown;
lastChange = "2013-03-13 10:38:35 +0200";
layers = (
{
layerId = UUID0;
name = "Regular Italic";
paths = (
{
closed = 1;
nodes = (
"254 677 LINE",
"-12 -383 LINE",
"179 -383 LINE",
"363 677 LINE"
);
},
{
closed = 1;
nodes = (
"330 1097 OFFCURVE",
"283 1053 OFFCURVE",
"266 972 CURVE SMOOTH",
"248 889 OFFCURVE",
"276 846 OFFCURVE",
"345 846 CURVE SMOOTH",
"409 846 OFFCURVE",
"460 884 OFFCURVE",
"479 972 CURVE SMOOTH",
"497 1057 OFFCURVE",
"462 1097 OFFCURVE",
"398 1097 CURVE SMOOTH"
);
}
);
width = 485;
}
);
unicode = 00A1;
},
{
glyphname = numbersign;
lastChange = "2013-03-13 10:38:35 +0200";
layers = (
{
layerId = UUID0;
name = "Regular Italic";
paths = (
{
closed = 1;
nodes = (
"830 1462 LINE",
"689 1044 LINE",
"470 1044 LINE",
"611 1462 LINE",
"494 1462 LINE",
"355 1044 LINE",
"153 1044 LINE",
"127 923 LINE",
"313 923 LINE",
"195 573 LINE",
"4 573 LINE",
"-22 448 LINE",
"153 448 LINE",
"4 0 LINE",
"119 0 LINE",
"270 448 LINE",
"486 448 LINE",
"334 0 LINE",
"452 0 LINE",
"602 448 LINE",
"801 448 LINE",
"827 573 LINE",
"644 573 LINE",
"761 923 LINE",
"951 923 LINE",
"977 1044 LINE",
"804 1044 LINE",
"943 1462 LINE"
);
},
{
closed = 1;
nodes = (
"527 573 LINE",
"312 573 LINE",
"428 923 LINE",
"646 923 LINE"
);
}
);
width = 949;
}
);
unicode = 0023;
},
{
glyphname = period;
lastChange = "2013-03-13 10:41:29 +0200";
layers = (
{
layerId = UUID0;
name = "Regular Italic";
paths = (
{
closed = 1;
nodes = (
"54 231 OFFCURVE",
"8 187 OFFCURVE",
"-9 106 CURVE SMOOTH",
"-26 24 OFFCURVE",
"0 -20 OFFCURVE",
"70 -20 CURVE SMOOTH",
"134 -20 OFFCURVE",
"186 20 OFFCURVE",
"204 106 CURVE SMOOTH",
"223 193 OFFCURVE",
"189 231 OFFCURVE",
"124 231 CURVE SMOOTH"
);
}
);
width = 465;
}
);
unicode = 002E;
},
{
glyphname = periodcentered;
lastChange = "2013-03-13 10:38:35 +0200";
layers = (
{
layerId = UUID0;
name = "Regular Italic";
paths = (
{
closed = 1;
nodes = (
"189 847 OFFCURVE",
"144 804 OFFCURVE",
"126 722 CURVE SMOOTH",
"109 640 OFFCURVE",
"135 596 OFFCURVE",
"205 596 CURVE SMOOTH",
"269 596 OFFCURVE",
"321 636 OFFCURVE",
"339 722 CURVE SMOOTH",
"357 804 OFFCURVE",
"330 847 OFFCURVE",
"259 847 CURVE SMOOTH"
);
}
);
width = 465;
}
);
unicode = 00B7;
},
{
glyphname = question;
lastChange = "2013-03-13 10:38:35 +0200";
layers = (
{
layerId = UUID0;
name = "Regular Italic";
paths = (
{
closed = 1;
nodes = (
"359 1483 OFFCURVE",
"263 1454 OFFCURVE",
"173 1398 CURVE",
"211 1281 LINE",
"276 1319 OFFCURVE",
"337 1345 OFFCURVE",
"410 1345 CURVE SMOOTH",
"515 1345 OFFCURVE",
"558 1272 OFFCURVE",
"529 1137 CURVE SMOOTH",
"504 1017 OFFCURVE",
"472 957 OFFCURVE",
"325 797 CURVE",
"211 682 OFFCURVE",
"172 605 OFFCURVE",
"141 458 CURVE SMOOTH",
"129 401 LINE",
"257 401 LINE",
"266 445 LINE SMOOTH",
"292 568 OFFCURVE",
"324 619 OFFCURVE",
"434 736 CURVE SMOOTH",
"603 916 OFFCURVE",
"647 980 OFFCURVE",
"680 1138 CURVE SMOOTH",
"727 1358 OFFCURVE",
"649 1483 OFFCURVE",
"457 1483 CURVE SMOOTH"
);
},
{
closed = 1;
nodes = (
"91 231 OFFCURVE",
"45 187 OFFCURVE",
"28 105 CURVE SMOOTH",
"10 23 OFFCURVE",
"38 -19 OFFCURVE",
"107 -19 CURVE SMOOTH",
"171 -19 OFFCURVE",
"223 21 OFFCURVE",
"241 105 CURVE SMOOTH",
"259 192 OFFCURVE",
"226 231 OFFCURVE",
"161 231 CURVE SMOOTH"
);
}
);
width = 645;
}
);
unicode = 003F;
},
{
glyphname = questiondown;
lastChange = "2013-03-13 10:38:35 +0200";
layers = (
{
layerId = UUID0;
name = "Regular Italic";
paths = (
{
closed = 1;
nodes = (
"386 677 LINE",
"376 630 LINE SMOOTH",
"351 509 OFFCURVE",
"319 456 OFFCURVE",
"211 341 CURVE SMOOTH",
"21 139 OFFCURVE",
"10 110 OFFCURVE",
"-29 -26 CURVE SMOOTH",
"-32 -37 OFFCURVE",
"-35 -49 OFFCURVE",
"-37 -60 CURVE SMOOTH",
"-84 -278 OFFCURVE",
"-8 -405 OFFCURVE",
"187 -405 CURVE SMOOTH",
"285 -405 OFFCURVE",
"380 -376 OFFCURVE",
"471 -320 CURVE",
"459 -281 OFFCURVE",
"447 -242 OFFCURVE",
"433 -203 CURVE",
"364 -242 OFFCURVE",
"306 -267 OFFCURVE",
"231 -267 CURVE SMOOTH",
"128 -267 OFFCURVE",
"87 -192 OFFCURVE",
"115 -60 CURVE SMOOTH",
"131 16 OFFCURVE",
"158 76 OFFCURVE",
"196 133 CURVE SMOOTH",
"231 186 OFFCURVE",
"389 343 OFFCURVE",
"440 437 CURVE SMOOTH",
"467 485 OFFCURVE",
"488 546 OFFCURVE",
"503 618 CURVE SMOOTH",
"515 677 LINE"
);
},
{
closed = 1;
nodes = (
"474 1097 OFFCURVE",
"421 1057 OFFCURVE",
"403 972 CURVE SMOOTH",
"384 884 OFFCURVE",
"419 846 OFFCURVE",
"482 846 CURVE SMOOTH",
"553 846 OFFCURVE",
"599 889 OFFCURVE",
"617 972 CURVE SMOOTH",
"634 1053 OFFCURVE",
"607 1097 OFFCURVE",
"536 1097 CURVE SMOOTH"
);
}
);
width = 645;
}
);
unicode = 00BF;
},
{
glyphname = quotedbl;
lastChange = "2013-03-13 10:38:35 +0200";
layers = (
{
layerId = UUID0;
name = "Regular Italic";
paths = (
{
closed = 1;
nodes = (
"519 1462 LINE",
"443 934 LINE",
"543 934 LINE",
"688 1462 LINE"
);
},
{
closed = 1;
nodes = (
"185 1462 LINE",
"109 934 LINE",
"209 934 LINE",
"354 1462 LINE"
);
}
);
width = 761;
}
);
unicode = 0022;
},
{
glyphname = quotesingle;
lastChange = "2013-03-13 10:38:35 +0200";
layers = (
{
layerId = UUID0;
name = "Regular Italic";
paths = (
{
closed = 1;
nodes = (
"185 1462 LINE",
"109 934 LINE",
"209 934 LINE",
"354 1462 LINE"
);
}
);
width = 427;
}
);
unicode = 0027;
},
{
glyphname = semicolon;
lastChange = "2013-03-13 10:42:19 +0200";
layers = (
{
layerId = UUID0;
name = "Regular Italic";
paths = (
{
closed = 1;
nodes = (
"70 215 LINE",
"19 68 OFFCURVE",
"-49 -91 OFFCURVE",
"-132 -264 CURVE",
"-23 -264 LINE",
"83 -104 OFFCURVE",
"171 47 OFFCURVE",
"243 192 CURVE",
"234 215 LINE"
);
},
{
closed = 1;
nodes = (
"250 1103 OFFCURVE",
"205 1060 OFFCURVE",
"188 978 CURVE SMOOTH",
"170 896 OFFCURVE",
"197 852 OFFCURVE",
"268 852 CURVE SMOOTH",
"331 852 OFFCURVE",
"384 893 OFFCURVE",
"402 978 CURVE SMOOTH",
"419 1060 OFFCURVE",
"392 1103 OFFCURVE",
"321 1103 CURVE SMOOTH"
);
}
);
width = 465;
}
);
unicode = 003B;
},
{
glyphname = slash;
lastChange = "2013-03-13 10:38:35 +0200";
layers = (
{
layerId = UUID0;
name = "Regular Italic";
paths = (
{
closed = 1;
nodes = (
"727 1462 LINE",
"-116 0 LINE",
"37 0 LINE",
"876 1462 LINE"
);
}
);
width = 751;
}
);
unicode = 002F;
},
{
glyphname = underscore;
lastChange = "2013-03-13 10:38:35 +0200";
layers = (
{
layerId = UUID0;
name = "Regular Italic";
paths = (
{
closed = 1;
nodes = (
"7 -184 LINE",
"-15 -285 LINE",
"787 -285 LINE",
"809 -184 LINE"
);
}
);
width = 794;
}
);
unicode = 005F;
},
{
glyphname = braceleft;
lastChange = "2013-03-13 10:38:35 +0200";
layers = (
{
layerId = UUID0;
name = "Regular Italic";
paths = (
{
closed = 1;
nodes = (
"609 1457 OFFCURVE",
"472 1358 OFFCURVE",
"429 1155 CURVE SMOOTH",
"359 829 LINE SMOOTH",
"326 672 OFFCURVE",
"248 629 OFFCURVE",
"94 629 CURVE",
"68 509 LINE",
"231 509 OFFCURVE",
"279 451 OFFCURVE",
"248 304 CURVE SMOOTH",
"180 -16 LINE SMOOTH",
"139 -217 OFFCURVE",
"227 -319 OFFCURVE",
"466 -324 CURVE",
"493 -200 LINE",
"337 -198 OFFCURVE",
"304 -125 OFFCURVE",
"337 30 CURVE SMOOTH",
"399 320 LINE SMOOTH",
"430 464 OFFCURVE",
"382 539 OFFCURVE",
"244 564 CURVE",
"246 573 LINE",
"393 599 OFFCURVE",
"472 672 OFFCURVE",
"506 821 CURVE SMOOTH",
"572 1133 LINE SMOOTH",
"602 1273 OFFCURVE",
"677 1336 OFFCURVE",
"819 1338 CURVE",
"846 1462 LINE"
);
}
);
width = 737;
}
);
unicode = 007B;
},
{
glyphname = braceright;
lastChange = "2013-03-13 10:38:35 +0200";
layers = (
{
layerId = UUID0;
name = "Regular Italic";
paths = (
{
closed = 1;
nodes = (
"243 1338 LINE",
"389 1336 OFFCURVE",
"435 1270 OFFCURVE",
"406 1133 CURVE SMOOTH",
"340 821 LINE SMOOTH",
"308 672 OFFCURVE",
"358 598 OFFCURVE",
"493 573 CURVE",
"491 564 LINE",
"342 538 OFFCURVE",
"264 464 OFFCURVE",
"233 319 CURVE SMOOTH",
"166 5 LINE SMOOTH",
"137 -131 OFFCURVE",
"63 -198 OFFCURVE",
"-83 -200 CURVE",
"-110 -324 LINE",
"126 -319 OFFCURVE",
"267 -214 OFFCURVE",
"309 -16 CURVE SMOOTH",
"377 304 LINE SMOOTH",
"413 474 OFFCURVE",
"502 509 OFFCURVE",
"643 509 CURVE",
"669 629 LINE",
"508 629 OFFCURVE",
"457 681 OFFCURVE",
"488 829 CURVE SMOOTH",
"558 1155 LINE SMOOTH",
"599 1352 OFFCURVE",
"504 1456 OFFCURVE",
"270 1462 CURVE"
);
}
);
width = 737;
}
);
unicode = 007D;
},
{
glyphname = bracketleft;
lastChange = "2013-03-13 10:38:35 +0200";
layers = (
{
layerId = UUID0;
name = "Regular Italic";
paths = (
{
closed = 1;
nodes = (
"350 1462 LINE",
"-30 -324 LINE",
"391 -324 LINE",
"418 -197 LINE",
"142 -197 LINE",
"468 1336 LINE",
"744 1336 LINE",
"771 1462 LINE"
);
}
);
width = 646;
}
);
unicode = 005B;
},
{
glyphname = bracketright;
lastChange = "2013-03-13 10:38:35 +0200";
layers = (
{
layerId = UUID0;
name = "Regular Italic";
paths = (
{
closed = 1;
nodes = (
"255 1462 LINE",
"228 1336 LINE",
"505 1336 LINE",
"179 -197 LINE",
"-98 -197 LINE",
"-125 -324 LINE",
"296 -324 LINE",
"676 1462 LINE"
);
}
);
width = 646;
}
);
unicode = 005D;
},
{
glyphname = parenleft;
lastChange = "2013-03-13 10:38:35 +0200";
layers = (
{
layerId = UUID0;
name = "Regular Italic";
paths = (
{
closed = 1;
nodes = (
"582 1462 LINE",
"345 1233 OFFCURVE",
"166 906 OFFCURVE",
"92 561 CURVE SMOOTH",
"19 215 OFFCURVE",
"59 -102 OFFCURVE",
"202 -324 CURVE",
"331 -324 LINE",
"212 -91 OFFCURVE",
"177 240 OFFCURVE",
"246 563 CURVE SMOOTH",
"313 881 OFFCURVE",
"476 1200 OFFCURVE",
"713 1462 CURVE"
);
}
);
width = 598;
}
);
unicode = 0028;
},
{
glyphname = parenright;
lastChange = "2013-03-13 10:38:35 +0200";
layers = (
{
layerId = UUID0;
name = "Regular Italic";
paths = (
{
closed = 1;
nodes = (
"264 1462 LINE",
"390 1199 OFFCURVE",
"417 883 OFFCURVE",
"349 563 CURVE SMOOTH",
"281 246 OFFCURVE",
"111 -81 OFFCURVE",
"-114 -324 CURVE",
"15 -324 LINE",
"256 -99 OFFCURVE",
"429 218 OFFCURVE",
"502 561 CURVE SMOOTH",
"575 903 OFFCURVE",
"537 1232 OFFCURVE",
"395 1462 CURVE"
);
}
);
width = 598;
}
);
unicode = 0029;
},
{
glyphname = emdash;
lastChange = "2013-03-13 10:38:35 +0200";
layers = (
{
layerId = UUID0;
name = "Regular Italic";
paths = (
{
closed = 1;
nodes = (
"91 615 LINE",
"65 489 LINE",
"1802 489 LINE",
"1828 615 LINE"
);
}
);
width = 1893;
}
);
unicode = 2014;
},
{
glyphname = endash;
lastChange = "2013-03-13 10:38:35 +0200";
layers = (
{
layerId = UUID0;
name = "Regular Italic";
paths = (
{
closed = 1;
nodes = (
"91 615 LINE",
"65 489 LINE",
"916 489 LINE",
"942 615 LINE"
);
}
);
width = 1007;
}
);
unicode = 2013;
},
{
glyphname = hyphen;
lastChange = "2013-03-13 10:38:35 +0200";
layers = (
{
layerId = UUID0;
name = "Regular Italic";
paths = (
{
closed = 1;
nodes = (
"74 624 LINE",
"44 479 LINE",
"485 479 LINE",
"515 624 LINE"
);
}
);
width = 559;
}
);
unicode = 002D;
},
{
glyphname = uni00AD;
lastChange = "2013-03-13 10:38:35 +0200";
layers = (
{
layerId = UUID0;
name = "Regular Italic";
paths = (
{
closed = 1;
nodes = (
"74 624 LINE",
"44 479 LINE",
"485 479 LINE",
"515 624 LINE"
);
}
);
width = 559;
}
);
unicode = 00AD;
},
{
glyphname = guillemotleft;
lastChange = "2013-03-13 10:38:35 +0200";
layers = (
{
layerId = UUID0;
name = "Regular Italic";
paths = (
{
closed = 1;
nodes = (
"474 550 LINE",
"468 524 LINE",
"679 131 LINE",
"798 192 LINE",
"653 538 LINE",
"945 883 LINE",
"851 943 LINE"
);
},
{
closed = 1;
nodes = (
"82 550 LINE",
"76 524 LINE",
"287 131 LINE",
"406 192 LINE",
"260 538 LINE",
"553 883 LINE",
"459 943 LINE"
);
}
);
width = 950;
}
);
unicode = 00AB;
},
{
glyphname = guillemotright;
lastChange = "2013-03-13 10:38:35 +0200";
layers = (
{
layerId = UUID0;
name = "Regular Italic";
paths = (
{
closed = 1;
nodes = (
"545 883 LINE",
"690 538 LINE",
"398 192 LINE",
"491 131 LINE",
"868 524 LINE",
"874 550 LINE",
"663 943 LINE"
);
},
{
closed = 1;
nodes = (
"153 883 LINE",
"297 538 LINE",
"6 192 LINE",
"98 131 LINE",
"476 524 LINE",
"482 550 LINE",
"270 943 LINE"
);
}
);
width = 950;
}
);
unicode = 00BB;
},
{
glyphname = guilsinglleft;
lastChange = "2013-03-13 10:38:35 +0200";
layers = (
{
layerId = UUID0;
name = "Regular Italic";
paths = (
{
closed = 1;
nodes = (
"82 550 LINE",
"76 524 LINE",
"287 131 LINE",
"406 192 LINE",
"260 538 LINE",
"553 883 LINE",
"459 943 LINE"
);
}
);
width = 559;
}
);
unicode = 2039;
},
{
glyphname = guilsinglright;
lastChange = "2013-03-13 10:38:35 +0200";
layers = (
{
layerId = UUID0;
name = "Regular Italic";
paths = (
{
closed = 1;
nodes = (
"153 883 LINE",
"298 538 LINE",
"6 192 LINE",
"100 131 LINE",
"476 524 LINE",
"482 550 LINE",
"272 943 LINE"
);
}
);
width = 559;
}
);
unicode = 203A;
},
{
glyphname = quotedblbase;
lastChange = "2013-03-13 10:38:35 +0200";
layers = (
{
layerId = UUID0;
name = "Regular Italic";
paths = (
{
closed = 1;
nodes = (
"523 215 LINE",
"479 90 OFFCURVE",
"398 -101 OFFCURVE",
"320 -264 CURVE",
"429 -264 LINE",
"539 -97 OFFCURVE",
"627 53 OFFCURVE",
"696 192 CURVE",
"686 215 LINE"
);
},
{
closed = 1;
nodes = (
"190 215 LINE",
"139 68 OFFCURVE",
"72 -91 OFFCURVE",
"-13 -264 CURVE",
"97 -264 LINE",
"203 -104 OFFCURVE",
"291 47 OFFCURVE",
"363 192 CURVE",
"354 215 LINE"
);
}
);
width = 767;
}
);
unicode = 201E;
},
{
glyphname = quotedblleft;
lastChange = "2013-03-13 10:38:35 +0200";
layers = (
{
layerId = UUID0;
name = "Regular Italic";
paths = (
{
closed = 1;
nodes = (
"588 1462 LINE",
"496 1323 OFFCURVE",
"397 1154 OFFCURVE",
"322 1005 CURVE",
"331 982 LINE",
"495 982 LINE",
"545 1129 OFFCURVE",
"613 1289 OFFCURVE",
"698 1462 CURVE"
);
},
{
closed = 1;
nodes = (
"256 1462 LINE",
"154 1311 OFFCURVE",
"59 1146 OFFCURVE",
"-11 1005 CURVE",
"-2 982 LINE",
"162 982 LINE",
"203 1104 OFFCURVE",
"284 1297 OFFCURVE",
"364 1462 CURVE"
);
}
);
width = 682;
}
);
unicode = 201C;
},
{
glyphname = quotedblright;
lastChange = "2013-03-13 10:38:35 +0200";
layers = (
{
layerId = UUID0;
name = "Regular Italic";
paths = (
{
closed = 1;
nodes = (
"187 1462 LINE",
"135 1312 OFFCURVE",
"68 1153 OFFCURVE",
"-16 982 CURVE",
"94 982 LINE",
"202 1147 OFFCURVE",
"291 1300 OFFCURVE",
"360 1440 CURVE",
"351 1462 LINE"
);
},
{
closed = 1;
nodes = (
"520 1462 LINE",
"468 1310 OFFCURVE",
"401 1150 OFFCURVE",
"318 982 CURVE",
"426 982 LINE",
"535 1148 OFFCURVE",
"624 1301 OFFCURVE",
"693 1440 CURVE",
"684 1462 LINE"
);
}
);
width = 682;
}
);
unicode = 201D;
},
{
glyphname = quoteleft;
lastChange = "2013-03-13 10:38:35 +0200";
layers = (
{
layerId = UUID0;
name = "Regular Italic";
paths = (
{
closed = 1;
nodes = (
"256 1462 LINE",
"154 1311 OFFCURVE",
"59 1146 OFFCURVE",
"-11 1005 CURVE",
"-2 982 LINE",
"162 982 LINE",
"203 1104 OFFCURVE",
"284 1297 OFFCURVE",
"364 1462 CURVE"
);
}
);
width = 350;
}
);
unicode = 2018;
},
{
glyphname = quoteright;
lastChange = "2013-03-13 10:38:35 +0200";
layers = (
{
layerId = UUID0;
name = "Regular Italic";
paths = (
{
closed = 1;
nodes = (
"186 1462 LINE",
"135 1312 OFFCURVE",
"68 1152 OFFCURVE",
"-16 982 CURVE",
"93 982 LINE",
"201 1146 OFFCURVE",
"290 1299 OFFCURVE",
"359 1440 CURVE",
"350 1462 LINE"
);
}
);
width = 350;
}
);
unicode = 2019;
},
{
glyphname = quotesinglbase;
lastChange = "2013-03-13 10:38:35 +0200";
layers = (
{
layerId = UUID0;
name = "Regular Italic";
paths = (
{
closed = 1;
nodes = (
"220 216 LINE",
"170 68 OFFCURVE",
"103 -92 OFFCURVE",
"18 -264 CURVE",
"127 -264 LINE",
"234 -104 OFFCURVE",
"322 48 OFFCURVE",
"394 193 CURVE",
"385 216 LINE"
);
}
);
width = 465;
}
);
unicode = 201A;
},
{
glyphname = "geresh-hb";
lastChange = "2013-03-13 10:42:43 +0200";
layers = (
{
layerId = UUID0;
name = "Regular Italic";
paths = (
{
closed = 1;
nodes = (
"278 1290 LINE",
"227 1140 OFFCURVE",
"160 980 OFFCURVE",
"76 810 CURVE",
"185 810 LINE",
"293 974 OFFCURVE",
"382 1127 OFFCURVE",
"451 1268 CURVE",
"442 1290 LINE"
);
}
);
width = 350;
}
);
unicode = 05F3;
},
{
glyphname = "gershayim-hb";
lastChange = "2013-03-13 10:42:48 +0200";
layers = (
{
layerId = UUID0;
name = "Regular Italic";
paths = (
{
closed = 1;
nodes = (
"287 1290 LINE",
"235 1140 OFFCURVE",
"168 981 OFFCURVE",
"84 810 CURVE",
"194 810 LINE",
"302 975 OFFCURVE",
"391 1128 OFFCURVE",
"460 1268 CURVE",
"451 1290 LINE"
);
},
{
closed = 1;
nodes = (
"620 1290 LINE",
"568 1138 OFFCURVE",
"501 978 OFFCURVE",
"418 810 CURVE",
"526 810 LINE",
"635 976 OFFCURVE",
"724 1129 OFFCURVE",
"793 1268 CURVE",
"784 1290 LINE"
);
}
);
width = 683;
}
);
unicode = 05F4;
},
{
glyphname = "maqaf-hb";
lastChange = "2013-03-13 10:42:57 +0200";
layers = (
{
layerId = UUID0;
name = "Regular Italic";
paths = (
{
closed = 1;
nodes = (
"214 1289 LINE",
"184 1144 LINE",
"625 1144 LINE",
"655 1289 LINE"
);
}
);
width = 559;
}
);
unicode = 05BE;
},
{
glyphname = florin;
lastChange = "2013-03-13 10:38:35 +0200";
layers = (
{
layerId = UUID0;
name = "Regular Italic";
paths = (
{
closed = 1;
nodes = (
"611 1483 OFFCURVE",
"517 1350 OFFCURVE",
"459 1080 CURVE SMOOTH",
"435 968 LINE",
"262 916 LINE",
"245 836 LINE",
"407 836 LINE",
"203 -126 LINE SMOOTH",
"170 -283 OFFCURVE",
"113 -357 OFFCURVE",
"8 -357 CURVE SMOOTH",
"-27 -357 OFFCURVE",
"-66 -351 OFFCURVE",
"-108 -339 CURVE",
"-137 -475 LINE",
"-95 -486 OFFCURVE",
"-49 -492 OFFCURVE",
"1 -492 CURVE SMOOTH",
"190 -492 OFFCURVE",
"307 -369 OFFCURVE",
"361 -114 CURVE SMOOTH",
"429 202 OFFCURVE",
"496 519 OFFCURVE",
"564 836 CURVE",
"763 836 LINE",
"790 963 LINE",
"591 963 LINE",
"622 1108 LINE SMOOTH",
"660 1278 OFFCURVE",
"702 1347 OFFCURVE",
"795 1347 CURVE SMOOTH",
"831 1347 OFFCURVE",
"869 1337 OFFCURVE",
"909 1316 CURVE",
"986 1442 LINE",
"931 1469 OFFCURVE",
"872 1483 OFFCURVE",
"808 1483 CURVE SMOOTH"
);
}
);
width = 862;
}
);
unicode = 0192;
},
{
glyphname = Euro;
lastChange = "2013-03-13 10:38:35 +0200";
layers = (
{
layerId = UUID0;
name = "Regular Italic";
paths = (
{
closed = 1;
nodes = (
"525 1485 OFFCURVE",
"320 1268 OFFCURVE",
"213 914 CURVE",
"75 914 LINE",
"51 804 LINE",
"182 804 LINE",
"177 783 OFFCURVE",
"172 762 OFFCURVE",
"168 742 CURVE SMOOTH",
"162 716 LINE SMOOTH",
"156 686 OFFCURVE",
"150 658 OFFCURVE",
"145 628 CURVE",
"14 628 LINE",
"-9 519 LINE",
"129 519 LINE",
"88 160 OFFCURVE",
"191 -20 OFFCURVE",
"434 -20 CURVE SMOOTH",
"512 -20 OFFCURVE",
"587 -2 OFFCURVE",
"656 33 CURVE",
"688 180 LINE",
"609 140 OFFCURVE",
"545 125 OFFCURVE",
"469 125 CURVE SMOOTH",
"316 125 OFFCURVE",
"257 257 OFFCURVE",
"287 519 CURVE",
"565 519 LINE",
"588 628 LINE",
"302 628 LINE",
"322 732 LINE",
"339 804 LINE",
"662 804 LINE",
"686 914 LINE",
"371 914 LINE",
"458 1196 OFFCURVE",
"573 1340 OFFCURVE",
"716 1340 CURVE SMOOTH",
"771 1340 OFFCURVE",
"824 1321 OFFCURVE",
"876 1283 CURVE",
"967 1412 LINE",
"904 1461 OFFCURVE",
"834 1485 OFFCURVE",
"741 1485 CURVE SMOOTH"
);
}
);
width = 862;
}
);
unicode = 20AC;
},
{
glyphname = cent;
lastChange = "2013-03-13 10:38:35 +0200";
layers = (
{
layerId = UUID0;
name = "Regular Italic";
paths = (
{
closed = 1;
nodes = (
"600 1481 LINE",
"563 1309 LINE",
"366 1269 OFFCURVE",
"234 1075 OFFCURVE",
"163 742 CURVE SMOOTH",
"94 416 OFFCURVE",
"147 226 OFFCURVE",
"325 188 CURVE",
"280 -20 LINE",
"390 -20 LINE",
"433 182 LINE",
"496 189 OFFCURVE",
"549 204 OFFCURVE",
"593 228 CURVE",
"622 362 LINE",
"555 332 OFFCURVE",
"495 317 OFFCURVE",
"441 317 CURVE SMOOTH",
"298 317 OFFCURVE",
"261 460 OFFCURVE",
"321 745 CURVE SMOOTH",
"381 1028 OFFCURVE",
"475 1179 OFFCURVE",
"625 1179 CURVE SMOOTH",
"662 1179 OFFCURVE",
"704 1166 OFFCURVE",
"749 1143 CURVE",
"774 1185 OFFCURVE",
"801 1227 OFFCURVE",
"825 1269 CURVE",
"786 1294 OFFCURVE",
"736 1310 OFFCURVE",
"674 1316 CURVE",
"710 1481 LINE"
);
}
);
width = 862;
}
);
unicode = 00A2;
},
{
glyphname = currency;
lastChange = "2013-03-13 10:38:35 +0200";
layers = (
{
layerId = UUID0;
name = "Regular Italic";
paths = (
{
closed = 1;
nodes = (
"968 1126 OFFCURVE",
"913 1082 OFFCURVE",
"860 1038 CURVE",
"803 1090 OFFCURVE",
"732 1116 OFFCURVE",
"647 1116 CURVE SMOOTH",
"560 1116 OFFCURVE",
"476 1089 OFFCURVE",
"396 1037 CURVE",
"291 1171 LINE",
"190 1087 LINE",
"295 954 LINE",
"229 883 OFFCURVE",
"188 806 OFFCURVE",
"170 723 CURVE SMOOTH",
"152 637 OFFCURVE",
"160 559 OFFCURVE",
"197 490 CURVE",
"38 360 LINE",
"103 276 LINE",
"261 407 LINE",
"316 356 OFFCURVE",
"389 330 OFFCURVE",
"480 330 CURVE SMOOTH",
"565 330 OFFCURVE",
"647 356 OFFCURVE",
"726 405 CURVE",
"832 274 LINE",
"933 356 LINE",
"899 401 OFFCURVE",
"863 445 OFFCURVE",
"828 489 CURVE",
"895 557 OFFCURVE",
"937 635 OFFCURVE",
"956 723 CURVE SMOOTH",
"974 809 OFFCURVE",
"965 887 OFFCURVE",
"928 956 CURVE",
"982 1000 OFFCURVE",
"1036 1044 OFFCURVE",
"1090 1089 CURVE",
"1021 1171 LINE"
);
},
{
closed = 1;
nodes = (
"778 1001 OFFCURVE",
"874 868 OFFCURVE",
"843 723 CURVE SMOOTH",
"810 569 OFFCURVE",
"657 446 OFFCURVE",
"504 446 CURVE SMOOTH",
"349 446 OFFCURVE",
"253 568 OFFCURVE",
"286 723 CURVE SMOOTH",
"319 880 OFFCURVE",
"471 1001 OFFCURVE",
"629 1001 CURVE SMOOTH"
);
}
);
width = 1127;
}
);
unicode = 00A4;
},
{
glyphname = dollar;
lastChange = "2013-03-13 10:38:35 +0200";
layers = (
{
layerId = UUID0;
name = "Regular Italic";
paths = (
{
closed = 1;
nodes = (
"560 1556 LINE",
"522 1378 LINE",
"346 1353 OFFCURVE",
"202 1225 OFFCURVE",
"164 1047 CURVE SMOOTH",
"130 890 OFFCURVE",
"167 801 OFFCURVE",
"324 713 CURVE SMOOTH",
"340 704 OFFCURVE",
"356 695 OFFCURVE",
"375 687 CURVE",
"281 244 LINE",
"182 246 OFFCURVE",
"74 276 OFFCURVE",
"3 324 CURVE",
"-29 174 LINE",
"39 133 OFFCURVE",
"133 112 OFFCURVE",
"253 110 CURVE",
"204 -119 LINE",
"297 -119 LINE",
"347 116 LINE",
"538 141 OFFCURVE",
"679 268 OFFCURVE",
"718 448 CURVE SMOOTH",
"755 623 OFFCURVE",
"682 714 OFFCURVE",
"493 801 CURVE",
"587 1246 LINE",
"655 1242 OFFCURVE",
"725 1222 OFFCURVE",
"798 1184 CURVE",
"823 1227 OFFCURVE",
"850 1269 OFFCURVE",
"876 1312 CURVE",
"798 1354 OFFCURVE",
"712 1377 OFFCURVE",
"616 1381 CURVE",
"653 1556 LINE"
);
},
{
closed = 1;
nodes = (
"565 595 OFFCURVE",
"594 539 OFFCURVE",
"573 442 CURVE SMOOTH",
"553 347 OFFCURVE",
"478 273 OFFCURVE",
"376 252 CURVE",
"460 647 LINE"
);
},
{
closed = 1;
nodes = (
"408 841 LINE",
"315 889 OFFCURVE",
"283 941 OFFCURVE",
"307 1051 CURVE SMOOTH",
"327 1147 OFFCURVE",
"397 1222 OFFCURVE",
"493 1242 CURVE"
);
}
);
width = 862;
}
);
unicode = 0024;
},
{
glyphname = sterling;
lastChange = "2013-03-13 10:38:35 +0200";
layers = (
{
layerId = UUID0;
name = "Regular Italic";
paths = (
{
closed = 1;
nodes = (
"475 1483 OFFCURVE",
"363 1341 OFFCURVE",
"303 1058 CURVE SMOOTH",
"248 796 LINE",
"91 796 LINE",
"64 671 LINE",
"221 671 LINE",
"169 426 LINE SMOOTH",
"138 280 OFFCURVE",
"67 176 OFFCURVE",
"-44 130 CURVE",
"-72 0 LINE",
"633 0 LINE",
"664 142 LINE",
"138 142 LINE",
"218 192 OFFCURVE",
"272 272 OFFCURVE",
"303 383 CURVE",
"320 430 OFFCURVE",
"334 479 OFFCURVE",
"345 531 CURVE SMOOTH",
"375 671 LINE",
"622 671 LINE",
"649 796 LINE",
"402 796 LINE",
"467 1102 LINE SMOOTH",
"502 1270 OFFCURVE",
"562 1346 OFFCURVE",
"668 1346 CURVE SMOOTH",
"730 1346 OFFCURVE",
"781 1332 OFFCURVE",
"836 1279 CURVE",
"927 1400 LINE",
"866 1455 OFFCURVE",
"788 1483 OFFCURVE",
"694 1483 CURVE SMOOTH"
);
}
);
width = 862;
}
);
unicode = 00A3;
},
{
glyphname = uni20AA;
lastChange = "2013-03-13 10:38:35 +0200";
layers = (
{
layerId = UUID0;
name = "Regular Italic";
paths = (
{
closed = 1;
nodes = (
"1144 1290 LINE",
"1016 689 LINE SMOOTH",
"940 331 OFFCURVE",
"822 133 OFFCURVE",
"494 133 CURVE SMOOTH",
"460 133 LINE",
"636 960 LINE",
"485 960 LINE",
"281 0 LINE",
"466 0 LINE SMOOTH",
"972 0 OFFCURVE",
"1095 367 OFFCURVE",
"1163 689 CURVE SMOOTH",
"1291 1290 LINE"
);
},
{
closed = 1;
nodes = (
"278 1290 LINE",
"4 0 LINE",
"155 0 LINE",
"401 1156 LINE",
"584 1156 LINE SMOOTH",
"820 1156 OFFCURVE",
"811 1080 OFFCURVE",
"754 809 CURVE SMOOTH",
"652 329 LINE",
"799 329 LINE",
"901 809 LINE SMOOTH",
"954 1058 OFFCURVE",
"1006 1290 OFFCURVE",
"612 1290 CURVE SMOOTH"
);
}
);
width = 1282;
}
);
unicode = 20AA;
},
{
glyphname = yen;
lastChange = "2013-03-13 10:38:35 +0200";
layers = (
{
layerId = UUID0;
name = "Regular Italic";
paths = (
{
closed = 1;
nodes = (
"782 1462 LINE",
"434 744 LINE",
"386 1462 LINE",
"228 1462 LINE",
"252 1199 OFFCURVE",
"279 936 OFFCURVE",
"303 673 CURVE",
"114 673 LINE",
"90 562 LINE",
"314 562 LINE",
"314 561 OFFCURVE",
"314 561 OFFCURVE",
"315 561 CURVE",
"277 381 LINE",
"52 381 LINE",
"28 270 LINE",
"253 270 LINE",
"196 0 LINE",
"353 0 LINE",
"410 270 LINE",
"638 270 LINE",
"662 381 LINE",
"434 381 LINE",
"472 562 LINE",
"700 562 LINE",
"724 673 LINE",
"531 673 LINE",
"668 936 OFFCURVE",
"804 1199 OFFCURVE",
"942 1462 CURVE"
);
}
);
width = 862;
}
);
unicode = 00A5;
},
{
glyphname = asciitilde;
lastChange = "2013-03-13 10:38:35 +0200";
layers = (
{
layerId = UUID0;
name = "Regular Italic";
paths = (
{
closed = 1;
nodes = (
"744 775 OFFCURVE",
"669 729 OFFCURVE",
"606 729 CURVE SMOOTH",
"566 729 OFFCURVE",
"533 741 OFFCURVE",
"488 768 CURVE SMOOTH",
"431 800 OFFCURVE",
"373 835 OFFCURVE",
"307 840 CURVE",
"214 840 OFFCURVE",
"122 772 OFFCURVE",
"122 772 CURVE",
"92 631 LINE",
"134 658 OFFCURVE",
"206 711 OFFCURVE",
"288 711 CURVE",
"350 696 OFFCURVE",
"399 656 OFFCURVE",
"454 631 CURVE SMOOTH",
"492 613 OFFCURVE",
"528 603 OFFCURVE",
"573 603 CURVE SMOOTH",
"648 603 OFFCURVE",
"719 639 OFFCURVE",
"785 709 CURVE",
"814 847 LINE"
);
}
);
width = 852;
}
);
unicode = 007E;
},
{
glyphname = divide;
lastChange = "2013-03-13 10:38:35 +0200";
layers = (
{
layerId = UUID0;
name = "Regular Italic";
paths = (
{
closed = 1;
nodes = (
"87 784 LINE",
"61 660 LINE",
"763 660 LINE",
"789 784 LINE"
);
},
{
closed = 1;
nodes = (
"314 491 OFFCURVE",
"275 452 OFFCURVE",
"258 373 CURVE SMOOTH",
"240 291 OFFCURVE",
"266 253 OFFCURVE",
"325 253 CURVE SMOOTH",
"379 253 OFFCURVE",
"426 292 OFFCURVE",
"443 373 CURVE SMOOTH",
"460 451 OFFCURVE",
"437 491 OFFCURVE",
"376 491 CURVE SMOOTH"
);
},
{
closed = 1;
nodes = (
"463 1190 OFFCURVE",
"423 1150 OFFCURVE",
"406 1071 CURVE SMOOTH",
"389 989 OFFCURVE",
"415 952 OFFCURVE",
"474 952 CURVE SMOOTH",
"528 952 OFFCURVE",
"574 990 OFFCURVE",
"591 1071 CURVE SMOOTH",
"608 1149 OFFCURVE",
"586 1190 OFFCURVE",
"525 1190 CURVE SMOOTH"
);
}
);
width = 852;
}
);
unicode = 00F7;
},
{
glyphname = equal;
lastChange = "2013-03-13 10:38:35 +0200";
layers = (
{
layerId = UUID0;
name = "Regular Italic";
paths = (
{
closed = 1;
nodes = (
"44 574 LINE",
"18 451 LINE",
"720 451 LINE",
"746 574 LINE"
);
},
{
closed = 1;
nodes = (
"132 991 LINE",
"106 869 LINE",
"808 869 LINE",
"834 991 LINE"
);
}
);
width = 852;
}
);
unicode = 003D;
},
{
glyphname = greater;
lastChange = "2013-03-13 10:38:35 +0200";
layers = (
{
layerId = UUID0;
name = "Regular Italic";
paths = (
{
closed = 1;
nodes = (
"141 1041 LINE",
"637 723 LINE",
"5 404 LINE",
"-25 261 LINE",
"767 675 LINE",
"788 772 LINE",
"171 1183 LINE"
);
}
);
width = 852;
}
);
unicode = 003E;
},
{
glyphname = less;
lastChange = "2013-03-13 10:38:35 +0200";
layers = (
{
layerId = UUID0;
name = "Regular Italic";
paths = (
{
closed = 1;
nodes = (
"86 772 LINE",
"65 675 LINE",
"680 261 LINE",
"710 404 LINE",
"215 723 LINE",
"846 1041 LINE",
"876 1183 LINE"
);
}
);
width = 852;
}
);
unicode = 003C;
},
{
glyphname = logicalnot;
lastChange = "2013-03-13 10:38:35 +0200";
layers = (
{
layerId = UUID0;
name = "Regular Italic";
paths = (
{
closed = 1;
nodes = (
"132 784 LINE",
"106 661 LINE",
"674 661 LINE",
"586 250 LINE",
"706 250 LINE",
"820 784 LINE"
);
}
);
width = 852;
}
);
unicode = 00AC;
},
{
glyphname = multiply;
lastChange = "2013-03-13 10:38:35 +0200";
layers = (
{
layerId = UUID0;
name = "Regular Italic";
paths = (
{
closed = 1;
nodes = (
"662 1006 OFFCURVE",
"552 910 OFFCURVE",
"443 813 CURVE",
"240 1100 LINE",
"136 1025 LINE",
"205 924 OFFCURVE",
"276 823 OFFCURVE",
"346 723 CURVE",
"4 417 LINE",
"29 391 OFFCURVE",
"53 366 OFFCURVE",
"77 340 CURVE",
"405 632 LINE",
"608 343 LINE",
"642 368 OFFCURVE",
"677 393 OFFCURVE",
"712 419 CURVE",
"642 520 OFFCURVE",
"574 622 OFFCURVE",
"503 723 CURVE",
"618 824 OFFCURVE",
"731 926 OFFCURVE",
"845 1028 CURVE",
"771 1103 LINE"
);
}
);
width = 852;
}
);
unicode = 00D7;
},
{
glyphname = percent;
lastChange = "2013-03-13 10:38:35 +0200";
layers = (
{
layerId = UUID0;
name = "Regular Italic";
paths = (
{
closed = 1;
nodes = (
"1010 1462 LINE",
"182 0 LINE",
"309 0 LINE",
"1138 1462 LINE"
);
},
{
closed = 1;
nodes = (
"321 1483 OFFCURVE",
"210 1324 OFFCURVE",
"146 1025 CURVE SMOOTH",
"83 727 OFFCURVE",
"125 565 OFFCURVE",
"279 565 CURVE SMOOTH",
"429 565 OFFCURVE",
"549 730 OFFCURVE",
"611 1026 CURVE SMOOTH",
"675 1327 OFFCURVE",
"628 1483 OFFCURVE",
"474 1483 CURVE SMOOTH"
);
},
{
closed = 1;
nodes = (
"519 1367 OFFCURVE",
"529 1256 OFFCURVE",
"481 1027 CURVE SMOOTH",
"431 794 OFFCURVE",
"378 685 OFFCURVE",
"306 685 CURVE SMOOTH",
"232 685 OFFCURVE",
"228 796 OFFCURVE",
"277 1027 CURVE SMOOTH",
"326 1257 OFFCURVE",
"377 1367 OFFCURVE",
"448 1367 CURVE SMOOTH"
);
},
{
closed = 1;
nodes = (
"888 898 OFFCURVE",
"776 742 OFFCURVE",
"712 439 CURVE SMOOTH",
"649 144 OFFCURVE",
"690 -19 OFFCURVE",
"844 -19 CURVE SMOOTH",
"993 -19 OFFCURVE",
"1113 142 OFFCURVE",
"1176 441 CURVE SMOOTH",
"1240 742 OFFCURVE",
"1193 898 OFFCURVE",
"1039 898 CURVE SMOOTH"
);
},
{
closed = 1;
nodes = (
"1083 781 OFFCURVE",
"1095 671 OFFCURVE",
"1046 441 CURVE SMOOTH",
"997 209 OFFCURVE",
"944 100 OFFCURVE",
"872 100 CURVE SMOOTH",
"798 100 OFFCURVE",
"794 211 OFFCURVE",
"843 441 CURVE SMOOTH",
"892 672 OFFCURVE",
"942 781 OFFCURVE",
"1013 781 CURVE SMOOTH"
);
}
);
width = 1322;
}
);
unicode = 0025;
},
{
glyphname = perthousand;
lastChange = "2013-03-13 10:38:35 +0200";
layers = (
{
layerId = UUID0;
name = "Regular Italic";
paths = (
{
closed = 1;
nodes = (
"1010 1462 LINE",
"180 0 LINE",
"310 0 LINE",
"586 487 OFFCURVE",
"862 975 OFFCURVE",
"1138 1462 CURVE"
);
},
{
closed = 1;
nodes = (
"321 1483 OFFCURVE",
"209 1323 OFFCURVE",
"145 1024 CURVE SMOOTH",
"82 727 OFFCURVE",
"124 565 OFFCURVE",
"278 565 CURVE SMOOTH",
"428 565 OFFCURVE",
"548 730 OFFCURVE",
"610 1026 CURVE SMOOTH",
"674 1326 OFFCURVE",
"627 1483 OFFCURVE",
"473 1483 CURVE SMOOTH"
);
},
{
closed = 1;
nodes = (
"518 1367 OFFCURVE",
"528 1255 OFFCURVE",
"479 1026 CURVE SMOOTH",
"430 794 OFFCURVE",
"377 684 OFFCURVE",
"305 684 CURVE SMOOTH",
"231 684 OFFCURVE",
"228 796 OFFCURVE",
"276 1026 CURVE SMOOTH",
"326 1257 OFFCURVE",
"376 1367 OFFCURVE",
"448 1367 CURVE SMOOTH"
);
},
{
closed = 1;
nodes = (
"888 897 OFFCURVE",
"777 745 OFFCURVE",
"712 439 CURVE SMOOTH",
"649 144 OFFCURVE",
"690 -19 OFFCURVE",
"844 -19 CURVE SMOOTH",
"993 -19 OFFCURVE",
"1114 142 OFFCURVE",
"1177 440 CURVE SMOOTH",
"1241 741 OFFCURVE",
"1193 897 OFFCURVE",
"1039 897 CURVE SMOOTH"
);
},
{
closed = 1;
nodes = (
"1083 781 OFFCURVE",
"1094 667 OFFCURVE",
"1046 441 CURVE SMOOTH",
"997 211 OFFCURVE",
"942 99 OFFCURVE",
"871 99 CURVE SMOOTH",
"797 99 OFFCURVE",
"793 210 OFFCURVE",
"842 441 CURVE SMOOTH",
"891 671 OFFCURVE",
"941 781 OFFCURVE",
"1013 781 CURVE SMOOTH"
);
},
{
closed = 1;
nodes = (
"1426 897 OFFCURVE",
"1315 738 OFFCURVE",
"1252 439 CURVE SMOOTH",
"1189 143 OFFCURVE",
"1230 -19 OFFCURVE",
"1384 -19 CURVE SMOOTH",
"1533 -19 OFFCURVE",
"1653 145 OFFCURVE",
"1716 440 CURVE SMOOTH",
"1780 742 OFFCURVE",
"1732 897 OFFCURVE",
"1579 897 CURVE SMOOTH"
);
},
{
closed = 1;
nodes = (
"1622 781 OFFCURVE",
"1633 667 OFFCURVE",
"1585 441 CURVE SMOOTH",
"1536 208 OFFCURVE",
"1483 99 OFFCURVE",
"1411 99 CURVE SMOOTH",
"1337 99 OFFCURVE",
"1334 210 OFFCURVE",
"1383 441 CURVE SMOOTH",
"1432 671 OFFCURVE",
"1482 781 OFFCURVE",
"1553 781 CURVE SMOOTH"
);
}
);
width = 1879;
}
);
unicode = 2030;
},
{
glyphname = plus;
lastChange = "2013-03-13 10:38:35 +0200";
layers = (
{
layerId = UUID0;
name = "Regular Italic";
paths = (
{
closed = 1;
nodes = (
"467 1198 LINE",
"379 784 LINE",
"88 784 LINE",
"62 661 LINE",
"353 661 LINE",
"265 250 LINE",
"385 250 LINE",
"473 661 LINE",
"764 661 LINE",
"790 784 LINE",
"499 784 LINE",
"587 1198 LINE"
);
}
);
width = 852;
}
);
unicode = 002B;
},
{
glyphname = plusminus;
lastChange = "2013-03-13 10:38:35 +0200";
layers = (
{
layerId = UUID0;
name = "Regular Italic";
paths = (
{
closed = 1;
nodes = (
"493 1198 LINE",
"405 784 LINE",
"114 784 LINE",
"88 661 LINE",
"379 661 LINE",
"292 250 LINE",
"412 250 LINE",
"499 661 LINE",
"790 661 LINE",
"816 784 LINE",
"525 784 LINE",
"613 1198 LINE"
);
},
{
closed = 1;
nodes = (
"-26 123 LINE",
"-52 0 LINE",
"650 0 LINE",
"676 123 LINE"
);
}
);
width = 852;
}
);
unicode = 00B1;
},
{
glyphname = ampersand;
lastChange = "2013-03-13 10:38:35 +0200";
layers = (
{
layerId = UUID0;
name = "Regular Italic";
paths = (
{
closed = 1;
nodes = (
"423 1483 OFFCURVE",
"302 1359 OFFCURVE",
"261 1165 CURVE SMOOTH",
"235 1043 OFFCURVE",
"242 967 OFFCURVE",
"303 794 CURVE",
"109 658 OFFCURVE",
"23 543 OFFCURVE",
"-14 367 CURVE SMOOTH",
"-67 122 OFFCURVE",
"20 -20 OFFCURVE",
"212 -20 CURVE SMOOTH",
"340 -20 OFFCURVE",
"440 25 OFFCURVE",
"562 152 CURVE",
"581 102 OFFCURVE",
"599 50 OFFCURVE",
"619 0 CURVE",
"791 0 LINE",
"678 263 LINE",
"761 368 OFFCURVE",
"848 543 OFFCURVE",
"888 685 CURVE",
"748 685 LINE",
"719 574 OFFCURVE",
"677 474 OFFCURVE",
"620 393 CURVE",
"571 520 OFFCURVE",
"524 645 OFFCURVE",
"474 771 CURVE",
"637 893 OFFCURVE",
"714 1010 OFFCURVE",
"751 1181 CURVE SMOOTH",
"791 1369 OFFCURVE",
"717 1483 OFFCURVE",
"575 1483 CURVE SMOOTH"
);
},
{
closed = 1;
nodes = (
"511 271 LINE",
"423 169 OFFCURVE",
"343 121 OFFCURVE",
"257 121 CURVE SMOOTH",
"153 121 OFFCURVE",
"106 212 OFFCURVE",
"140 374 CURVE SMOOTH",
"168 508 OFFCURVE",
"220 589 OFFCURVE",
"350 690 CURVE"
);
},
{
closed = 1;
nodes = (
"605 1348 OFFCURVE",
"630 1291 OFFCURVE",
"605 1173 CURVE SMOOTH",
"579 1051 OFFCURVE",
"533 958 OFFCURVE",
"431 877 CURVE",
"397 956 OFFCURVE",
"386 1071 OFFCURVE",
"408 1172 CURVE SMOOTH",
"432 1286 OFFCURVE",
"481 1348 OFFCURVE",
"542 1348 CURVE SMOOTH"
);
}
);
width = 951;
}
);
unicode = 0026;
},
{
glyphname = asciicircum;
lastChange = "2013-03-13 10:38:35 +0200";
layers = (
{
layerId = UUID0;
name = "Regular Italic";
paths = (
{
closed = 1;
nodes = (
"483 1463 LINE",
"-54 681 LINE",
"87 681 LINE",
"495 1295 LINE",
"654 681 LINE",
"797 681 LINE",
"573 1463 LINE"
);
}
);
width = 908;
}
);
unicode = 005E;
},
{
glyphname = at;
lastChange = "2013-03-13 10:38:35 +0200";
layers = (
{
layerId = UUID0;
name = "Regular Italic";
paths = (
{
closed = 1;
nodes = (
"513 1474 OFFCURVE",
"201 1134 OFFCURVE",
"83 580 CURVE SMOOTH",
"-20 96 OFFCURVE",
"121 -176 OFFCURVE",
"459 -176 CURVE SMOOTH",
"569 -176 OFFCURVE",
"659 -153 OFFCURVE",
"750 -106 CURVE",
"775 16 LINE",
"692 -29 OFFCURVE",
"590 -59 OFFCURVE",
"489 -59 CURVE SMOOTH",
"229 -59 OFFCURVE",
"130 188 OFFCURVE",
"217 598 CURVE SMOOTH",
"311 1038 OFFCURVE",
"558 1355 OFFCURVE",
"850 1355 CURVE SMOOTH",
"1087 1355 OFFCURVE",
"1189 1116 OFFCURVE",
"1110 743 CURVE SMOOTH",
"1055 486 OFFCURVE",
"990 351 OFFCURVE",
"906 351 CURVE SMOOTH",
"846 351 OFFCURVE",
"823 394 OFFCURVE",
"848 511 CURVE SMOOTH",
"859 564 LINE",
"980 1038 LINE",
"920 1060 OFFCURVE",
"858 1071 OFFCURVE",
"793 1071 CURVE SMOOTH",
"607 1071 OFFCURVE",
"460 898 OFFCURVE",
"395 593 CURVE SMOOTH",
"345 358 OFFCURVE",
"396 231 OFFCURVE",
"529 231 CURVE SMOOTH",
"618 231 OFFCURVE",
"686 291 OFFCURVE",
"742 415 CURVE",
"751 415 LINE",
"736 299 OFFCURVE",
"774 231 OFFCURVE",
"879 231 CURVE SMOOTH",
"1044 231 OFFCURVE",
"1169 401 OFFCURVE",
"1241 739 CURVE SMOOTH",
"1334 1174 OFFCURVE",
"1201 1474 OFFCURVE",
"874 1474 CURVE SMOOTH"
);
},
{
closed = 1;
nodes = (
"787 960 OFFCURVE",
"809 956 OFFCURVE",
"825 951 CURVE",
"751 671 LINE SMOOTH",
"692 453 OFFCURVE",
"640 351 OFFCURVE",
"578 351 CURVE SMOOTH",
"513 351 OFFCURVE",
"496 433 OFFCURVE",
"529 590 CURVE SMOOTH",
"580 826 OFFCURVE",
"663 960 OFFCURVE",
"758 960 CURVE SMOOTH"
);
}
);
width = 1316;
}
);
unicode = 0040;
},
{
glyphname = bar;
lastChange = "2013-03-13 10:38:35 +0200";
layers = (
{
layerId = UUID0;
name = "Regular Italic";
paths = (
{
closed = 1;
nodes = (
"596 1554 LINE",
"162 -485 LINE",
"294 -485 LINE",
"728 1554 LINE"
);
}
);
width = 891;
}
);
unicode = 007C;
},
{
glyphname = brokenbar;
lastChange = "2013-03-13 10:38:35 +0200";
layers = (
{
layerId = UUID0;
name = "Regular Italic";
paths = (
{
closed = 1;
nodes = (
"333 317 LINE",
"162 -485 LINE",
"294 -485 LINE",
"465 317 LINE"
);
},
{
closed = 1;
nodes = (
"596 1554 LINE",
"425 753 LINE",
"557 753 LINE",
"728 1554 LINE"
);
}
);
width = 891;
}
);
unicode = 00A6;
},
{
glyphname = copyright;
lastChange = "2013-03-13 10:38:35 +0200";
layers = (
{
layerId = UUID0;
name = "Regular Italic";
paths = (
{
closed = 1;
nodes = (
"611 1483 OFFCURVE",
"188 1158 OFFCURVE",
"97 731 CURVE SMOOTH",
"15 344 OFFCURVE",
"247 -20 OFFCURVE",
"689 -20 CURVE SMOOTH",
"1099 -20 OFFCURVE",
"1512 313 OFFCURVE",
"1601 731 CURVE SMOOTH",
"1687 1134 OFFCURVE",
"1429 1483 OFFCURVE",
"1009 1483 CURVE SMOOTH"
);
},
{
closed = 1;
nodes = (
"733 1186 OFFCURVE",
"537 1007 OFFCURVE",
"477 727 CURVE SMOOTH",
"416 438 OFFCURVE",
"525 274 OFFCURVE",
"782 274 CURVE SMOOTH",
"858 274 OFFCURVE",
"934 290 OFFCURVE",
"1012 322 CURVE",
"1037 441 LINE",
"960 410 OFFCURVE",
"882 393 OFFCURVE",
"816 393 CURVE SMOOTH",
"633 393 OFFCURVE",
"572 504 OFFCURVE",
"620 732 CURVE SMOOTH",
"664 940 OFFCURVE",
"793 1067 OFFCURVE",
"964 1067 CURVE SMOOTH",
"1027 1067 OFFCURVE",
"1090 1051 OFFCURVE",
"1151 1018 CURVE",
"1222 1127 LINE",
"1150 1166 OFFCURVE",
"1069 1186 OFFCURVE",
"986 1186 CURVE SMOOTH"
);
},
{
closed = 1;
nodes = (
"1336 1376 OFFCURVE",
"1569 1086 OFFCURVE",
"1494 731 CURVE SMOOTH",
"1420 385 OFFCURVE",
"1075 86 OFFCURVE",
"712 86 CURVE SMOOTH",
"367 86 OFFCURVE",
"126 365 OFFCURVE",
"204 731 CURVE SMOOTH",
"277 1075 OFFCURVE",
"623 1376 OFFCURVE",
"986 1376 CURVE SMOOTH"
);
}
);
width = 1699;
}
);
unicode = 00A9;
},
{
glyphname = dagger;
lastChange = "2013-03-13 10:38:35 +0200";
layers = (
{
layerId = UUID0;
name = "Regular Italic";
paths = (
{
closed = 1;
nodes = (
"537 1556 LINE",
"481 1132 LINE",
"200 1154 LINE",
"171 1017 LINE",
"460 1034 LINE",
"207 0 LINE",
"372 0 LINE",
"557 1034 LINE",
"861 1017 LINE",
"890 1154 LINE",
"578 1132 LINE",
"702 1556 LINE"
);
}
);
width = 930;
}
);
unicode = 2020;
},
{
glyphname = daggerdbl;
lastChange = "2013-03-13 10:38:35 +0200";
layers = (
{
layerId = UUID0;
name = "Regular Italic";
paths = (
{
closed = 1;
nodes = (
"540 1556 LINE",
"494 1176 LINE",
"205 1198 LINE",
"176 1061 LINE",
"473 1078 LINE",
"388 786 LINE",
"345 479 LINE",
"56 496 LINE",
"27 359 LINE",
"324 380 LINE",
"210 0 LINE",
"375 0 LINE",
"421 380 LINE",
"724 359 LINE",
"753 496 LINE",
"442 479 LINE",
"530 786 LINE",
"570 1078 LINE",
"873 1061 LINE",
"902 1198 LINE",
"591 1176 LINE",
"705 1556 LINE"
);
}
);
width = 930;
}
);
unicode = 2021;
},
{
glyphname = degree;
lastChange = "2013-03-13 10:38:35 +0200";
layers = (
{
layerId = UUID0;
name = "Regular Italic";
paths = (
{
closed = 1;
nodes = (
"409 1483 OFFCURVE",
"329 1453 OFFCURVE",
"255 1393 CURVE SMOOTH",
"184 1334 OFFCURVE",
"137 1260 OFFCURVE",
"118 1170 CURVE SMOOTH",
"99 1080 OFFCURVE",
"113 1005 OFFCURVE",
"159 947 CURVE SMOOTH",
"207 888 OFFCURVE",
"275 859 OFFCURVE",
"365 859 CURVE SMOOTH",
"452 859 OFFCURVE",
"532 888 OFFCURVE",
"604 947 CURVE SMOOTH",
"678 1006 OFFCURVE",
"724 1080 OFFCURVE",
"743 1170 CURVE SMOOTH",
"762 1260 OFFCURVE",
"748 1335 OFFCURVE",
"699 1394 CURVE SMOOTH",
"651 1453 OFFCURVE",
"584 1483 OFFCURVE",
"497 1483 CURVE SMOOTH"
);
},
{
closed = 1;
nodes = (
"527 1370 OFFCURVE",
"569 1351 OFFCURVE",
"598 1312 CURVE SMOOTH",
"628 1274 OFFCURVE",
"636 1226 OFFCURVE",
"624 1170 CURVE SMOOTH",
"612 1114 OFFCURVE",
"583 1067 OFFCURVE",
"537 1029 CURVE SMOOTH",
"491 991 OFFCURVE",
"441 972 OFFCURVE",
"389 972 CURVE SMOOTH",
"335 972 OFFCURVE",
"294 991 OFFCURVE",
"264 1029 CURVE SMOOTH",
"233 1068 OFFCURVE",
"225 1115 OFFCURVE",
"237 1170 CURVE SMOOTH",
"248 1225 OFFCURVE",
"276 1271 OFFCURVE",
"322 1311 CURVE SMOOTH",
"368 1351 OFFCURVE",
"418 1370 OFFCURVE",
"473 1370 CURVE SMOOTH"
);
}
);
width = 862;
}
);
unicode = 00B0;
},
{
glyphname = paragraph;
lastChange = "2013-03-13 10:38:35 +0200";
layers = (
{
layerId = UUID0;
name = "Regular Italic";
paths = (
{
closed = 1;
nodes = (
"602 1556 LINE SMOOTH",
"402 1556 OFFCURVE",
"277 1383 OFFCURVE",
"205 1042 CURVE SMOOTH",
"133 704 OFFCURVE",
"175 541 OFFCURVE",
"345 541 CURVE SMOOTH",
"376 541 OFFCURVE",
"405 547 OFFCURVE",
"430 559 CURVE",
"256 -260 LINE",
"370 -260 LINE",
"729 1428 LINE",
"880 1428 LINE",
"521 -260 LINE",
"634 -260 LINE",
"1020 1556 LINE"
);
}
);
width = 1005;
}
);
unicode = 00B6;
},
{
glyphname = registered;
lastChange = "2013-03-13 10:38:35 +0200";
layers = (
{
layerId = UUID0;
name = "Regular Italic";
paths = (
{
closed = 1;
nodes = (
"611 1483 OFFCURVE",
"188 1158 OFFCURVE",
"97 731 CURVE SMOOTH",
"15 344 OFFCURVE",
"247 -20 OFFCURVE",
"689 -20 CURVE SMOOTH",
"1099 -20 OFFCURVE",
"1512 313 OFFCURVE",
"1601 731 CURVE SMOOTH",
"1687 1134 OFFCURVE",
"1429 1483 OFFCURVE",
"1009 1483 CURVE SMOOTH"
);
},
{
closed = 1;
nodes = (
"1336 1376 OFFCURVE",
"1569 1086 OFFCURVE",
"1494 731 CURVE SMOOTH",
"1420 385 OFFCURVE",
"1075 86 OFFCURVE",
"712 86 CURVE SMOOTH",
"367 86 OFFCURVE",
"126 365 OFFCURVE",
"204 731 CURVE SMOOTH",
"277 1075 OFFCURVE",
"623 1376 OFFCURVE",
"986 1376 CURVE SMOOTH"
);
},
{
closed = 1;
nodes = (
"680 1175 LINE",
"491 285 LINE",
"630 285 LINE",
"705 639 LINE",
"840 639 LINE",
"942 285 LINE",
"1097 285 LINE",
"1061 395 OFFCURVE",
"1026 505 OFFCURVE",
"989 615 CURVE SMOOTH",
"969 676 LINE",
"1076 719 OFFCURVE",
"1142 798 OFFCURVE",
"1167 914 CURVE SMOOTH",
"1205 1092 OFFCURVE",
"1114 1175 OFFCURVE",
"907 1175 CURVE SMOOTH"
);
},
{
closed = 1;
nodes = (
"987 1064 OFFCURVE",
"1051 1031 OFFCURVE",
"1025 909 CURVE SMOOTH",
"1005 814 OFFCURVE",
"940 762 OFFCURVE",
"851 755 CURVE",
"831 748 OFFCURVE",
"806 745 OFFCURVE",
"778 745 CURVE SMOOTH",
"728 745 LINE",
"796 1064 LINE",
"845 1064 LINE SMOOTH"
);
}
);
width = 1699;
}
);
unicode = 00AE;
},
{
glyphname = section;
lastChange = "2013-03-13 10:38:35 +0200";
layers = (
{
layerId = UUID0;
name = "Regular Italic";
paths = (
{
closed = 1;
nodes = (
"559 1556 LINE SMOOTH",
"478 1556 OFFCURVE",
"405 1535 OFFCURVE",
"343 1493 CURVE",
"327 1484 LINE",
"262 1435 OFFCURVE",
"221 1371 OFFCURVE",
"205 1292 CURVE SMOOTH",
"185 1201 OFFCURVE",
"211 1121 OFFCURVE",
"282 1064 CURVE",
"185 1020 OFFCURVE",
"113 937 OFFCURVE",
"90 830 CURVE SMOOTH",
"60 688 OFFCURVE",
"140 621 OFFCURVE",
"299 516 CURVE SMOOTH",
"412 440 OFFCURVE",
"428 389 OFFCURVE",
"415 329 CURVE SMOOTH",
"395 236 OFFCURVE",
"309 167 OFFCURVE",
"192 167 CURVE SMOOTH",
"103 167 OFFCURVE",
"20 193 OFFCURVE",
"-38 241 CURVE",
"-66 110 LINE",
"-9 73 OFFCURVE",
"67 54 OFFCURVE",
"178 54 CURVE SMOOTH",
"374 54 OFFCURVE",
"519 166 OFFCURVE",
"556 339 CURVE SMOOTH",
"575 427 OFFCURVE",
"553 490 OFFCURVE",
"483 553 CURVE",
"568 600 OFFCURVE",
"634 694 OFFCURVE",
"655 792 CURVE SMOOTH",
"684 922 OFFCURVE",
"640 989 OFFCURVE",
"521 1072 CURVE SMOOTH",
"468 1109 LINE SMOOTH",
"398 1157 OFFCURVE",
"358 1192 OFFCURVE",
"352 1229 CURVE",
"340 1248 OFFCURVE",
"338 1272 OFFCURVE",
"344 1301 CURVE SMOOTH",
"363 1387 OFFCURVE",
"434 1442 OFFCURVE",
"538 1442 CURVE SMOOTH",
"607 1442 OFFCURVE",
"659 1424 OFFCURVE",
"720 1386 CURVE",
"791 1497 LINE",
"716 1537 OFFCURVE",
"667 1554 OFFCURVE",
"580 1556 CURVE SMOOTH"
);
},
{
closed = 1;
nodes = (
"515 916 OFFCURVE",
"535 864 OFFCURVE",
"516 777 CURVE SMOOTH",
"501 707 OFFCURVE",
"465 653 OFFCURVE",
"407 616 CURVE",
"359 645 LINE SMOOTH",
"243 715 OFFCURVE",
"209 767 OFFCURVE",
"226 845 CURVE SMOOTH",
"241 920 OFFCURVE",
"292 980 OFFCURVE",
"366 1005 CURVE"
);
}
);
width = 755;
}
);
unicode = 00A7;
},
{
glyphname = trademark;
lastChange = "2013-03-13 10:38:35 +0200";
layers = (
{
layerId = UUID0;
name = "Regular Italic";
paths = (
{
closed = 1;
nodes = (
"1205 1462 LINE",
"895 895 LINE",
"833 1462 LINE",
"670 1462 LINE",
"516 741 LINE",
"620 741 LINE",
"703 1128 LINE",
"739 1325 LINE",
"747 1325 LINE",
"811 741 LINE",
"909 741 LINE",
"1227 1322 LINE",
"1234 1322 LINE",
"1194 1157 LINE",
"1105 741 LINE",
"1213 741 LINE",
"1367 1462 LINE"
);
},
{
closed = 1;
nodes = (
"90 1462 LINE",
"69 1363 LINE",
"271 1363 LINE",
"138 741 LINE",
"246 741 LINE",
"379 1363 LINE",
"583 1363 LINE",
"604 1462 LINE"
);
}
);
width = 1424;
}
);
unicode = 2122;
},
{
glyphname = acute;
lastChange = "2013-03-13 10:38:35 +0200";
layers = (
{
layerId = UUID0;
name = "Regular Italic";
paths = (
{
closed = 1;
nodes = (
"613 1569 LINE",
"556 1483 OFFCURVE",
"454 1357 OFFCURVE",
"363 1263 CURVE",
"358 1241 LINE",
"451 1241 LINE",
"564 1320 OFFCURVE",
"741 1475 OFFCURVE",
"797 1550 CURVE",
"801 1569 LINE"
);
}
);
width = 1122;
}
);
unicode = 00B4;
},
{
glyphname = breve;
lastChange = "2013-03-13 10:38:35 +0200";
layers = (
{
layerId = UUID0;
name = "Regular Italic";
paths = (
{
closed = 1;
nodes = (
"747 1508 LINE",
"712 1408 OFFCURVE",
"659 1366 OFFCURVE",
"568 1366 CURVE SMOOTH",
"475 1366 OFFCURVE",
"439 1408 OFFCURVE",
"450 1508 CURVE",
"352 1508 LINE",
"324 1335 OFFCURVE",
"386 1243 OFFCURVE",
"539 1243 CURVE SMOOTH",
"693 1243 OFFCURVE",
"805 1341 OFFCURVE",
"848 1508 CURVE"
);
}
);
width = 1147;
}
);
unicode = 02D8;
},
{
glyphname = caron;
lastChange = "2013-03-13 10:38:35 +0200";
layers = (
{
layerId = UUID0;
name = "Regular Italic";
paths = (
{
closed = 1;
nodes = (
"797 1569 LINE",
"754 1539 OFFCURVE",
"671 1468 OFFCURVE",
"567 1367 CURVE",
"517 1441 OFFCURVE",
"465 1518 OFFCURVE",
"418 1569 CURVE",
"333 1569 LINE",
"328 1547 LINE",
"393 1427 OFFCURVE",
"436 1325 OFFCURVE",
"460 1241 CURVE",
"615 1241 LINE",
"659 1304 OFFCURVE",
"772 1439 OFFCURVE",
"878 1547 CURVE",
"883 1569 LINE"
);
}
);
width = 1150;
}
);
unicode = 02C7;
},
{
glyphname = cedilla;
lastChange = "2013-03-13 10:38:35 +0200";
layers = (
{
layerId = UUID0;
name = "Regular Italic";
paths = (
{
closed = 1;
nodes = (
"218 0 LINE",
"109 -159 LINE",
"211 -176 OFFCURVE",
"261 -213 OFFCURVE",
"246 -285 CURVE SMOOTH",
"232 -348 OFFCURVE",
"183 -388 OFFCURVE",
"93 -388 CURVE SMOOTH",
"59 -388 OFFCURVE",
"30 -383 OFFCURVE",
"4 -375 CURVE",
"-18 -478 LINE",
"4 -487 OFFCURVE",
"36 -492 OFFCURVE",
"80 -492 CURVE SMOOTH",
"243 -492 OFFCURVE",
"349 -417 OFFCURVE",
"378 -281 CURVE SMOOTH",
"398 -187 OFFCURVE",
"353 -127 OFFCURVE",
"258 -102 CURVE",
"325 0 LINE"
);
}
);
width = 449;
}
);
unicode = 00B8;
},
{
glyphname = circumflex;
lastChange = "2013-03-13 10:38:35 +0200";
layers = (
{
layerId = UUID0;
name = "Regular Italic";
paths = (
{
closed = 1;
nodes = (
"530 1569 LINE",
"475 1488 OFFCURVE",
"387 1386 OFFCURVE",
"268 1262 CURVE",
"263 1241 LINE",
"348 1241 LINE",
"417 1293 OFFCURVE",
"502 1370 OFFCURVE",
"581 1442 CURVE",
"649 1341 LINE SMOOTH",
"679 1297 OFFCURVE",
"705 1264 OFFCURVE",
"727 1241 CURVE",
"813 1241 LINE",
"818 1262 LINE",
"755 1373 OFFCURVE",
"699 1503 OFFCURVE",
"685 1569 CURVE"
);
}
);
width = 1150;
}
);
unicode = 02C6;
},
